{
DisplayStrings = (
"/acutecomb.case \U00C1"
);
classes = (
{
code = "L' Lacute Lcaron Lcommaaccent Ldot Lslash";
name = _KERN_L_1ST;
},
{
code = "colon' semicolon";
name = _KERN_colon;
},
{
code = "l' lacute lcaron lcommaaccent ldot lslash";
name = _KERN_l_2ND;
},
{
code = "quoteleft' quotedblleft";
name = _KERN_quoteleft;
},
{
code = "quoteright' quotedblright";
name = _KERN_quoteright;
},
{
code = "r' racute rcaron rcommaaccent rdotbelow";
name = _KERN_r_1ST;
},
{
code = "a b c d e f g h i j k l m n o p q r s t u v w x y z";
name = smcp1;
},
{
code = "R' Racute Rcaron Rcommaaccent Rdotbelow";
name = _KERN_R_1ST;
},
{
code = "e' ae aeacute eacute ebreve ecaron ecircumflex edieresis edotaccent edotbelow egrave emacron eogonek etilde oe";
name = _KERN_e_1ST;
},
{
code = "AE' AEacute";
name = _KERN_AE_2ND;
},
{
code = "a.alt' g gacute gbreve gcircumflex gcommaaccent gdotaccent q q.alt u.alt";
name = _KERN_a.alt_1ST;
},
{
code = "E' AE AEacute Eacute Ebreve Ecaron Ecircumflex Edieresis Edotaccent Edotbelow Egrave Emacron Eogonek Etilde OE";
name = _KERN_E_1ST;
},
{
code = "k' kcommaaccent";
name = _KERN_k_1ST;
},
{
code = "K' Kcommaaccent";
name = _KERN_K_1ST;
},
{
code = "a d j l q t w  y G W";
name = aalt1;
},
{
code = "d' dcaron dcroat ddotbelow";
name = _KERN_d_1ST;
},
{
code = "I.sc' B.sc D.sc E.sc F.sc H.sc K.sc L.sc M.sc N.sc P.sc R.sc";
name = _KERN_I.sc_2ND;
},
{
code = "D' Dcaron Dcroat Ddotbelow Eth";
name = _KERN_D_1ST;
},
{
code = "A.sc B.sc C.sc D.sc E.sc F.sc G.sc H.sc I.sc J.sc K.sc L.sc M.sc N.sc O.sc P.sc Q.sc R.sc S.sc T.sc U.sc V.sc W.sc X.sc Y.sc Z.sc";
name = smcp2;
},
{
code = "J' IJ Jcircumflex";
name = _KERN_J_1ST;
},
{
code = "O.sc' Q.sc";
name = _KERN_O.sc_1ST;
},
{
code = "J' Jcircumflex";
name = _KERN_J_2ND;
},
{
code = "c' cacute ccaron ccedilla ccircumflex cdotaccent";
name = _KERN_c_1ST;
},
{
code = "period' comma quotedblbase quotesinglbase";
name = _KERN_period_1ST;
},
{
code = "w' wacute wcircumflex wdieresis wgrave";

glyphs = (
{
glyphname = A;
layers = (
{
anchors = (
{
name = bottom;
position = "{560, 5}";
},
{
name = top;
position = "{417, 708}";
}
);
layerId = "4E0115BC-0505-415D-92F6-F9BAC1931694";
name = Regular;
paths = (
{
closed = 1;
nodes = (
"-47 0 LINE",
"49 0 LINE",
"170 208 LINE",
"448 208 LINE",
"482 0 LINE",
"578 0 LINE",
"455 710 LINE",
"378 710 LINE"
);
},
{
closed = 1;
nodes = (
"202 278 LINE",
"395 606 LINE",
"444 278 LINE"
);
}
);
width = 652;
}
);
unicode = 0041;
},
{
glyphname = AE;
lastChange = "2015-10-20 20:33:26 +0000";
layers = (
{
anchors = (
{
name = top;
position = "{571, 708}";
}
);
layerId = "4E0115BC-0505-415D-92F6-F9BAC1931694";
name = Regular;
paths = (
{
closed = 1;
nodes = (
"-80 0 LINE",
"18 0 LINE",
"183 208 LINE",
"418 208 LINE",
"373 0 LINE",
"823 0 LINE",
"840 80 LINE",
"479 80 LINE",
"531 322 LINE",
"832 322 LINE",
"849 402 LINE",
"548 402 LINE",
"596 630 LINE",
"949 630 LINE",
"966 710 LINE",
"500 710 LINE"
);
},
{
closed = 1;
nodes = (
"240 288 LINE",
"496 605 LINE",
"428 288 LINE"
);
}
);
width = 924;
}
);
unicode = 00C6;
},
{
glyphname = B;
layers = (
{
layerId = "4E0115BC-0505-415D-92F6-F9BAC1931694";
name = Regular;
paths = (
{
closed = 1;
nodes = (
"20 0 LINE",
"341 0 LINE SMOOTH",
"465 0 OFFCURVE",
"584 89 OFFCURVE",
"584 221 CURVE SMOOTH",
"584 289 OFFCURVE",
"551 344 OFFCURVE",
"492 364 CURVE",
"574 399 OFFCURVE",
"629 481 OFFCURVE",
"629 565 CURVE SMOOTH",
"629 639 OFFCURVE",
"588 710 OFFCURVE",
"509 710 CURVE SMOOTH",
"171 710 LINE"
);
},
{
closed = 1;
nodes = (
"127 78 LINE",
"178 322 LINE",
"416 322 LINE SMOOTH",
"465 322 OFFCURVE",
"495 277 OFFCURVE",
"495 224 CURVE SMOOTH",
"495 148 OFFCURVE",
"427 78 OFFCURVE",
"357 78 CURVE SMOOTH"
);
},
{
closed = 1;
nodes = (
"194 395 LINE",
"244 632 LINE",
"461 632 LINE",
"507 632 OFFCURVE",
"535 592 OFFCURVE",
"535 539 CURVE SMOOTH",
"535 462 OFFCURVE",
"472 395 OFFCURVE",
"405 395 CURVE SMOOTH"
);
}
);
width = 647;
}
);
unicode = 0042;
},
{
glyphname = C;
layers = (
{
anchors = (
{
name = bottom;
position = "{314, 0}";
},
{
name = top;
position = "{448, 708}";
}
);
layerId = "4E0115BC-0505-415D-92F6-F9BAC1931694";
name = Regular;
paths = (
{
closed = 1;
nodes = (
"293 -6 CURVE SMOOTH",
"398 -6 OFFCURVE",
"532 53 OFFCURVE",
"597 159 CURVE",
"531 200 LINE",
"474 112 OFFCURVE",
"384 75 OFFCURVE",
"314 75 CURVE SMOOTH",
"203 75 OFFCURVE",
"136 178 OFFCURVE",
"136 299 CURVE SMOOTH",
"136 450 OFFCURVE",
"257 633 OFFCURVE",
"430 633 CURVE SMOOTH",
"498 633 OFFCURVE",
"569 603 OFFCURVE",
"589 513 CURVE",
"670 559 LINE",
"647 650 OFFCURVE",
"571 714 OFFCURVE",
"451 714 CURVE SMOOTH",
"217 714 OFFCURVE",
"45 489 OFFCURVE",
"45 294 CURVE SMOOTH",
"45 141 OFFCURVE",
"135 -6 OFFCURVE"
);
}
);
width = 653;
}
);
unicode = 0043;
},
{
glyphname = D;
layers = (
{
anchors = (
{
name = top;
position = "{391, 708}";
}
);
layerId = "4E0115BC-0505-415D-92F6-F9BAC1931694";
name = Regular;
paths = (
{
closed = 1;
nodes = (
"20 0 LINE",
"255 0 LINE",
"492 0 OFFCURVE",
"668 186 OFFCURVE",
"668 437 CURVE SMOOTH",
"668 590 OFFCURVE",
"585 710 OFFCURVE",
"406 710 CURVE SMOOTH",
"171 710 LINE"
);
},
{
closed = 1;
nodes = (
"127 80 LINE",
"244 630 LINE",
"389 630 LINE SMOOTH",
"512 630 OFFCURVE",
"575 544 OFFCURVE",
"575 423 CURVE SMOOTH",
"575 242 OFFCURVE",
"458 80 OFFCURVE",
"272 80 CURVE SMOOTH"
);
}
);
width = 692;
}
);
unicode = 0044;
},
{
glyphname = Eth;
layers = (
{
layerId = "4E0115BC-0505-415D-92F6-F9BAC1931694";
name = Regular;
paths = (
{
closed = 1;
nodes = (
"42 323 LINE",
"337 323 LINE",
"351 391 LINE",
"57 391 LINE"
);
},
{
closed = 1;
nodes = (
"27 0 LINE",
"262 0 LINE",
"499 0 OFFCURVE",
"675 186 OFFCURVE",
"675 437 CURVE SMOOTH",
"675 590 OFFCURVE",
"592 710 OFFCURVE",
"413 710 CURVE SMOOTH",
"178 710 LINE"
);
},
{
closed = 1;
nodes = (
"134 80 LINE",
"251 630 LINE",
"396 630 LINE SMOOTH",
"519 630 OFFCURVE",
"582 544 OFFCURVE",
"582 423 CURVE SMOOTH",
"582 242 OFFCURVE",
"465 80 OFFCURVE",
"279 80 CURVE SMOOTH"
);
}
);
width = 699;
}
);
unicode = 00D0;
},
{
glyphname = Dcroat;
layers = (
{
layerId = "4E0115BC-0505-415D-92F6-F9BAC1931694";
name = Regular;
paths = (
{
closed = 1;
nodes = (
"42 323 LINE",
"337 323 LINE",
"351 391 LINE",
"57 391 LINE"
);
},
{
closed = 1;
nodes = (
"27 0 LINE",
"262 0 LINE",
"499 0 OFFCURVE",
"675 186 OFFCURVE",
"675 437 CURVE SMOOTH",
"675 590 OFFCURVE",
"592 710 OFFCURVE",
"413 710 CURVE SMOOTH",
"178 710 LINE"
);
},
{
closed = 1;
nodes = (
"134 80 LINE",
"251 630 LINE",
"396 630 LINE SMOOTH",
"519 630 OFFCURVE",
"582 544 OFFCURVE",
"582 423 CURVE SMOOTH",
"582 242 OFFCURVE",
"465 80 OFFCURVE",
"279 80 CURVE SMOOTH"
);
}
);
width = 699;
}
);
unicode = 0110;
},
{
glyphname = E;
layers = (
{
anchors = (
{
name = bottom;
position = "{274, 0}";
},
{
name = top;
position = "{385, 708}";
}
);
layerId = "4E0115BC-0505-415D-92F6-F9BAC1931694";
name = Regular;
paths = (
{
closed = 1;
nodes = (
"20 0 LINE",
"479 0 LINE",
"496 80 LINE",
"127 80 LINE",
"179 325 LINE",
"492 325 LINE",
"508 400 LINE",
"195 400 LINE",
"244 630 LINE",
"604 630 LINE",
"621 710 LINE",
"171 710 LINE"
);
}
);
width = 580;
}
);
unicode = 0045;
},
{
glyphname = F;
layers = (
{
layerId = "4E0115BC-0505-415D-92F6-F9BAC1931694";
name = Regular;
paths = (
{
closed = 1;
nodes = (
"20 0 LINE",
"110 0 LINE",
"178 318 LINE",
"477 318 LINE",
"493 393 LINE",
"194 393 LINE",
"244 630 LINE",
"600 630 LINE",
"617 710 LINE",
"171 710 LINE"
);
}
);
width = 565;
}
);
unicode = 0046;
},
{
glyphname = G;
layers = (
{
anchors = (
{
name = bottom;
position = "{316, 0}";
},
{
name = top;
position = "{447, 708}";
}
);
layerId = "4E0115BC-0505-415D-92F6-F9BAC1931694";
name = Regular;
paths = (
{
closed = 1;
nodes = (
"292 -5 CURVE SMOOTH",
"374 -5 OFFCURVE",
"452 32 OFFCURVE",
"530 109 CURVE",
"549 202 LINE",
"469 116 OFFCURVE",
"392 76 OFFCURVE",
"316 76 CURVE SMOOTH",
"206 76 OFFCURVE",
"136 175 OFFCURVE",
"136 297 CURVE SMOOTH",
"136 462 OFFCURVE",
"268 634 OFFCURVE",
"426 634 CURVE SMOOTH",
"508 634 OFFCURVE",
"570 594 OFFCURVE",
"592 512 CURVE",
"671 560 LINE",
"646 652 OFFCURVE",
"575 715 OFFCURVE",
"445 715 CURVE SMOOTH",
"238 715 OFFCURVE",
"45 508 OFFCURVE",
"45 292 CURVE SMOOTH",
"45 137 OFFCURVE",
"139 -5 OFFCURVE"
);
},
{
closed = 1;
nodes = (
"496 0 LINE",
"572 0 LINE",
"647 354 LINE",
"427 354 LINE",
"412 286 LINE",
"557 286 LINE"
);
}
);
width = 686;
}
);
unicode = 0047;
},
{
glyphname = H;
layers = (
{
anchors = (
{
name = top;
position = "{441, 708}";
}
);
layerId = "4E0115BC-0505-415D-92F6-F9BAC1931694";
name = Regular;
paths = (
{
closed = 1;
nodes = (
"20 0 LINE",
"110 0 LINE",
"179 323 LINE",
"544 323 LINE",
"475 0 LINE",
"565 0 LINE",
"716 710 LINE",
"626 710 LINE",
"561 403 LINE",
"196 403 LINE",
"261 710 LINE",
"171 710 LINE"
);
}
);
width = 713;
}
);
unicode = 0048;
},
{
glyphname = Hbar;
layers = (
{
layerId = "4E0115BC-0505-415D-92F6-F9BAC1931694";
name = Regular;
paths = (
{
closed = 1;
nodes = (
"95 548 LINE",
"735 548 LINE",
"745 595 LINE",
"105 595 LINE"
);
},
{
closed = 1;
nodes = (
"26 0 LINE",
"116 0 LINE",
"185 323 LINE",
"550 323 LINE",
"481 0 LINE",
"571 0 LINE",
"722 710 LINE",
"632 710 LINE",
"567 403 LINE",
"202 403 LINE",
"267 710 LINE",
"177 710 LINE"
);
}
);
width = 723;
}
);
unicode = 0126;
},
{
glyphname = I;
layers = (
{
anchors = (
{
name = bottom;
position = "{70, 0}";
},
{
name = top;
position = "{211, 708}";
}
);
layerId = "4E0115BC-0505-415D-92F6-F9BAC1931694";
name = Regular;
paths = (
{
closed = 1;
nodes = (
"20 0 LINE",
"110 0 LINE",
"261 709 LINE",
"171 709 LINE"
);
}
);
width = 258;
}
);
unicode = 0049;
},
{
glyphname = J;
layers = (
{
anchors = (
{
name = top;
position = "{439, 708}";
}
);
layerId = "4E0115BC-0505-415D-92F6-F9BAC1931694";
name = Regular;
paths = (
{
closed = 1;
nodes = (
"98 -11 CURVE SMOOTH",
"304 -11 OFFCURVE",
"360 133 OFFCURVE",
"406 349 CURVE SMOOTH",
"483 709 LINE",
"393 709 LINE",
"316 349 LINE SMOOTH",
"277 168 OFFCURVE",
"241 70 OFFCURVE",
"115 70 CURVE SMOOTH",
"61 70 OFFCURVE",
"19 88 OFFCURVE",
"-1 106 CURVE",
"-39 33 LINE",
"-5 4 OFFCURVE",
"40 -11 OFFCURVE"
);
}
);
width = 472;
}
);
unicode = 004A;
},
{
glyphname = K;
layers = (
{
anchors = (
{
name = bottom;
position = "{278, 0}";
}
);
layerId = "4E0115BC-0505-415D-92F6-F9BAC1931694";
name = Regular;
paths = (
{
closed = 1;
nodes = (
"20 0 LINE",
"110 0 LINE",
"156 217 LINE",
"297 345 LINE",
"465 0 LINE",
"564 0 LINE",
"364 397 LINE",
"700 710 LINE",
"602 710 LINE",
"177 317 LINE",
"261 709 LINE",
"171 709 LINE"
);
}
);
width = 625;
}
);
unicode = 004B;
},
{
glyphname = L;
layers = (
{
anchors = (
{
name = bottom;
position = "{275, 0}";
},
{
name = top;
position = "{213, 708}";
}
);
layerId = "4E0115BC-0505-415D-92F6-F9BAC1931694";
name = Regular;
paths = (
{
closed = 1;
nodes = (
"20 0 LINE",
"483 0 LINE",
"500 80 LINE",
"127 80 LINE",
"261 710 LINE",
"171 710 LINE"
);
}
);
width = 559;
}
);
unicode = 004C;
},
{
glyphname = Lslash;
layers = (
{
layerId = "4E0115BC-0505-415D-92F6-F9BAC1931694";
name = Regular;
paths = (
{
closed = 1;
nodes = (
"24 233 LINE",
"374 474 LINE",
"360 523 LINE",
"9 283 LINE"
);
},
{
closed = 1;
nodes = (
"27 0 LINE",
"490 0 LINE",
"507 80 LINE",
"134 80 LINE",
"268 710 LINE",
"178 710 LINE"
);
}
);
width = 565;
}
);
unicode = 0141;
},
{
glyphname = M;
layers = (
{
layerId = "4E0115BC-0505-415D-92F6-F9BAC1931694";
name = Regular;
paths = (
{
closed = 1;
nodes = (
"20 0 LINE",
"110 0 LINE",
"227 549 LINE",
"357 128 LINE",
"408 128 LINE",
"717 549 LINE",
"600 0 LINE",
"690 0 LINE",
"841 710 LINE",
"747 710 LINE",
"408 249 LINE",
"266 710 LINE",
"171 710 LINE"
);
}
);
width = 838;
}
);
unicode = 004D;
},
{
glyphname = N;
layers = (
{
anchors = (
{
name = bottom;
position = "{327, 0}";
},
{
name = top;
position = "{473, 708}";
}
);
layerId = "4E0115BC-0505-415D-92F6-F9BAC1931694";
name = Regular;
paths = (
{
closed = 1;
nodes = (
"20 0 LINE",
"110 0 LINE",
"225 542 LINE",
"516 0 LINE",
"591 0 LINE",
"742 709 LINE",
"652 709 LINE",
"535 157 LINE",
"241 710 LINE",
"171 710 LINE"
);
}
);
width = 739;
}
);
unicode = 004E;
},
{
glyphname = Eng;
layers = (
{
layerId = "4E0115BC-0505-415D-92F6-F9BAC1931694";
name = Regular;
paths = (
{
closed = 1;
nodes = (
"387 -186 CURVE SMOOTH",
"468 -186 OFFCURVE",
"558 -118 OFFCURVE",
"579 -20 CURVE SMOOTH",
"734 709 LINE",
"644 709 LINE",
"527 161 LINE",
"240 710 LINE",
"171 710 LINE",
"20 0 LINE",
"110 0 LINE",
"225 540 LINE",
"498 15 LINE",
"490 -23 LINE SMOOTH",
"480 -72 OFFCURVE",
"434 -108 OFFCURVE",
"393 -108 CURVE SMOOTH",
"371 -108 OFFCURVE",
"348 -102 OFFCURVE",
"335 -85 CURVE",
"282 -144 LINE",
"306 -173 OFFCURVE",
"344 -186 OFFCURVE"
);
}
);
width = 732;
}
);
unicode = 014A;
},
{
glyphname = O;
layers = (
{
anchors = (
{
name = bottom;
position = "{314, 0}";
},
{
name = top;
position = "{451, 708}";
}
);
layerId = "4E0115BC-0505-415D-92F6-F9BAC1931694";
name = Regular;
paths = (
{
closed = 1;
nodes = (
"295 -5 CURVE SMOOTH",
"504 -5 OFFCURVE",
"699 205 OFFCURVE",
"699 420 CURVE SMOOTH",
"699 571 OFFCURVE",
"611 715 OFFCURVE",
"450 715 CURVE SMOOTH",
"241 715 OFFCURVE",
"44 505 OFFCURVE",
"44 288 CURVE SMOOTH",
"44 135 OFFCURVE",
"134 -5 OFFCURVE"
);
},
{
closed = 1;
nodes = (
"313 76 CURVE SMOOTH",
"198 76 OFFCURVE",
"136 178 OFFCURVE",
"136 296 CURVE SMOOTH",
"136 456 OFFCURVE",
"267 633 OFFCURVE",
"431 633 CURVE SMOOTH",
"544 633 OFFCURVE",
"607 531 OFFCURVE",
"607 413 CURVE SMOOTH",
"607 255 OFFCURVE",
"477 76 OFFCURVE"
);
}
);
width = 721;
}
);
unicode = 004F;
},
{
glyphname = OE;
layers = (
{
layerId = "4E0115BC-0505-415D-92F6-F9BAC1931694";
name = Regular;
paths = (
{
closed = 1;
nodes = (
"295 -5 CURVE SMOOTH",
"396 -5 OFFCURVE",
"496 65 OFFCURVE",
"559 157 CURVE",
"525 0 LINE",
"976 0 LINE",
"993 80 LINE",
"632 80 LINE",
"684 322 LINE",
"985 322 LINE",
"1002 402 LINE",
"701 402 LINE",
"749 630 LINE",
"1102 630 LINE",
"1119 710 LINE",
"676 710 LINE",
"643 553 LINE",
"620 643 OFFCURVE",
"553 715 OFFCURVE",
"449 715 CURVE SMOOTH",
"240 715 OFFCURVE",
"44 505 OFFCURVE",
"44 288 CURVE SMOOTH",
"44 135 OFFCURVE",
"134 -5 OFFCURVE"
);
},
{
closed = 1;
nodes = (
"312 76 CURVE SMOOTH",
"198 76 OFFCURVE",
"136 178 OFFCURVE",
"136 296 CURVE SMOOTH",
"136 456 OFFCURVE",
"267 634 OFFCURVE",
"431 634 CURVE SMOOTH",
"543 634 OFFCURVE",
"606 531 OFFCURVE",
"606 414 CURVE SMOOTH",
"606 255 OFFCURVE",
"476 76 OFFCURVE"
);
}
);
width = 1077;
}
);
unicode = 0152;
},
{
glyphname = P;
layers = (
{
layerId = "4E0115BC-0505-415D-92F6-F9BAC1931694";
name = Regular;
paths = (
{
closed = 1;
nodes = (
"20 0 LINE",
"110 0 LINE",
"164 255 LINE",
"361 255 LINE SMOOTH",
"499 255 OFFCURVE",
"615 393 OFFCURVE",
"615 522 CURVE SMOOTH",
"615 618 OFFCURVE",
"555 710 OFFCURVE",
"453 710 CURVE SMOOTH",
"171 710 LINE"
);
},
{
closed = 1;
nodes = (
"181 335 LINE",
"244 630 LINE",
"430 630 LINE SMOOTH",
"484 630 OFFCURVE",
"523 581 OFFCURVE",
"523 514 CURVE SMOOTH",
"523 423 OFFCURVE",
"454 335 OFFCURVE",
"373 335 CURVE SMOOTH"
);
}
);
width = 601;
}
);
unicode = 0050;
},
{
glyphname = Thorn;
layers = (
{
layerId = "4E0115BC-0505-415D-92F6-F9BAC1931694";
name = Regular;
paths = (
{
closed = 1;
nodes = (
"20 0 LINE",
"110 0 LINE",
"135 118 LINE",
"315 118 LINE SMOOTH",
"453 118 OFFCURVE",
"569 255 OFFCURVE",
"569 385 CURVE SMOOTH",
"569 481 OFFCURVE",
"509 573 OFFCURVE",
"406 573 CURVE",
"232 573 LINE",
"261 710 LINE",
"171 710 LINE"
);
},
{
closed = 1;
nodes = (
"152 198 LINE",
"215 493 LINE",
"385 493 LINE SMOOTH",
"440 493 OFFCURVE",
"477 441 OFFCURVE",
"477 376 CURVE SMOOTH",
"477 290 OFFCURVE",
"410 198 OFFCURVE",
"328 198 CURVE"
);
}
);
width = 581;
}
);
unicode = 00DE;
},
{
glyphname = Q;
layers = (
{
layerId = "4E0115BC-0505-415D-92F6-F9BAC1931694";
name = Regular;
paths = (
{
closed = 1;
nodes = (
"295 -5 CURVE SMOOTH",
"504 -5 OFFCURVE",
"699 205 OFFCURVE",
"699 420 CURVE SMOOTH",
"699 571 OFFCURVE",
"611 715 OFFCURVE",
"450 715 CURVE SMOOTH",
"241 715 OFFCURVE",
"44 505 OFFCURVE",
"44 288 CURVE SMOOTH",
"44 135 OFFCURVE",
"134 -5 OFFCURVE"
);
},
{
closed = 1;
nodes = (
"313 76 CURVE SMOOTH",
"198 76 OFFCURVE",
"136 178 OFFCURVE",
"136 296 CURVE SMOOTH",
"136 456 OFFCURVE",
"267 634 OFFCURVE",
"431 634 CURVE SMOOTH",
"544 634 OFFCURVE",
"607 531 OFFCURVE",
"607 413 CURVE SMOOTH",
"607 255 OFFCURVE",
"477 76 OFFCURVE"
);
},
{
closed = 1;
nodes = (
"522 0 LINE",
"610 0 LINE",
"466 232 LINE",
"379 232 LINE"
);
}
);
width = 720;
}
);
unicode = 0051;
},
{
glyphname = R;
layers = (
{
anchors = (
{
name = bottom;
position = "{254, 0}";
},
{
name = top;
position = "{405, 710}";
}
);
layerId = "4E0115BC-0505-415D-92F6-F9BAC1931694";
name = Regular;
paths = (
{
closed = 1;
nodes = (
"110 0 LINE",
"164 255 LINE",
"338 255 LINE",
"436 0 LINE",
"538 0 LINE",
"433 272 LINE",
"539 299 OFFCURVE",
"623 411 OFFCURVE",
"623 522 CURVE SMOOTH",
"623 618 OFFCURVE",
"563 710 OFFCURVE",
"461 710 CURVE SMOOTH",
"171 710 LINE",
"20 0 LINE"
);
},
{
closed = 1;
nodes = (
"181 335 LINE",
"244 630 LINE",
"439 630 LINE SMOOTH",
"492 630 OFFCURVE",
"530 577 OFFCURVE",
"530 512 CURVE SMOOTH",
"530 425 OFFCURVE",
"462 335 OFFCURVE",
"382 335 CURVE SMOOTH"
);
}
);
width = 633;
}
);
unicode = 0052;
},
{
glyphname = S;
layers = (
{
anchors = (
{
name = bottom;
position = "{239, 0}";
},
{
name = top;
position = "{393, 721}";
}
);
layerId = "4E0115BC-0505-415D-92F6-F9BAC1931694";
name = Regular;
paths = (
{
closed = 1;
nodes = (
"242 -7 CURVE SMOOTH",
"401 -7 OFFCURVE",
"535 69 OFFCURVE",
"535 229 CURVE SMOOTH",
"535 327 OFFCURVE",
"461 365 OFFCURVE",
"346 394 CURVE SMOOTH",
"246 419 OFFCURVE",
"195 439 OFFCURVE",
"195 498 CURVE SMOOTH",
"195 577 OFFCURVE",
"249 635 OFFCURVE",
"370 635 CURVE SMOOTH",
"450 635 OFFCURVE",
"515 598 OFFCURVE",
"537 561 CURVE",
"594 634 LINE",
"548 683 OFFCURVE",
"479 715 OFFCURVE",
"389 715 CURVE SMOOTH",
"228 715 OFFCURVE",
"96 623 OFFCURVE",
"96 469 CURVE SMOOTH",
"96 384 OFFCURVE",
"158 348 OFFCURVE",
"268 318 CURVE SMOOTH",
"372 290 OFFCURVE",
"435 266 OFFCURVE",
"435 201 CURVE SMOOTH",
"435 121 OFFCURVE",
"369 74 OFFCURVE",
"261 74 CURVE SMOOTH",
"158 74 OFFCURVE",
"76 124 OFFCURVE",
"47 169 CURVE",
"-12 93 LINE",
"50 28 OFFCURVE",
"139 -7 OFFCURVE"
);
}
);
width = 588;
}
);
unicode = 0053;
},
{
glyphname = Schwa;
layers = (
{
layerId = "4E0115BC-0505-415D-92F6-F9BAC1931694";
name = Regular;
paths = (
{
closed = 1;
nodes = (
"282 -5 CURVE SMOOTH",
"488 -5 OFFCURVE",
"684 192 OFFCURVE",
"684 426 CURVE SMOOTH",
"684 589 OFFCURVE",
"587 715 OFFCURVE",
"438 715 CURVE SMOOTH",
"320 715 OFFCURVE",
"191 643 OFFCURVE",
"119 538 CURVE",
"197 499 LINE",
"236 576 OFFCURVE",
"327 632 OFFCURVE",
"413 632 CURVE SMOOTH",
"516 632 OFFCURVE",
"586 547 OFFCURVE",
"586 428 CURVE SMOOTH",
"586 416 OFFCURVE",
"585 404 OFFCURVE",
"584 392 CURVE",
"48 392 LINE",
"41 378 OFFCURVE",
"27 339 OFFCURVE",
"27 282 CURVE SMOOTH",
"27 122 OFFCURVE",
"129 -5 OFFCURVE"
);
},
{
closed = 1;
nodes = (
"301 76 CURVE SMOOTH",
"182 76 OFFCURVE",
"115 159 OFFCURVE",
"115 263 CURVE SMOOTH",
"115 280 OFFCURVE",
"116 297 OFFCURVE",
"120 314 CURVE",
"569 314 LINE",
"531 177 OFFCURVE",
"418 76 OFFCURVE"
);
}
);
width = 706;
}
);
unicode = 018F;
},
{
glyphname = T;
layers = (
{
anchors = (
{
name = bottom;
position = "{229, 0}";
},
{
name = top;
position = "{380, 708}";
}
);
layerId = "4E0115BC-0505-415D-92F6-F9BAC1931694";
name = Regular;
paths = (
{
closed = 1;
nodes = (
"183 0 LINE",
"273 0 LINE",
"407 630 LINE",
"638 630 LINE",
"655 710 LINE",
"103 710 LINE",
"86 630 LINE",
"317 630 LINE"
);
}
);
width = 586;
}
);
unicode = 0054;
},
{
glyphname = Tbar;
layers = (
{
layerId = "4E0115BC-0505-415D-92F6-F9BAC1931694";
name = Regular;
paths = (
{
closed = 1;
nodes = (
"74 350 LINE",
"561 350 LINE",
"571 397 LINE",
"84 397 LINE"
);
},
{
closed = 1;
nodes = (
"198 0 LINE",
"288 0 LINE",
"422 630 LINE",
"653 630 LINE",
"670 710 LINE",
"118 710 LINE",
"101 630 LINE",
"332 630 LINE"
);
}
);
width = 617;
}
);
unicode = 0166;
},
{
glyphname = U;
layers = (
{
anchors = (
{
name = bottom;
position = "{318, 0}";
},
{
name = top;
position = "{443, 708}";
}
);
layerId = "4E0115BC-0505-415D-92F6-F9BAC1931694";
name = Regular;
paths = (
{
closed = 1;
nodes = (
"298 -5 CURVE SMOOTH",
"505 -5 OFFCURVE",
"620 159 OFFCURVE",
"661 351 CURVE SMOOTH",
"737 710 LINE",
"647 710 LINE",
"571 351 LINE SMOOTH",
"542 215 OFFCURVE",
"468 76 OFFCURVE",
"314 76 CURVE SMOOTH",
"201 76 OFFCURVE",
"163 151 OFFCURVE",
"163 247 CURVE SMOOTH",
"163 280 OFFCURVE",
"167 315 OFFCURVE",
"175 351 CURVE SMOOTH",
"251 710 LINE",
"161 710 LINE",
"85 351 LINE SMOOTH",
"76 310 OFFCURVE",
"71 270 OFFCURVE",
"71 232 CURVE SMOOTH",
"71 100 OFFCURVE",
"131 -5 OFFCURVE"
);
}
);
width = 725;
}
);
unicode = 0055;
},
{
glyphname = V;
layers = (
{
layerId = "4E0115BC-0505-415D-92F6-F9BAC1931694";
name = Regular;
paths = (
{
closed = 1;
nodes = (
"219 0 LINE",
"297 0 LINE",
"722 710 LINE",
"627 710 LINE",
"282 113 LINE",
"190 710 LINE",
"95 710 LINE"
);
}
);
width = 650;
}
);
unicode = 0056;
},
{
glyphname = W;
layers = (
{
anchors = (
{
name = top;
position = "{582, 708}";
}
);
layerId = "4E0115BC-0505-415D-92F6-F9BAC1931694";
name = Regular;
paths = (
{
closed = 1;
nodes = (
"223 0 LINE",
"300 0 LINE",
"505 335 LINE",
"566 0 LINE",
"643 0 LINE",
"1076 710 LINE",
"977 710 LINE",
"624 104 LINE",
"574 397 LINE",
"756 706 LINE",
"671 706 LINE",
"530 459 LINE",
"495 706 LINE",
"410 706 LINE",
"461 397 LINE",
"286 104 LINE",
"190 710 LINE",
"93 710 LINE"
);
}
);
width = 1002;
}
);
unicode = 0057;
},
{
glyphname = X;
layers = (
{
layerId = "4E0115BC-0505-415D-92F6-F9BAC1931694";
name = Regular;
paths = (
{
closed = 1;
nodes = (
"-52 0 LINE",
"48 0 LINE",
"302 286 LINE",
"435 0 LINE",
"534 0 LINE",
"364 350 LINE",
"693 710 LINE",
"594 710 LINE",
"330 414 LINE",
"191 710 LINE",
"91 710 LINE",
"267 350 LINE"
);
}
);
width = 610;
}
);
unicode = 0058;
},
{
glyphname = Y;
layers = (
{
anchors = (
{
name = top;
position = "{387, 708}";
}
);
layerId = "4E0115BC-0505-415D-92F6-F9BAC1931694";
name = Regular;
paths = (
{
closed = 1;
nodes = (
"192 0 LINE",
"282 0 LINE",
"337 259 LINE",
"689 710 LINE",
"591 710 LINE",
"310 340 LINE",
"188 710 LINE",
"89 710 LINE",
"248 261 LINE"
);
}
);
width = 612;
}
);
unicode = 0059;
},
{
glyphname = Z;
layers = (
{
anchors = (
{
name = top;
position = "{390, 708}";
}
);
layerId = "4E0115BC-0505-415D-92F6-F9BAC1931694";
name = Regular;
paths = (
{
closed = 1;
nodes = (
"-34 0 LINE",
"501 0 LINE",
"518 80 LINE",
"96 80 LINE",
"637 640 LINE",
"652 710 LINE",
"126 710 LINE",
"109 630 LINE",
"530 630 LINE",
"-19 70 LINE"
);
}
);
width = 600;
}
);
unicode = 005A;
},
{
glyphname = G.alt;
layers = (
{
layerId = "4E0115BC-0505-415D-92F6-F9BAC1931694";
name = Regular;
paths = (
{
closed = 1;
nodes = (
"301 -5 CURVE SMOOTH",
"474 -5 OFFCURVE",
"626 141 OFFCURVE",
"673 308 CURVE SMOOTH",
"675 314 OFFCURVE",
"684 353 OFFCURVE",
"685 357 CURVE",
"408 357 LINE",
"391 277 LINE",
"570 277 LINE",
"530 174 OFFCURVE",
"425 76 OFFCURVE",
"311 76 CURVE SMOOTH",
"195 76 OFFCURVE",
"136 183 OFFCURVE",
"136 297 CURVE SMOOTH",
"136 456 OFFCURVE",
"267 634 OFFCURVE",
"430 634 CURVE SMOOTH",
"525 634 OFFCURVE",
"575 565 OFFCURVE",
"594 506 CURVE",
"677 563 LINE",
"644 655 OFFCURVE",
"565 715 OFFCURVE",
"452 715 CURVE SMOOTH",
"233 715 OFFCURVE",
"45 502 OFFCURVE",
"45 291 CURVE SMOOTH",
"45 135 OFFCURVE",
"139 -5 OFFCURVE"
);
}
);
width = 699;
}
);
},
{
glyphname = W.alt;
layers = (
{
layerId = "4E0115BC-0505-415D-92F6-F9BAC1931694";
name = Regular;
paths = (
{
closed = 1;
nodes = (
"160 0 LINE",
"254 0 LINE",
"560 563 LINE",
"632 0 LINE",
"726 0 LINE",
"1091 710 LINE",
"989 710 LINE",
"699 133 LINE",
"640 710 LINE",
"542 710 LINE",
"243 133 LINE",
"198 710 LINE",
"97 710 LINE"
);
}
);
width = 1024;
}
);
},
{
glyphname = a;
lastChange = "2015-11-01 09:00:57 +0000";
layers = (
{
anchors = (
{
name = bottom;
position = "{417, 7}";
},
{
name = top;
position = "{311, 522}";
}
);
layerId = "4E0115BC-0505-415D-92F6-F9BAC1931694";
name = Regular;
paths = (
{
closed = 1;
nodes = (
"208 -10 CURVE SMOOTH",
"279 -10 OFFCURVE",
"359 31 OFFCURVE",
"411 98 CURVE",
"405 71 OFFCURVE",
"402 53 OFFCURVE",
"402 41 CURVE SMOOTH",
"402 15 OFFCURVE",
"422 -4 OFFCURVE",
"459 -4 CURVE SMOOTH",
"468 -4 OFFCURVE",
"479 -2 OFFCURVE",
"494 0 CURVE",
"510 76 LINE",
"495 77 OFFCURVE",
"488 82 OFFCURVE",
"488 95 CURVE SMOOTH",
"488 99 OFFCURVE",
"489 103 OFFCURVE",
"490 108 CURVE SMOOTH",
"578 522 LINE",
"490 522 LINE",
"467 418 LINE",
"445 481 OFFCURVE",
"391 531 OFFCURVE",
"311 531 CURVE SMOOTH",
"159 531 OFFCURVE",
"22 374 OFFCURVE",
"22 207 CURVE SMOOTH",
"22 89 OFFCURVE",
"91 -10 OFFCURVE"
);
},
{
closed = 1;
nodes = (
"246 66 CURVE SMOOTH",
"166 66 OFFCURVE",
"115 135 OFFCURVE",
"115 221 CURVE SMOOTH",
"115 334 OFFCURVE",
"210 455 OFFCURVE",
"321 455 CURVE SMOOTH",
"382 455 OFFCURVE",
"440 401 OFFCURVE",
"449 333 CURVE",
"418 183 LINE",
"391 118 OFFCURVE",
"304 66 OFFCURVE"
);
}
);
width = 606;
}
);
unicode = 0061;
},
{
glyphname = ae;
layers = (
{
anchors = (
{
name = top;
position = "{382, 522}";
}
);
layerId = "4E0115BC-0505-415D-92F6-F9BAC1931694";
name = Regular;
paths = (
{
closed = 1;
nodes = (
"133 -10 CURVE SMOOTH",
"197 -10 OFFCURVE",
"302 21 OFFCURVE",
"363 103 CURVE",
"392 35 OFFCURVE",
"457 -10 OFFCURVE",
"547 -10 CURVE SMOOTH",
"648 -10 OFFCURVE",
"744 45 OFFCURVE",
"793 122 CURVE",
"721 143 LINE",
"690 91 OFFCURVE",
"624 56 OFFCURVE",
"563 56 CURVE SMOOTH",
"483 56 OFFCURVE",
"426 115 OFFCURVE",
"426 201 CURVE SMOOTH",
"426 212 OFFCURVE",
"427 221 OFFCURVE",
"428 231 CURVE",
"846 231 LINE",
"849 239 OFFCURVE",
"861 261 OFFCURVE",
"861 311 CURVE SMOOTH",
"861 434 OFFCURVE",
"788 531 OFFCURVE",
"661 531 CURVE SMOOTH",
"581 531 OFFCURVE",
"508 493 OFFCURVE",
"454 436 CURVE",
"435 496 OFFCURVE",
"383 531 OFFCURVE",
"303 531 CURVE SMOOTH",
"237 531 OFFCURVE",
"168 508 OFFCURVE",
"94 463 CURVE",
"110 406 LINE",
"174 446 OFFCURVE",
"230 467 OFFCURVE",
"280 467 CURVE SMOOTH",
"348 467 OFFCURVE",
"385 429 OFFCURVE",
"385 381 CURVE SMOOTH",
"385 349 OFFCURVE",
"368 328 OFFCURVE",
"358 294 CURVE",
"326 306 OFFCURVE",
"283 314 OFFCURVE",
"240 314 CURVE SMOOTH",
"103 314 OFFCURVE",
"-6 235 OFFCURVE",
"-6 124 CURVE SMOOTH",
"-6 48 OFFCURVE",
"46 -10 OFFCURVE"
);
},
{
closed = 1;
nodes = (
"169 56 CURVE SMOOTH",
"111 56 OFFCURVE",
"80 94 OFFCURVE",
"80 141 CURVE SMOOTH",
"80 212 OFFCURVE",
"150 261 OFFCURVE",
"243 261 CURVE SMOOTH",
"278 261 OFFCURVE",
"316 254 OFFCURVE",
"347 242 CURVE",
"344 227 OFFCURVE",
"342 206 OFFCURVE",
"342 188 CURVE SMOOTH",
"342 175 OFFCURVE",
"343 164 OFFCURVE",
"345 155 CURVE",
"326 103 OFFCURVE",
"234 56 OFFCURVE"
);
},
{
closed = 1;
nodes = (
"439 288 LINE",
"467 391 OFFCURVE",
"552 465 OFFCURVE",
"644 465 CURVE SMOOTH",
"726 465 OFFCURVE",
"777 407 OFFCURVE",
"777 321 CURVE SMOOTH",
"777 311 OFFCURVE",
"777 299 OFFCURVE",
"775 288 CURVE"
);
}
);
width = 888;
}
);
unicode = 00E6;
},
{
glyphname = b;
layers = (
{
layerId = "4E0115BC-0505-415D-92F6-F9BAC1931694";
name = Regular;
paths = (
{
closed = 1;
nodes = (
"263 -10 CURVE SMOOTH",
"413 -10 OFFCURVE",
"560 142 OFFCURVE",
"560 318 CURVE SMOOTH",
"560 430 OFFCURVE",
"501 531 OFFCURVE",
"386 531 CURVE SMOOTH",
"309 531 OFFCURVE",
"237 486 OFFCURVE",
"182 418 CURVE",
"248 730 LINE",
"160 730 LINE",
"5 0 LINE",
"83 0 LINE",
"104 98 LINE",
"126 35 OFFCURVE",
"181 -10 OFFCURVE"
);
},
{
closed = 1;
nodes = (
"260 66 CURVE SMOOTH",
"190 66 OFFCURVE",
"132 118 OFFCURVE",
"132 182 CURVE",
"164 333 LINE",
"207 399 OFFCURVE",
"275 455 OFFCURVE",
"344 455 CURVE SMOOTH",
"423 455 OFFCURVE",
"467 382 OFFCURVE",
"467 302 CURVE SMOOTH",
"467 181 OFFCURVE",
"365 66 OFFCURVE"
);
}
);
width = 599;
}
);
unicode = 0062;
},
{
glyphname = c;
layers = (
{
anchors = (
{
name = bottom;
position = "{242, 0}";
},
{
name = top;
position = "{339, 522}";
}
);
layerId = "4E0115BC-0505-415D-92F6-F9BAC1931694";
name = Regular;
paths = (
{
closed = 1;
nodes = (
"225 -10 CURVE SMOOTH",
"326 -10 OFFCURVE",
"420 45 OFFCURVE",
"466 121 CURVE",
"385 147 LINE",
"361 103 OFFCURVE",
"296 66 OFFCURVE",
"239 66 CURVE SMOOTH",
"164 66 OFFCURVE",
"113 133 OFFCURVE",
"113 221 CURVE SMOOTH",
"113 350 OFFCURVE",
"215 455 OFFCURVE",
"321 455 CURVE SMOOTH",
"375 455 OFFCURVE",
"416 426 OFFCURVE",
"431 377 CURVE",
"522 404 LINE",
"502 481 OFFCURVE",
"438 531 OFFCURVE",
"339 531 CURVE SMOOTH",
"163 531 OFFCURVE",
"22 378 OFFCURVE",
"22 210 CURVE SMOOTH",
"22 89 OFFCURVE",
"97 -10 OFFCURVE"
);
}
);
width = 531;
}
);
unicode = 0063;
},
{
glyphname = d;
layers = (
{
anchors = (
{
name = top;
position = "{556, 522}";
}
);
layerId = "4E0115BC-0505-415D-92F6-F9BAC1931694";
name = Regular;
paths = (
{
closed = 1;
nodes = (
"208 -10 CURVE SMOOTH",
"279 -10 OFFCURVE",
"359 31 OFFCURVE",
"411 98 CURVE",
"404 69 OFFCURVE",
"402 53 OFFCURVE",
"402 41 CURVE SMOOTH",
"402 15 OFFCURVE",
"422 -4 OFFCURVE",
"459 -4 CURVE SMOOTH",
"468 -4 OFFCURVE",
"479 -2 OFFCURVE",
"494 0 CURVE",
"510 76 LINE",
"495 77 OFFCURVE",
"488 82 OFFCURVE",
"488 95 CURVE SMOOTH",
"488 99 OFFCURVE",
"489 103 OFFCURVE",
"490 108 CURVE SMOOTH",
"622 730 LINE",
"534 730 LINE",
"467 418 LINE",
"445 481 OFFCURVE",
"391 531 OFFCURVE",
"311 531 CURVE SMOOTH",
"159 531 OFFCURVE",
"22 374 OFFCURVE",
"22 207 CURVE SMOOTH",
"22 89 OFFCURVE",
"91 -10 OFFCURVE"
);
},
{
closed = 1;
nodes = (
"246 66 CURVE SMOOTH",
"166 66 OFFCURVE",
"115 135 OFFCURVE",
"115 221 CURVE SMOOTH",
"115 334 OFFCURVE",
"210 455 OFFCURVE",
"321 455 CURVE SMOOTH",
"382 455 OFFCURVE",
"440 401 OFFCURVE",
"449 333 CURVE",
"418 183 LINE",
"391 118 OFFCURVE",
"304 66 OFFCURVE"
);
}
);
width = 606;
}
);
unicode = 0064;
},
{
glyphname = eth;
layers = (
{
layerId = "4E0115BC-0505-415D-92F6-F9BAC1931694";
name = Regular;
paths = (
{
closed = 1;
nodes = (
"549 372 CURVE SMOOTH",
"549 487 OFFCURVE",
"507 639 OFFCURVE",
"380 730 CURVE",
"258 730 LINE",
"401 634 OFFCURVE",
"449 535 OFFCURVE",
"461 432 CURVE SMOOTH",
"464 411 OFFCURVE",
"465 390 OFFCURVE",
"465 368 CURVE",
"444 431 OFFCURVE",
"384 473 OFFCURVE",
"306 473 CURVE SMOOTH",
"161 473 OFFCURVE",
"18 341 OFFCURVE",
"18 191 CURVE SMOOTH",
"18 78 OFFCURVE",
"100 -10 OFFCURVE",
"218 -10 CURVE SMOOTH",
"382 -10 OFFCURVE",
"549 138 OFFCURVE"
);
},
{
closed = 1;
nodes = (
"109 202 CURVE SMOOTH",
"109 309 OFFCURVE",
"208 401 OFFCURVE",
"312 401 CURVE SMOOTH",
"389 401 OFFCURVE",
"441 344 OFFCURVE",
"441 268 CURVE SMOOTH",
"441 164 OFFCURVE",
"342 66 OFFCURVE",
"237 66 CURVE SMOOTH",
"161 66 OFFCURVE",
"109 126 OFFCURVE"
);
},
{
closed = 1;
nodes = (
"544 713 LINE",
"426 647 LINE",
"398 639 LINE",
"273 569 LINE",
"292 532 LINE",
"420 604 LINE",
"450 614 LINE",
"563 676 LINE"
);
}
);
width = 583;
}
);
unicode = 00F0;
},
{
glyphname = dcroat;
layers = (
{
layerId = "4E0115BC-0505-415D-92F6-F9BAC1931694";
name = Regular;
paths = (
{
closed = 1;
nodes = (
"415 601 LINE",
"671 601 LINE",
"683 657 LINE",
"427 657 LINE"
);
},
{
closed = 1;
nodes = (
"208 -10 CURVE SMOOTH",
"279 -10 OFFCURVE",
"359 31 OFFCURVE",
"411 98 CURVE",
"404 68 OFFCURVE",
"402 51 OFFCURVE",
"402 41 CURVE SMOOTH",
"402 15 OFFCURVE",
"422 -4 OFFCURVE",
"459 -4 CURVE SMOOTH",
"468 -4 OFFCURVE",
"479 -2 OFFCURVE",
"494 0 CURVE",
"510 76 LINE",
"495 77 OFFCURVE",
"488 82 OFFCURVE",
"488 95 CURVE SMOOTH",
"488 99 OFFCURVE",
"489 103 OFFCURVE",
"490 108 CURVE SMOOTH",
"622 730 LINE",
"534 730 LINE",
"467 418 LINE",
"445 481 OFFCURVE",
"391 531 OFFCURVE",
"311 531 CURVE SMOOTH",
"159 531 OFFCURVE",
"22 374 OFFCURVE",
"22 207 CURVE SMOOTH",
"22 89 OFFCURVE",
"91 -10 OFFCURVE"
);
},
{
closed = 1;
nodes = (
"246 66 CURVE SMOOTH",
"166 66 OFFCURVE",
"115 135 OFFCURVE",
"115 221 CURVE SMOOTH",
"115 334 OFFCURVE",
"210 455 OFFCURVE",
"321 455 CURVE SMOOTH",
"382 455 OFFCURVE",
"440 401 OFFCURVE",
"449 333 CURVE",
"418 183 LINE",
"391 118 OFFCURVE",
"304 66 OFFCURVE"
);
}
);
width = 606;
}
);
unicode = 0111;
},
{
glyphname = e;
layers = (
{
anchors = (
{
name = bottom;
position = "{242, 0}";
},
{
name = top;
position = "{341, 522}";
}
);
layerId = "4E0115BC-0505-415D-92F6-F9BAC1931694";
name = Regular;
paths = (
{
closed = 1;
nodes = (
"228 -10 CURVE SMOOTH",
"326 -10 OFFCURVE",
"423 45 OFFCURVE",
"472 122 CURVE",
"401 143 LINE",
"368 90 OFFCURVE",
"303 56 OFFCURVE",
"242 56 CURVE SMOOTH",
"153 56 OFFCURVE",
"112 128 OFFCURVE",
"112 211 CURVE SMOOTH",
"112 317 OFFCURVE",
"180 465 OFFCURVE",
"333 465 CURVE SMOOTH",
"394 465 OFFCURVE",
"434 442 OFFCURVE",
"434 391 CURVE SMOOTH",
"434 333 OFFCURVE",
"382 290 OFFCURVE",
"231 290 CURVE SMOOTH",
"198 290 OFFCURVE",
"160 292 OFFCURVE",
"116 296 CURVE",
"92 236 LINE",
"144 231 OFFCURVE",
"191 229 OFFCURVE",
"228 229 CURVE SMOOTH",
"421 229 OFFCURVE",
"513 284 OFFCURVE",
"513 390 CURVE SMOOTH",
"513 483 OFFCURVE",
"443 531 OFFCURVE",
"341 531 CURVE SMOOTH",
"160 531 OFFCURVE",
"23 378 OFFCURVE",
"23 210 CURVE SMOOTH",
"23 87 OFFCURVE",
"97 -10 OFFCURVE"
);
}
);
width = 539;
}
);
unicode = 0065;
},
{
glyphname = f;
layers = (
{
layerId = "4E0115BC-0505-415D-92F6-F9BAC1931694";
name = Regular;
paths = (
{
closed = 1;
nodes = (
"-15 -212 LINE",
"73 -212 LINE",
"214 453 LINE",
"345 453 LINE",
"360 522 LINE",
"229 522 LINE",
"232 536 LINE SMOOTH",
"250 619 OFFCURVE",
"289 665 OFFCURVE",
"343 665 CURVE SMOOTH",
"367 665 OFFCURVE",
"394 656 OFFCURVE",
"409 643 CURVE",
"445 708 LINE",
"417 728 OFFCURVE",
"380 740 OFFCURVE",
"341 740 CURVE SMOOTH",
"247 740 OFFCURVE",
"168 662 OFFCURVE",
"143 533 CURVE SMOOTH",
"141 522 LINE",
"74 522 LINE",
"59 453 LINE",
"126 453 LINE"
);
}
);
width = 334;
}
);
unicode = 0066;
},
{
glyphname = g;
layers = (
{
anchors = (
{
name = top;
position = "{320, 522}";
}
);
layerId = "4E0115BC-0505-415D-92F6-F9BAC1931694";
name = Regular;
paths = (
{
closed = 1;
nodes = (
"164 -223 CURVE SMOOTH",
"306 -223 OFFCURVE",
"436 -142 OFFCURVE",
"467 6 CURVE SMOOTH",
"577 522 LINE",
"499 522 LINE",
"477 418 LINE",
"449 483 OFFCURVE",
"399 531 OFFCURVE",
"317 531 CURVE SMOOTH",
"159 531 OFFCURVE",
"22 374 OFFCURVE",
"22 207 CURVE SMOOTH",
"22 93 OFFCURVE",
"88 -6 OFFCURVE",
"201 -6 CURVE SMOOTH",
"271 -6 OFFCURVE",
"349 34 OFFCURVE",
"398 98 CURVE",
"379 6 LINE SMOOTH",
"356 -103 OFFCURVE",
"268 -155 OFFCURVE",
"178 -155 CURVE SMOOTH",
"107 -155 OFFCURVE",
"48 -124 OFFCURVE",
"22 -63 CURVE",
"-38 -108 LINE",
"-6 -179 OFFCURVE",
"52 -223 OFFCURVE"
);
},
{
closed = 1;
nodes = (
"244 66 CURVE SMOOTH",
"165 66 OFFCURVE",
"113 136 OFFCURVE",
"113 221 CURVE SMOOTH",
"113 329 OFFCURVE",
"205 455 OFFCURVE",
"319 455 CURVE SMOOTH",
"383 455 OFFCURVE",
"438 404 OFFCURVE",
"449 333 CURVE",
"417 183 LINE",
"391 124 OFFCURVE",
"313 66 OFFCURVE"
);
}
);
width = 599;
}
);
unicode = 0067;
},
{
glyphname = h;
layers = (
{
anchors = (
{
name = top;
position = "{306, 521}";
}
);
layerId = "4E0115BC-0505-415D-92F6-F9BAC1931694";
name = Regular;
paths = (
{
closed = 1;
nodes = (
"5 0 LINE",
"93 0 LINE",
"160 315 LINE",
"198 394 OFFCURVE",
"281 452 OFFCURVE",
"344 452 CURVE SMOOTH",
"394 452 OFFCURVE",
"421 421 OFFCURVE",
"421 360 CURVE SMOOTH",
"421 340 OFFCURVE",
"418 318 OFFCURVE",
"413 292 CURVE SMOOTH",
"351 0 LINE",
"439 0 LINE",
"505 312 LINE SMOOTH",
"512 344 OFFCURVE",
"515 374 OFFCURVE",
"515 401 CURVE SMOOTH",
"515 478 OFFCURVE",
"483 531 OFFCURVE",
"395 531 CURVE SMOOTH",
"316 531 OFFCURVE",
"235 485 OFFCURVE",
"180 410 CURVE",
"248 730 LINE",
"160 730 LINE"
);
}
);
width = 567;
}
);
unicode = 0068;
},
{
glyphname = hbar;
layers = (
{
layerId = "4E0115BC-0505-415D-92F6-F9BAC1931694";
name = Regular;
paths = (
{
closed = 1;
nodes = (
"63 601 LINE",
"319 601 LINE",
"331 657 LINE",
"75 657 LINE"
);
},
{
closed = 1;
nodes = (
"5 0 LINE",
"93 0 LINE",
"160 315 LINE",
"198 394 OFFCURVE",
"281 452 OFFCURVE",
"344 452 CURVE SMOOTH",
"394 452 OFFCURVE",
"421 421 OFFCURVE",
"421 360 CURVE SMOOTH",
"421 340 OFFCURVE",
"418 318 OFFCURVE",
"413 292 CURVE SMOOTH",
"351 0 LINE",
"439 0 LINE",
"505 312 LINE SMOOTH",
"512 344 OFFCURVE",
"515 374 OFFCURVE",
"515 401 CURVE SMOOTH",
"515 478 OFFCURVE",
"483 531 OFFCURVE",
"395 531 CURVE SMOOTH",
"316 531 OFFCURVE",
"235 485 OFFCURVE",
"180 410 CURVE",
"248 730 LINE",
"160 730 LINE"
);
}
);
width = 567;
}
);
unicode = 0127;
},
{
glyphname = i;
layers = (
{
layerId = "4E0115BC-0505-415D-92F6-F9BAC1931694";
name = Regular;
paths = (
{
closed = 1;
nodes = (
"5 0 LINE",
"93 0 LINE",
"204 522 LINE",
"116 522 LINE"
);
},
{
closed = 1;
nodes = (
"137 620 LINE",
"225 620 LINE",
"248 730 LINE",
"160 730 LINE"
);
}
);
width = 226;
}
);
unicode = 0069;
},
{
glyphname = dotlessi;
layers = (
{
anchors = (
{
name = top;
position = "{53, 522}";
}
);
layerId = "4E0115BC-0505-415D-92F6-F9BAC1931694";
name = Regular;
paths = (
{
closed = 1;
nodes = (
"5 0 LINE",
"93 0 LINE",
"204 522 LINE",
"116 522 LINE"
);
}
);
width = 226;
}
);
unicode = 0131;
},
{
glyphname = j;
layers = (
{
layerId = "4E0115BC-0505-415D-92F6-F9BAC1931694";
name = Regular;
paths = (
{
closed = 1;
nodes = (
"-97 -186 CURVE SMOOTH",
"-14 -186 OFFCURVE",
"74 -116 OFFCURVE",
"95 -17 CURVE SMOOTH",
"210 522 LINE",
"122 522 LINE",
"6 -23 LINE SMOOTH",
"-4 -72 OFFCURVE",
"-50 -108 OFFCURVE",
"-90 -108 CURVE SMOOTH",
"-113 -108 OFFCURVE",
"-136 -102 OFFCURVE",
"-150 -85 CURVE",
"-203 -144 LINE",
"-178 -173 OFFCURVE",
"-141 -186 OFFCURVE"
);
},
{
closed = 1;
nodes = (
"142 620 LINE",
"230 620 LINE",
"254 730 LINE",
"166 730 LINE"
);
}
);
width = 232;
}
);
unicode = 006A;
},
{
glyphname = dotlessj;
layers = (
{
anchors = (
{
name = top;
position = "{53, 522}";
}
);
layerId = "4E0115BC-0505-415D-92F6-F9BAC1931694";
name = Regular;
paths = (
{
closed = 1;
nodes = (
"-103 -186 CURVE SMOOTH",
"-20 -186 OFFCURVE",
"68 -116 OFFCURVE",
"89 -17 CURVE SMOOTH",
"204 522 LINE",
"116 522 LINE",
"0 -23 LINE SMOOTH",
"-10 -72 OFFCURVE",
"-56 -108 OFFCURVE",
"-96 -108 CURVE SMOOTH",
"-119 -108 OFFCURVE",
"-142 -102 OFFCURVE",
"-156 -85 CURVE",
"-209 -144 LINE",
"-184 -173 OFFCURVE",
"-147 -186 OFFCURVE"
);
}
);
width = 226;
}
);
unicode = 0237;
},
{
glyphname = k;
layers = (
{
anchors = (
{
name = bottom;
position = "{218, 0}";
}
);
layerId = "4E0115BC-0505-415D-92F6-F9BAC1931694";
name = Regular;
paths = (
{
closed = 1;
nodes = (
"365 0 LINE",
"460 0 LINE",
"345 219 LINE",
"455 265 OFFCURVE",
"513 341 OFFCURVE",
"513 426 CURVE SMOOTH",
"513 489 OFFCURVE",
"481 531 OFFCURVE",
"409 531 CURVE SMOOTH",
"307 531 OFFCURVE",
"224 454 OFFCURVE",
"160 365 CURVE",
"140 227 LINE",
"184 355 OFFCURVE",
"296 459 OFFCURVE",
"386 459 CURVE SMOOTH",
"414 459 OFFCURVE",
"433 448 OFFCURVE",
"433 414 CURVE SMOOTH",
"433 351 OFFCURVE",
"367 283 OFFCURVE",
"241 255 CURVE"
);
},
{
closed = 1;
nodes = (
"5 0 LINE",
"93 0 LINE",
"248 730 LINE",
"160 730 LINE"
);
}
);
width = 542;
}
);
unicode = 006B;
},
{
glyphname = kgreenlandic;
layers = (
{
layerId = "4E0115BC-0505-415D-92F6-F9BAC1931694";
name = Regular;
paths = (
{
closed = 1;
nodes = (
"5 0 LINE",
"93 0 LINE",
"127 161 LINE",
"240 255 LINE",
"354 0 LINE",
"449 0 LINE",
"307 305 LINE",
"549 521 LINE",
"453 521 LINE",
"146 250 LINE",
"204 522 LINE",
"116 522 LINE"
);
}
);
width = 518;
}
);
unicode = 0138;
},
{
glyphname = l;
layers = (
{
anchors = (
{
name = bottom;
position = "{117, 0}";
},
{
name = top;
position = "{196, 521}";
}
);
layerId = "4E0115BC-0505-415D-92F6-F9BAC1931694";
name = Regular;
paths = (
{
closed = 1;
nodes = (
"112 -7 CURVE SMOOTH",
"142 -7 OFFCURVE",
"188 2 OFFCURVE",
"218 14 CURVE",
"221 85 LINE",
"203 78 OFFCURVE",
"180 73 OFFCURVE",
"166 73 CURVE SMOOTH",
"137 73 OFFCURVE",
"121 89 OFFCURVE",
"121 116 CURVE SMOOTH",
"121 122 OFFCURVE",
"122 128 OFFCURVE",
"123 135 CURVE SMOOTH",
"249 730 LINE",
"162 730 LINE",
"29 103 LINE SMOOTH",
"27 92 OFFCURVE",
"25 81 OFFCURVE",
"25 71 CURVE SMOOTH",
"25 22 OFFCURVE",
"57 -7 OFFCURVE"
);
}
);
width = 280;
}
);
unicode = 006C;
},
{
glyphname = lslash;
layers = (
{
layerId = "4E0115BC-0505-415D-92F6-F9BAC1931694";
name = Regular;
paths = (
{
closed = 1;
nodes = (
"30 283 LINE",
"324 473 LINE",
"308 522 LINE",
"15 332 LINE"
);
},
{
closed = 1;
nodes = (
"131 -7 CURVE SMOOTH",
"161 -7 OFFCURVE",
"207 2 OFFCURVE",
"238 14 CURVE",
"241 85 LINE",
"223 78 OFFCURVE",
"199 73 OFFCURVE",
"185 73 CURVE SMOOTH",
"156 73 OFFCURVE",
"141 89 OFFCURVE",
"141 116 CURVE SMOOTH",
"141 126 OFFCURVE",
"143 138 OFFCURVE",
"147 155 CURVE SMOOTH",
"269 730 LINE",
"181 730 LINE",
"48 103 LINE SMOOTH",
"46 92 OFFCURVE",
"44 81 OFFCURVE",
"44 71 CURVE SMOOTH",
"44 22 OFFCURVE",
"76 -7 OFFCURVE"
);
}
);
width = 301;
}
);
unicode = 0142;
},
{
glyphname = m;
layers = (
{
layerId = "4E0115BC-0505-415D-92F6-F9BAC1931694";
name = Regular;
paths = (
{
closed = 1;
nodes = (
"5 0 LINE",
"93 0 LINE",
"160 315 LINE",
"200 397 OFFCURVE",
"270 452 OFFCURVE",
"336 452 CURVE SMOOTH",
"382 452 OFFCURVE",
"407 425 OFFCURVE",
"407 366 CURVE SMOOTH",
"407 345 OFFCURVE",
"404 321 OFFCURVE",
"398 292 CURVE SMOOTH",
"336 0 LINE",
"424 0 LINE",
"490 314 LINE",
"530 395 OFFCURVE",
"600 452 OFFCURVE",
"666 452 CURVE SMOOTH",
"713 452 OFFCURVE",
"738 424 OFFCURVE",
"738 365 CURVE SMOOTH",
"738 344 OFFCURVE",
"735 320 OFFCURVE",
"729 292 CURVE SMOOTH",
"667 0 LINE",
"755 0 LINE",
"822 312 LINE SMOOTH",
"829 345 OFFCURVE",
"833 376 OFFCURVE",
"833 404 CURVE SMOOTH",
"833 480 OFFCURVE",
"802 531 OFFCURVE",
"717 531 CURVE SMOOTH",
"638 531 OFFCURVE",
"564 487 OFFCURVE",
"503 404 CURVE",
"501 485 OFFCURVE",
"459 531 OFFCURVE",
"382 531 CURVE SMOOTH",
"305 531 OFFCURVE",
"225 484 OFFCURVE",
"172 410 CURVE",
"196 522 LINE",
"116 522 LINE"
);
}
);
width = 883;
}
);
unicode = 006D;
},
{
glyphname = n;
layers = (
{
anchors = (
{
name = bottom;
position = "{232, 0}";
},
{
name = top;
position = "{403, 522}";
}
);
layerId = "4E0115BC-0505-415D-92F6-F9BAC1931694";
name = Regular;
paths = (
{
closed = 1;
nodes = (
"5 0 LINE",
"93 0 LINE",
"160 315 LINE",
"199 394 OFFCURVE",
"284 452 OFFCURVE",
"351 452 CURVE SMOOTH",
"398 452 OFFCURVE",
"422 425 OFFCURVE",
"422 367 CURVE SMOOTH",
"422 346 OFFCURVE",
"419 321 OFFCURVE",
"413 292 CURVE SMOOTH",
"351 0 LINE",
"439 0 LINE",
"505 312 LINE SMOOTH",
"512 347 OFFCURVE",
"517 379 OFFCURVE",
"517 408 CURVE SMOOTH",
"517 482 OFFCURVE",
"487 531 OFFCURVE",
"403 531 CURVE SMOOTH",
"316 531 OFFCURVE",
"226 483 OFFCURVE",
"172 410 CURVE",
"196 522 LINE",
"116 522 LINE"
);
}
);
width = 567;
}
);
unicode = 006E;
},
{
glyphname = eng;
layers = (
{
layerId = "4E0115BC-0505-415D-92F6-F9BAC1931694";
name = Regular;
paths = (
{
closed = 1;
nodes = (
"243 -186 CURVE SMOOTH",
"325 -186 OFFCURVE",
"414 -116 OFFCURVE",
"435 -17 CURVE SMOOTH",
"505 312 LINE SMOOTH",
"512 347 OFFCURVE",
"517 379 OFFCURVE",
"517 408 CURVE SMOOTH",
"517 482 OFFCURVE",
"487 531 OFFCURVE",
"403 531 CURVE SMOOTH",
"316 531 OFFCURVE",
"226 483 OFFCURVE",
"172 410 CURVE",
"196 522 LINE",
"116 522 LINE",
"5 0 LINE",
"93 0 LINE",
"160 315 LINE",
"199 394 OFFCURVE",
"284 452 OFFCURVE",
"351 452 CURVE SMOOTH",
"398 452 OFFCURVE",
"422 425 OFFCURVE",
"422 367 CURVE SMOOTH",
"422 346 OFFCURVE",
"419 321 OFFCURVE",
"413 292 CURVE SMOOTH",
"346 -23 LINE SMOOTH",
"335 -72 OFFCURVE",
"289 -108 OFFCURVE",
"250 -108 CURVE SMOOTH",
"227 -108 OFFCURVE",
"204 -102 OFFCURVE",
"190 -85 CURVE",
"137 -144 LINE",
"162 -173 OFFCURVE",
"199 -186 OFFCURVE"
);
}
);
width = 567;
}
);
unicode = 014B;
},
{
glyphname = o;
layers = (
{
anchors = (
{
name = bottom;
position = "{239, 0}";
},
{
name = top;
position = "{337, 522}";
}
);
layerId = "4E0115BC-0505-415D-92F6-F9BAC1931694";
name = Regular;
paths = (
{
closed = 1;
nodes = (
"222 -10 CURVE SMOOTH",
"395 -10 OFFCURVE",
"539 146 OFFCURVE",
"539 312 CURVE SMOOTH",
"539 432 OFFCURVE",
"465 531 OFFCURVE",
"337 531 CURVE SMOOTH",
"166 531 OFFCURVE",
"22 375 OFFCURVE",
"22 208 CURVE SMOOTH",
"22 89 OFFCURVE",
"94 -10 OFFCURVE"
);
},
{
closed = 1;
nodes = (
"239 66 CURVE SMOOTH",
"163 66 OFFCURVE",
"113 131 OFFCURVE",
"113 219 CURVE SMOOTH",
"113 345 OFFCURVE",
"219 455 OFFCURVE",
"321 455 CURVE SMOOTH",
"397 455 OFFCURVE",
"447 388 OFFCURVE",
"447 301 CURVE SMOOTH",
"447 174 OFFCURVE",
"342 66 OFFCURVE"
);
}
);
width = 578;
}
);
unicode = 006F;
},
{
glyphname = oslash;
layers = (
{
layerId = "4E0115BC-0505-415D-92F6-F9BAC1931694";
name = Regular;
paths = (
{
closed = 1;
nodes = (
"223 -10 CURVE SMOOTH",
"396 -10 OFFCURVE",
"539 146 OFFCURVE",
"539 312 CURVE SMOOTH",
"539 432 OFFCURVE",
"465 531 OFFCURVE",
"338 531 CURVE SMOOTH",
"167 531 OFFCURVE",
"22 375 OFFCURVE",
"22 208 CURVE SMOOTH",
"22 89 OFFCURVE",
"95 -10 OFFCURVE"
);
},
{
closed = 1;
nodes = (
"239 66 CURVE SMOOTH",
"163 66 OFFCURVE",
"113 131 OFFCURVE",
"113 219 CURVE SMOOTH",
"113 345 OFFCURVE",
"219 455 OFFCURVE",
"321 455 CURVE SMOOTH",
"397 455 OFFCURVE",
"447 388 OFFCURVE",
"447 301 CURVE SMOOTH",
"447 174 OFFCURVE",
"342 66 OFFCURVE"
);
},
{
closed = 1;
nodes = (
"13 -2 LINE",
"67 -2 LINE",
"133 64 LINE",
"109 94 LINE"
);
},
{
closed = 1;
nodes = (
"139 71 LINE",
"452 432 LINE",
"424 455 LINE",
"116 98 LINE"
);
},
{
closed = 1;
nodes = (
"460 437 LINE",
"546 524 LINE",
"491 524 LINE",
"429 461 LINE"
);
}
);
width = 578;
}
);
unicode = 00F8;
},
{
glyphname = oe;
layers = (
{
layerId = "4E0115BC-0505-415D-92F6-F9BAC1931694";
name = Regular;
paths = (
{
closed = 1;
nodes = (
"222 -10 CURVE SMOOTH",
"310 -10 OFFCURVE",
"394 45 OFFCURVE",
"461 139 CURVE",
"489 48 OFFCURVE",
"555 -10 OFFCURVE",
"644 -10 CURVE SMOOTH",
"739 -10 OFFCURVE",
"838 43 OFFCURVE",
"890 122 CURVE",
"820 143 LINE",
"791 91 OFFCURVE",
"724 55 OFFCURVE",
"661 55 CURVE SMOOTH",
"581 55 OFFCURVE",
"527 117 OFFCURVE",
"527 201 CURVE SMOOTH",
"527 211 OFFCURVE",
"527 221 OFFCURVE",
"529 231 CURVE",
"937 231 LINE",
"941 239 OFFCURVE",
"950 263 OFFCURVE",
"950 311 CURVE SMOOTH",
"950 443 OFFCURVE",
"876 531 OFFCURVE",
"752 531 CURVE SMOOTH",
"657 531 OFFCURVE",
"572 476 OFFCURVE",
"511 379 CURVE",
"494 473 OFFCURVE",
"430 531 OFFCURVE",
"338 531 CURVE SMOOTH",
"174 531 OFFCURVE",
"22 384 OFFCURVE",
"22 207 CURVE SMOOTH",
"22 83 OFFCURVE",
"100 -10 OFFCURVE"
);
},
{
closed = 1;
nodes = (
"239 66 CURVE SMOOTH",
"163 66 OFFCURVE",
"113 131 OFFCURVE",
"113 217 CURVE SMOOTH",
"113 345 OFFCURVE",
"217 455 OFFCURVE",
"322 455 CURVE SMOOTH",
"398 455 OFFCURVE",
"447 388 OFFCURVE",
"447 301 CURVE SMOOTH",
"447 174 OFFCURVE",
"345 66 OFFCURVE"
);
},
{
closed = 1;
nodes = (
"539 288 LINE",
"566 391 OFFCURVE",
"649 465 OFFCURVE",
"736 465 CURVE SMOOTH",
"814 465 OFFCURVE",
"867 407 OFFCURVE",
"867 320 CURVE SMOOTH",
"867 310 OFFCURVE",
"866 299 OFFCURVE",
"865 288 CURVE"
);
}
);
width = 979;
}
);
unicode = 0153;
},
{
glyphname = p;
layers = (
{
layerId = "4E0115BC-0505-415D-92F6-F9BAC1931694";
name = Regular;
paths = (
{
closed = 1;
nodes = (
"-40 -213 LINE",
"48 -213 LINE",
"115 103 LINE",
"138 38 OFFCURVE",
"192 -10 OFFCURVE",
"273 -10 CURVE SMOOTH",
"427 -10 OFFCURVE",
"560 147 OFFCURVE",
"560 313 CURVE SMOOTH",
"560 430 OFFCURVE",
"491 531 OFFCURVE",
"376 531 CURVE SMOOTH",
"301 531 OFFCURVE",
"226 488 OFFCURVE",
"173 424 CURVE",
"194 522 LINE",
"116 522 LINE"
);
},
{
closed = 1;
nodes = (
"262 66 CURVE SMOOTH",
"196 66 OFFCURVE",
"146 120 OFFCURVE",
"133 189 CURVE",
"165 338 LINE",
"192 402 OFFCURVE",
"278 455 OFFCURVE",
"337 455 CURVE SMOOTH",
"417 455 OFFCURVE",
"468 385 OFFCURVE",
"468 299 CURVE SMOOTH",
"468 187 OFFCURVE",
"373 66 OFFCURVE"
);
}
);
width = 600;
}
);
unicode = 0070;
},
{
glyphname = thorn;
layers = (
{
layerId = "4E0115BC-0505-415D-92F6-F9BAC1931694";
name = Regular;
paths = (
{
closed = 1;
nodes = (
"-40 -213 LINE",
"50 -213 LINE",
"108 60 LINE",
"123 20 OFFCURVE",
"158 -18 OFFCURVE",
"238 -18 CURVE SMOOTH",
"416 -18 OFFCURVE",
"541 170 OFFCURVE",
"541 321 CURVE SMOOTH",
"541 429 OFFCURVE",
"478 534 OFFCURVE",
"356 534 CURVE SMOOTH",
"282 534 OFFCURVE",
"230 495 OFFCURVE",
"191 449 CURVE",
"246 710 LINE",
"156 710 LINE"
);
},
{
closed = 1;
nodes = (
"254 62 CURVE SMOOTH",
"184 62 OFFCURVE",
"130 109 OFFCURVE",
"130 158 CURVE SMOOTH",
"130 164 OFFCURVE",
"131 168 OFFCURVE",
"132 173 CURVE SMOOTH",
"168 344 LINE",
"209 403 OFFCURVE",
"267 454 OFFCURVE",
"332 454 CURVE SMOOTH",
"409 454 OFFCURVE",
"450 384 OFFCURVE",
"450 301 CURVE SMOOTH",
"450 180 OFFCURVE",
"364 62 OFFCURVE"
);
}
);
width = 578;
}
);
unicode = 00FE;
},
{
glyphname = q;
layers = (
{
layerId = "4E0115BC-0505-415D-92F6-F9BAC1931694";
name = Regular;
paths = (
{
closed = 1;
nodes = (
"194 -10 CURVE SMOOTH",
"269 -10 OFFCURVE",
"340 29 OFFCURVE",
"400 103 CURVE",
"348 -142 LINE SMOOTH",
"347 -147 OFFCURVE",
"346 -152 OFFCURVE",
"346 -157 CURVE SMOOTH",
"346 -190 OFFCURVE",
"371 -212 OFFCURVE",
"407 -212 CURVE SMOOTH",
"420 -212 OFFCURVE",
"436 -211 OFFCURVE",
"449 -209 CURVE",
"465 -133 LINE",
"450 -132 OFFCURVE",
"443 -127 OFFCURVE",
"443 -114 CURVE SMOOTH",
"443 -110 OFFCURVE",
"444 -106 OFFCURVE",
"445 -101 CURVE SMOOTH",
"577 522 LINE",
"499 522 LINE",
"478 423 LINE",
"455 486 OFFCURVE",
"398 531 OFFCURVE",
"321 531 CURVE SMOOTH",
"170 531 OFFCURVE",
"22 378 OFFCURVE",
"22 203 CURVE SMOOTH",
"22 87 OFFCURVE",
"84 -10 OFFCURVE"
);
},
{
closed = 1;
nodes = (
"240 66 CURVE SMOOTH",
"161 66 OFFCURVE",
"114 134 OFFCURVE",
"114 218 CURVE SMOOTH",
"114 335 OFFCURVE",
"215 455 OFFCURVE",
"325 455 CURVE SMOOTH",
"391 455 OFFCURVE",
"448 396 OFFCURVE",
"448 328 CURVE",
"416 178 LINE",
"371 116 OFFCURVE",
"309 66 OFFCURVE"
);
}
);
width = 599;
}
);
unicode = 0071;
},
{
glyphname = r;
layers = (
{
anchors = (
{
name = bottom;
position = "{50, 0}";
},
{
name = top;
position = "{255, 522}";
}
);
layerId = "4E0115BC-0505-415D-92F6-F9BAC1931694";
name = Regular;
paths = (
{
closed = 1;
nodes = (
"5 0 LINE",
"93 0 LINE",
"161 322 LINE",
"204 398 OFFCURVE",
"282 443 OFFCURVE",
"365 445 CURVE",
"381 521 LINE",
"375 522 OFFCURVE",
"367 523 OFFCURVE",
"355 523 CURVE SMOOTH",
"291 523 OFFCURVE",
"222 473 OFFCURVE",
"172 401 CURVE",
"198 522 LINE",
"116 522 LINE"
);
}
);
width = 354;
}
);
unicode = 0072;
},
{
glyphname = s;
layers = (
{
anchors = (
{
name = bottom;
position = "{192, 0}";
},
{
name = top;
position = "{289, 522}";
}
);
layerId = "4E0115BC-0505-415D-92F6-F9BAC1931694";
name = Regular;
paths = (
{
closed = 1;
nodes = (
"178 -10 CURVE SMOOTH",
"315 -10 OFFCURVE",
"413 66 OFFCURVE",
"413 174 CURVE SMOOTH",
"413 243 OFFCURVE",
"356 270 OFFCURVE",
"246 299 CURVE SMOOTH",
"177 317 OFFCURVE",
"147 330 OFFCURVE",
"147 367 CURVE SMOOTH",
"147 435 OFFCURVE",
"205 467 OFFCURVE",
"273 467 CURVE SMOOTH",
"326 467 OFFCURVE",
"376 448 OFFCURVE",
"410 409 CURVE",
"461 462 LINE",
"424 503 OFFCURVE",
"363 531 OFFCURVE",
"289 531 CURVE SMOOTH",
"168 531 OFFCURVE",
"60 461 OFFCURVE",
"60 344 CURVE SMOOTH",
"60 282 OFFCURVE",
"107 259 OFFCURVE",
"205 232 CURVE SMOOTH",
"284 211 OFFCURVE",
"324 196 OFFCURVE",
"324 154 CURVE SMOOTH",
"324 94 OFFCURVE",
"269 55 OFFCURVE",
"190 55 CURVE SMOOTH",
"127 55 OFFCURVE",
"74 79 OFFCURVE",
"26 125 CURVE",
"-24 66 LINE",
"21 17 OFFCURVE",
"99 -10 OFFCURVE"
);
}
);
width = 475;
}
);
unicode = 0073;
},
{
glyphname = germandbls;
layers = (
{
layerId = "4E0115BC-0505-415D-92F6-F9BAC1931694";
name = Regular;
paths = (
{
closed = 1;
nodes = (
"167 -6 LINE",
"341 0 OFFCURVE",
"481 87 OFFCURVE",
"481 249 CURVE SMOOTH",
"481 323 OFFCURVE",
"445 386 OFFCURVE",
"375 402 CURVE",
"439 420 OFFCURVE",
"505 500 OFFCURVE",
"505 581 CURVE SMOOTH",
"505 661 OFFCURVE",
"444 714 OFFCURVE",
"355 714 CURVE SMOOTH",
"240 714 OFFCURVE",
"140 633 OFFCURVE",
"115 517 CURVE SMOOTH",
"5 0 LINE",
"89 0 LINE",
"196 503 LINE SMOOTH",
"211 574 OFFCURVE",
"258 638 OFFCURVE",
"335 638 CURVE SMOOTH",
"380 638 OFFCURVE",
"417 613 OFFCURVE",
"417 561 CURVE SMOOTH",
"417 490 OFFCURVE",
"362 437 OFFCURVE",
"293 437 CURVE SMOOTH",
"275 437 LINE",
"258 357 LINE",
"277 357 LINE SMOOTH",
"347 357 OFFCURVE",
"390 313 OFFCURVE",
"390 245 CURVE SMOOTH",
"390 129 OFFCURVE",
"302 77 OFFCURVE",
"184 75 CURVE"
);
}
);
width = 532;
}
);
unicode = 00DF;
},
{
glyphname = schwa;
layers = (
{
layerId = "4E0115BC-0505-415D-92F6-F9BAC1931694";
name = Regular;
paths = (
{
closed = 1;
nodes = (
"213 -10 CURVE SMOOTH",
"386 -10 OFFCURVE",
"528 143 OFFCURVE",
"528 311 CURVE SMOOTH",
"528 433 OFFCURVE",
"453 531 OFFCURVE",
"326 531 CURVE SMOOTH",
"224 531 OFFCURVE",
"128 475 OFFCURVE",
"79 399 CURVE",
"150 378 LINE",
"182 429 OFFCURVE",
"248 464 OFFCURVE",
"308 464 CURVE SMOOTH",
"383 464 OFFCURVE",
"436 407 OFFCURVE",
"436 322 CURVE SMOOTH",
"436 312 OFFCURVE",
"435 301 OFFCURVE",
"434 290 CURVE",
"26 290 LINE",
"14 262 OFFCURVE",
"10 226 OFFCURVE",
"10 197 CURVE SMOOTH",
"10 80 OFFCURVE",
"84 -10 OFFCURVE"
);
},
{
closed = 1;
nodes = (
"228 56 CURVE SMOOTH",
"150 56 OFFCURVE",
"95 114 OFFCURVE",
"95 200 CURVE SMOOTH",
"95 211 OFFCURVE",
"95 221 OFFCURVE",
"97 232 CURVE",
"424 232 LINE",
"396 130 OFFCURVE",
"314 56 OFFCURVE"
);
}
);
width = 567;
}
);
unicode = 0259;
},
{
glyphname = t;
layers = (
{
anchors = (
{
name = bottom;
position = "{152, 0}";
},
{
name = top;
position = "{225, 522}";
}
);
layerId = "4E0115BC-0505-415D-92F6-F9BAC1931694";
name = Regular;
paths = (
{
closed = 1;
nodes = (
"142 -7 CURVE SMOOTH",
"195 -7 OFFCURVE",
"247 9 OFFCURVE",
"271 26 CURVE",
"266 96 LINE",
"254 90 OFFCURVE",
"221 74 OFFCURVE",
"188 74 CURVE SMOOTH",
"163 74 OFFCURVE",
"143 86 OFFCURVE",
"143 114 CURVE SMOOTH",
"143 119 OFFCURVE",
"144 124 OFFCURVE",
"145 129 CURVE SMOOTH",
"214 453 LINE",
"324 453 LINE",
"339 522 LINE",
"228 522 LINE",
"265 696 LINE",
"177 696 LINE",
"140 522 LINE",
"73 522 LINE",
"58 453 LINE",
"126 453 LINE",
"51 102 LINE SMOOTH",
"49 92 OFFCURVE",
"48 82 OFFCURVE",
"48 73 CURVE SMOOTH",
"48 18 OFFCURVE",
"88 -7 OFFCURVE"
);
}
);
width = 338;
}
);
unicode = 0074;
},
{
glyphname = tbar;
layers = (
{
layerId = "4E0115BC-0505-415D-92F6-F9BAC1931694";
name = Regular;
paths = (
{
closed = 1;
nodes = (
"25 294 LINE",
"291 294 LINE",
"303 350 LINE",
"37 350 LINE"
);
},
{
closed = 1;
nodes = (
"142 -7 CURVE SMOOTH",
"195 -7 OFFCURVE",
"247 9 OFFCURVE",
"272 26 CURVE",
"266 96 LINE",
"255 90 OFFCURVE",
"221 74 OFFCURVE",
"189 74 CURVE SMOOTH",
"163 74 OFFCURVE",
"144 87 OFFCURVE",
"144 117 CURVE SMOOTH",
"144 123 OFFCURVE",
"145 131 OFFCURVE",
"148 145 CURVE SMOOTH",
"214 453 LINE",
"325 453 LINE",
"339 522 LINE",
"229 522 LINE",
"266 696 LINE",
"178 696 LINE",
"141 522 LINE",
"73 522 LINE",
"59 453 LINE",
"126 453 LINE",
"51 102 LINE SMOOTH",
"49 92 OFFCURVE",
"48 82 OFFCURVE",
"48 73 CURVE SMOOTH",
"48 18 OFFCURVE",
"88 -7 OFFCURVE"
);
}
);
width = 338;
}
);
unicode = 0167;
},
{
glyphname = u;
layers = (
{
anchors = (
{
name = bottom;
position = "{448, 7}";
},
{
name = top;
position = "{328, 522}";
}
);
layerId = "4E0115BC-0505-415D-92F6-F9BAC1931694";
name = Regular;
paths = (
{
closed = 1;
nodes = (
"155 -10 CURVE SMOOTH",
"240 -10 OFFCURVE",
"326 34 OFFCURVE",
"386 112 CURVE",
"377 69 OFFCURVE",
"375 52 OFFCURVE",
"375 40 CURVE SMOOTH",
"375 13 OFFCURVE",
"394 -4 OFFCURVE",
"430 -4 CURVE SMOOTH",
"439 -4 OFFCURVE",
"450 -2 OFFCURVE",
"465 0 CURVE",
"481 76 LINE",
"466 77 OFFCURVE",
"459 82 OFFCURVE",
"459 95 CURVE SMOOTH",
"459 99 OFFCURVE",
"460 103 OFFCURVE",
"461 108 CURVE SMOOTH",
"549 522 LINE",
"461 522 LINE",
"392 195 LINE",
"345 115 OFFCURVE",
"271 66 OFFCURVE",
"204 66 CURVE SMOOTH",
"153 66 OFFCURVE",
"126 96 OFFCURVE",
"126 157 CURVE SMOOTH",
"126 176 OFFCURVE",
"129 199 OFFCURVE",
"135 226 CURVE SMOOTH",
"198 522 LINE",
"111 522 LINE",
"44 209 LINE SMOOTH",
"37 176 OFFCURVE",
"33 147 OFFCURVE",
"33 122 CURVE SMOOTH",
"33 35 OFFCURVE",
"74 -10 OFFCURVE"
);
}
);
width = 577;
}
);
unicode = 0075;
},
{
glyphname = v;
layers = (
{
layerId = "4E0115BC-0505-415D-92F6-F9BAC1931694";
name = Regular;
paths = (
{
closed = 1;
nodes = (
"139 0 LINE",
"234 0 LINE",
"369 174 OFFCURVE",
"469 348 OFFCURVE",
"517 522 CURVE",
"433 522 LINE",
"395 374 OFFCURVE",
"313 225 OFFCURVE",
"206 77 CURVE",
"147 522 LINE",
"56 522 LINE"
);
}
);
width = 508;
}
);
unicode = 0076;
},
{
glyphname = w;
layers = (
{
anchors = (
{
name = top;
position = "{423, 522}";
}
);
layerId = "4E0115BC-0505-415D-92F6-F9BAC1931694";
name = Regular;
paths = (
{
closed = 1;
nodes = (
"156 0 LINE",
"251 0 LINE",
"291 49 OFFCURVE",
"328 98 OFFCURVE",
"362 147 CURVE",
"399 0 LINE",
"494 0 LINE",
"629 174 OFFCURVE",
"729 348 OFFCURVE",
"777 522 CURVE",
"693 522 LINE",
"655 374 OFFCURVE",
"573 225 OFFCURVE",
"466 77 CURVE",
"425 245 LINE",
"480 337 OFFCURVE",
"522 430 OFFCURVE",
"548 522 CURVE",
"464 522 LINE",
"449 466 OFFCURVE",
"427 409 OFFCURVE",
"399 353 CURVE",
"359 522 LINE",
"268 522 LINE",
"338 242 LINE",
"304 187 OFFCURVE",
"265 132 OFFCURVE",
"223 77 CURVE",
"140 522 LINE",
"49 522 LINE"
);
}
);
width = 768;
}
);
unicode = 0077;
},
{
glyphname = x;
layers = (
{
layerId = "4E0115BC-0505-415D-92F6-F9BAC1931694";
name = Regular;
paths = (
{
closed = 1;
nodes = (
"-52 0 LINE",
"41 0 LINE",
"214 191 LINE",
"225 206 LINE",
"231 191 LINE",
"323 0 LINE",
"416 0 LINE",
"286 260 LINE",
"526 522 LINE",
"433 522 LINE",
"260 330 LINE",
"248 314 LINE",
"244 330 LINE",
"152 522 LINE",
"60 522 LINE",
"189 260 LINE"
);
}
);
width = 492;
}
);
unicode = 0078;
},
{
glyphname = y;
layers = (
{
anchors = (
{
name = top;
position = "{294, 522}";
}
);
layerId = "4E0115BC-0505-415D-92F6-F9BAC1931694";
name = Regular;
paths = (
{
closed = 1;
nodes = (
"-23 -224 LINE",
"76 -222 OFFCURVE",
"139 -172 OFFCURVE",
"230 -26 CURVE SMOOTH",
"310 103 LINE SMOOTH",
"442 316 OFFCURVE",
"480 393 OFFCURVE",
"516 522 CURVE",
"429 522 LINE",
"398 401 OFFCURVE",
"359 318 OFFCURVE",
"248 135 CURVE SMOOTH",
"214 79 LINE",
"142 522 LINE",
"51 522 LINE",
"152 -11 LINE",
"123 -55 LINE SMOOTH",
"77 -124 OFFCURVE",
"49 -141 OFFCURVE",
"-35 -153 CURVE"
);
}
);
width = 501;
}
);
unicode = 0079;
},
{
glyphname = z;
layers = (
{
anchors = (
{
name = top;
position = "{285, 522}";
}
);
layerId = "4E0115BC-0505-415D-92F6-F9BAC1931694";
name = Regular;
paths = (
{
closed = 1;
nodes = (
"-35 0 LINE",
"373 0 LINE",
"387 64 LINE",
"79 64 LINE",
"471 465 LINE",
"483 522 LINE",
"85 522 LINE",
"71 458 LINE",
"371 458 LINE",
"-23 57 LINE"
);
}
);
width = 470;
}
);
unicode = 007A;
},
{
glyphname = a.alt;
layers = (
{
layerId = "4E0115BC-0505-415D-92F6-F9BAC1931694";
name = Regular;
paths = (
{
closed = 1;
nodes = (
"207 -10 CURVE SMOOTH",
"284 -10 OFFCURVE",
"353 33 OFFCURVE",
"402 99 CURVE",
"381 0 LINE",
"469 0 LINE",
"579 517 LINE",
"491 517 LINE",
"469 417 LINE",
"449 484 OFFCURVE",
"393 531 OFFCURVE",
"314 531 CURVE SMOOTH",
"166 531 OFFCURVE",
"22 378 OFFCURVE",
"22 206 CURVE SMOOTH",
"22 88 OFFCURVE",
"90 -10 OFFCURVE"
);
},
{
closed = 1;
nodes = (
"244 66 CURVE SMOOTH",
"163 66 OFFCURVE",
"115 135 OFFCURVE",
"115 220 CURVE SMOOTH",
"115 331 OFFCURVE",
"213 455 OFFCURVE",
"323 455 CURVE SMOOTH",
"391 455 OFFCURVE",
"440 402 OFFCURVE",
"451 330 CURVE",
"419 182 LINE",
"378 116 OFFCURVE",
"314 66 OFFCURVE"
);
}
);
width = 602;
}
);
},
{
glyphname = d.alt;
layers = (
{
layerId = "4E0115BC-0505-415D-92F6-F9BAC1931694";
name = Regular;
paths = (
{
closed = 1;
nodes = (
"208 -10 CURVE SMOOTH",
"279 -10 OFFCURVE",
"349 30 OFFCURVE",
"398 92 CURVE",
"379 0 LINE",
"467 0 LINE",
"622 730 LINE",
"534 730 LINE",
"467 418 LINE",
"442 481 OFFCURVE",
"391 531 OFFCURVE",
"310 531 CURVE SMOOTH",
"160 531 OFFCURVE",
"22 375 OFFCURVE",
"22 207 CURVE SMOOTH",
"22 89 OFFCURVE",
"91 -10 OFFCURVE"
);
},
{
closed = 1;
nodes = (
"245 66 CURVE SMOOTH",
"166 66 OFFCURVE",
"115 135 OFFCURVE",
"115 221 CURVE SMOOTH",
"115 333 OFFCURVE",
"210 455 OFFCURVE",
"320 455 CURVE SMOOTH",
"382 455 OFFCURVE",
"442 402 OFFCURVE",
"449 333 CURVE",
"418 183 LINE",
"393 118 OFFCURVE",
"305 66 OFFCURVE"
);
}
);
width = 600;
}
);
},
{
glyphname = j.alt;
layers = (
{
layerId = "4E0115BC-0505-415D-92F6-F9BAC1931694";
name = Regular;
paths = (
{
closed = 1;
nodes = (
"-40 -213 LINE",
"48 -213 LINE",
"203 517 LINE",
"115 517 LINE"
);
},
{
closed = 1;
nodes = (
"137 620 LINE",
"225 620 LINE",
"247 722 LINE",
"159 722 LINE"
);
}
);
width = 226;
}
);
},
{
glyphname = l.alt;
layers = (
{
layerId = "4E0115BC-0505-415D-92F6-F9BAC1931694";
name = Regular;
paths = (
{
closed = 1;
nodes = (
"10 0 LINE",
"41 0 OFFCURVE",
"98 0 OFFCURVE",
"98 0 CURVE",
"253 730 LINE",
"165 730 LINE"
);
}
);
width = 236;
}
);
},
{
glyphname = q.alt;
layers = (
{
layerId = "4E0115BC-0505-415D-92F6-F9BAC1931694";
name = Regular;
paths = (
{
closed = 1;
nodes = (
"333 -213 LINE",
"421 -213 LINE",
"577 522 LINE",
"499 522 LINE",
"478 423 LINE",
"455 486 OFFCURVE",
"398 531 OFFCURVE",
"321 531 CURVE SMOOTH",
"170 531 OFFCURVE",
"22 378 OFFCURVE",
"22 203 CURVE SMOOTH",
"22 87 OFFCURVE",
"84 -10 OFFCURVE",
"194 -10 CURVE SMOOTH",
"269 -10 OFFCURVE",
"340 29 OFFCURVE",
"400 103 CURVE"
);
},
{
closed = 1;
nodes = (
"240 66 CURVE SMOOTH",
"161 66 OFFCURVE",
"114 134 OFFCURVE",
"114 218 CURVE SMOOTH",
"114 335 OFFCURVE",
"215 455 OFFCURVE",
"325 455 CURVE SMOOTH",
"391 455 OFFCURVE",
"448 396 OFFCURVE",
"448 328 CURVE",
"416 178 LINE",
"371 116 OFFCURVE",
"309 66 OFFCURVE"
);
}
);
width = 599;
}
);
},
{
glyphname = t.alt;
layers = (
{
layerId = "4E0115BC-0505-415D-92F6-F9BAC1931694";
name = Regular;
paths = (
{
closed = 1;
nodes = (
"36 0 LINE",
"126 0 LINE",
"220 442 LINE",
"337 442 LINE",
"354 522 LINE",
"237 522 LINE",
"274 696 LINE",
"184 696 LINE",
"147 522 LINE",
"74 522 LINE",
"57 442 LINE",
"130 442 LINE"
);
}
);
width = 330;
}
);
},
{
glyphname = u.alt;
layers = (
{
layerId = "4E0115BC-0505-415D-92F6-F9BAC1931694";
name = Regular;
paths = (
{
closed = 1;
nodes = (
"161 -10 CURVE SMOOTH",
"238 -10 OFFCURVE",
"323 33 OFFCURVE",
"376 107 CURVE",
"353 0 LINE",
"438 0 LINE",
"549 522 LINE",
"461 522 LINE",
"392 195 LINE",
"350 122 OFFCURVE",
"276 66 OFFCURVE",
"208 66 CURVE SMOOTH",
"147 66 OFFCURVE",
"126 102 OFFCURVE",
"126 156 CURVE SMOOTH",
"126 177 OFFCURVE",
"130 201 OFFCURVE",
"135 226 CURVE SMOOTH",
"198 522 LINE",
"111 522 LINE",
"44 209 LINE SMOOTH",
"37 178 OFFCURVE",
"33 149 OFFCURVE",
"33 122 CURVE SMOOTH",
"33 44 OFFCURVE",
"66 -10 OFFCURVE"
);
}
);
width = 571;
}
);
},
{
glyphname = w.alt;
layers = (
{
layerId = "4E0115BC-0505-415D-92F6-F9BAC1931694";
name = Regular;
paths = (
{
closed = 1;
nodes = (
"125 0 LINE",
"218 0 LINE",
"418 387 LINE",
"453 0 LINE",
"547 0 LINE",
"831 522 LINE",
"740 522 LINE",
"520 108 LINE",
"489 522 LINE",
"405 522 LINE",
"198 108 LINE",
"154 522 LINE",
"62 522 LINE"
);
}
);
width = 805;
}
);
},
{
glyphname = y.alt;
layers = (
{
layerId = "4E0115BC-0505-415D-92F6-F9BAC1931694";
name = Regular;
paths = (
{
closed = 1;
nodes = (
"27 -213 CURVE",
"127 -213 LINE",
"548 522 LINE",
"464 522 LINE",
"219 79 LINE",
"148 522 LINE",
"56 522 LINE",
"154 0 LINE",
"87 -108 OFFCURVE",
"31 -209 OFFCURVE"
);
}
);
width = 517;
}
);
},
{
glyphname = a.alt2;
layers = (
{
layerId = "4E0115BC-0505-415D-92F6-F9BAC1931694";
name = Regular;
paths = (
{
closed = 1;
nodes = (
"130 -10 CURVE SMOOTH",
"202 -10 OFFCURVE",
"276 18 OFFCURVE",
"331 79 CURVE",
"315 0 LINE",
"400 0 LINE",
"468 321 LINE SMOOTH",
"472 341 OFFCURVE",
"474 361 OFFCURVE",
"474 379 CURVE SMOOTH",
"474 472 OFFCURVE",
"417 531 OFFCURVE",
"303 531 CURVE SMOOTH",
"232 531 OFFCURVE",
"161 503 OFFCURVE",
"95 463 CURVE",
"111 406 LINE",
"174 446 OFFCURVE",
"230 467 OFFCURVE",
"282 467 CURVE SMOOTH",
"349 467 OFFCURVE",
"386 429 OFFCURVE",
"386 369 CURVE SMOOTH",
"386 357 OFFCURVE",
"385 344 OFFCURVE",
"382 330 CURVE SMOOTH",
"373 288 LINE",
"350 300 OFFCURVE",
"304 314 OFFCURVE",
"241 314 CURVE SMOOTH",
"125 314 OFFCURVE",
"-6 253 OFFCURVE",
"-6 124 CURVE SMOOTH",
"-6 48 OFFCURVE",
"48 -10 OFFCURVE"
);
},
{
closed = 1;
nodes = (
"167 56 CURVE SMOOTH",
"118 56 OFFCURVE",
"81 90 OFFCURVE",
"81 141 CURVE SMOOTH",
"81 227 OFFCURVE",
"171 261 OFFCURVE",
"243 261 CURVE SMOOTH",
"283 261 OFFCURVE",
"325 253 OFFCURVE",
"361 236 CURVE",
"345 159 LINE SMOOTH",
"342 147 OFFCURVE",
"332 134 OFFCURVE",
"319 120 CURVE SMOOTH",
"280 77 OFFCURVE",
"217 56 OFFCURVE"
);
}
);
width = 527;
}
);
},
{
glyphname = c_t;
layers = (
{
layerId = "4E0115BC-0505-415D-92F6-F9BAC1931694";
name = Regular;
paths = (
{
closed = 1;
nodes = (
"224 -10 CURVE SMOOTH",
"317 -10 OFFCURVE",
"417 39 OFFCURVE",
"466 121 CURVE",
"386 147 LINE",
"359 97 OFFCURVE",
"288 66 OFFCURVE",
"240 66 CURVE SMOOTH",
"163 66 OFFCURVE",
"113 135 OFFCURVE",
"113 221 CURVE SMOOTH",
"113 333 OFFCURVE",
"205 455 OFFCURVE",
"318 455 CURVE SMOOTH",
"373 455 OFFCURVE",
"414 430 OFFCURVE",
"431 377 CURVE",
"522 404 LINE",
"516 433 OFFCURVE",
"493 508 OFFCURVE",
"493 567 CURVE SMOOTH",
"493 635 OFFCURVE",
"530 700 OFFCURVE",
"608 700 CURVE SMOOTH",
"664 700 OFFCURVE",
"682 673 OFFCURVE",
"682 629 CURVE SMOOTH",
"682 600 OFFCURVE",
"674 563 OFFCURVE",
"665 522 CURVE",
"598 522 LINE",
"583 453 LINE",
"651 453 LINE",
"576 102 LINE SMOOTH",
"574 92 OFFCURVE",
"573 82 OFFCURVE",
"573 73 CURVE SMOOTH",
"573 18 OFFCURVE",
"613 -7 OFFCURVE",
"666 -7 CURVE SMOOTH",
"720 -7 OFFCURVE",
"772 16 OFFCURVE",
"795 26 CURVE",
"791 96 LINE",
"779 91 OFFCURVE",
"746 74 OFFCURVE",
"713 74 CURVE SMOOTH",
"688 74 OFFCURVE",
"669 87 OFFCURVE",
"669 115 CURVE SMOOTH",
"669 119 OFFCURVE",
"669 124 OFFCURVE",
"670 129 CURVE SMOOTH",
"738 453 LINE",
"848 453 LINE",
"863 522 LINE",
"753 522 LINE",
"763 566 OFFCURVE",
"771 607 OFFCURVE",
"771 641 CURVE SMOOTH",
"771 703 OFFCURVE",
"743 744 OFFCURVE",
"641 744 CURVE SMOOTH",
"522 744 OFFCURVE",
"452 669 OFFCURVE",
"452 574 CURVE SMOOTH",
"452 543 OFFCURVE",
"460 511 OFFCURVE",
"467 488 CURVE",
"435 515 OFFCURVE",
"399 531 OFFCURVE",
"337 531 CURVE SMOOTH",
"156 531 OFFCURVE",
"22 368 OFFCURVE",
"22 210 CURVE SMOOTH",
"22 94 OFFCURVE",
"93 -10 OFFCURVE"
);
}
);
width = 862;
}
);
},
{
glyphname = f_f;
layers = (
{
layerId = "4E0115BC-0505-415D-92F6-F9BAC1931694";
name = Regular;
paths = (
{
closed = 1;
nodes = (
"30 0 LINE",
"118 0 LINE",
"214 453 LINE",
"356 453 LINE",
"260 0 LINE",
"348 0 LINE",
"444 453 LINE",
"592 453 LINE",
"606 522 LINE",
"459 522 LINE",
"462 536 LINE SMOOTH",
"475 598 OFFCURVE",
"517 664 OFFCURVE",
"586 664 CURVE SMOOTH",
"621 664 OFFCURVE",
"637 653 OFFCURVE",
"650 643 CURVE",
"685 708 LINE",
"666 717 OFFCURVE",
"641 740 OFFCURVE",
"585 740 CURVE SMOOTH",
"526 740 OFFCURVE",
"480 714 OFFCURVE",
"444 675 CURVE",
"417 689 OFFCURVE",
"382 702 OFFCURVE",
"336 702 CURVE SMOOTH",
"234 702 OFFCURVE",
"165 618 OFFCURVE",
"142 526 CURVE SMOOTH",
"141 522 LINE",
"74 522 LINE",
"59 453 LINE",
"126 453 LINE"
);
},
{
closed = 1;
nodes = (
"229 522 LINE",
"230 527 LINE SMOOTH",
"241 580 OFFCURVE",
"274 626 OFFCURVE",
"336 626 CURVE SMOOTH",
"358 626 OFFCURVE",
"387 622 OFFCURVE",
"404 608 CURVE",
"389 587 OFFCURVE",
"376 547 OFFCURVE",
"371 522 CURVE"
);
}
);
width = 580;
}
);
unicode = FB00;
},
{
glyphname = f_f_i;
layers = (
{
layerId = "4E0115BC-0505-415D-92F6-F9BAC1931694";
name = Regular;
paths = (
{
closed = 1;
nodes = (
"30 0 LINE",
"118 0 LINE",
"214 453 LINE",
"356 453 LINE",
"260 0 LINE",
"348 0 LINE",
"444 453 LINE",
"611 453 LINE",
"515 0 LINE",
"603 0 LINE",
"714 522 LINE",
"459 522 LINE",
"462 536 LINE SMOOTH",
"475 598 OFFCURVE",
"519 664 OFFCURVE",
"594 664 CURVE SMOOTH",
"638 664 OFFCURVE",
"679 645 OFFCURVE",
"699 623 CURVE",
"750 688 LINE",
"719 711 OFFCURVE",
"668 740 OFFCURVE",
"602 740 CURVE SMOOTH",
"537 740 OFFCURVE",
"483 714 OFFCURVE",
"444 675 CURVE",
"417 689 OFFCURVE",
"382 702 OFFCURVE",
"336 702 CURVE SMOOTH",
"234 702 OFFCURVE",
"162 610 OFFCURVE",
"142 526 CURVE SMOOTH",
"141 522 LINE",
"74 522 LINE",
"59 453 LINE",
"126 453 LINE"
);
},
{
closed = 1;
nodes = (
"229 522 LINE",
"230 527 LINE SMOOTH",
"240 576 OFFCURVE",
"274 626 OFFCURVE",
"336 626 CURVE SMOOTH",
"358 626 OFFCURVE",
"387 622 OFFCURVE",
"404 608 CURVE",
"389 587 OFFCURVE",
"376 547 OFFCURVE",
"371 522 CURVE"
);
}
);
width = 736;
}
);
unicode = FB03;
},
{
glyphname = f_f_l;
layers = (
{
layerId = "4E0115BC-0505-415D-92F6-F9BAC1931694";
name = Regular;
paths = (
{
closed = 1;
nodes = (
"650 -7 CURVE SMOOTH",
"698 -7 OFFCURVE",
"753 10 OFFCURVE",
"754 12 CURVE",
"759 84 LINE",
"757 84 OFFCURVE",
"720 72 OFFCURVE",
"697 72 CURVE SMOOTH",
"669 72 OFFCURVE",
"658 94 OFFCURVE",
"658 116 CURVE SMOOTH",
"658 122 OFFCURVE",
"659 128 OFFCURVE",
"660 133 CURVE SMOOTH",
"753 572 LINE SMOOTH",
"756 587 OFFCURVE",
"758 602 OFFCURVE",
"758 615 CURVE SMOOTH",
"758 690 OFFCURVE",
"709 740 OFFCURVE",
"605 740 CURVE SMOOTH",
"539 740 OFFCURVE",
"484 717 OFFCURVE",
"444 675 CURVE",
"417 689 OFFCURVE",
"387 702 OFFCURVE",
"341 702 CURVE SMOOTH",
"241 702 OFFCURVE",
"164 616 OFFCURVE",
"142 526 CURVE SMOOTH",
"141 522 LINE",
"74 522 LINE",
"59 453 LINE",
"126 453 LINE",
"30 0 LINE",
"118 0 LINE",
"214 453 LINE",
"359 453 LINE",
"263 0 LINE",
"351 0 LINE",
"447 453 LINE",
"543 453 LINE",
"557 522 LINE",
"462 522 LINE",
"463 526 LINE SMOOTH",
"481 601 OFFCURVE",
"519 664 OFFCURVE",
"590 664 CURVE SMOOTH",
"647 664 OFFCURVE",
"665 628 OFFCURVE",
"665 587 CURVE SMOOTH",
"665 576 OFFCURVE",
"663 564 OFFCURVE",
"661 553 CURVE SMOOTH",
"568 119 LINE SMOOTH",
"563 97 OFFCURVE",
"561 86 OFFCURVE",
"561 72 CURVE SMOOTH",
"561 27 OFFCURVE",
"591 -7 OFFCURVE"
);
},
{
closed = 1;
nodes = (
"229 522 LINE",
"230 529 LINE SMOOTH",
"238 575 OFFCURVE",
"282 626 OFFCURVE",
"342 626 CURVE SMOOTH",
"362 626 OFFCURVE",
"386 623 OFFCURVE",
"403 609 CURVE",
"391 590 OFFCURVE",
"380 550 OFFCURVE",
"374 522 CURVE"
);
}
);
width = 817;
}
);
unicode = FB04;
},
{
glyphname = f_i;
layers = (
{
layerId = "4E0115BC-0505-415D-92F6-F9BAC1931694";
name = Regular;
paths = (
{
closed = 1;
nodes = (
"30 0 LINE",
"118 0 LINE",
"214 453 LINE",
"381 453 LINE",
"285 0 LINE",
"373 0 LINE",
"484 522 LINE",
"229 522 LINE",
"232 536 LINE SMOOTH",
"245 598 OFFCURVE",
"290 664 OFFCURVE",
"362 664 CURVE SMOOTH",
"408 664 OFFCURVE",
"448 646 OFFCURVE",
"469 623 CURVE",
"520 688 LINE",
"492 711 OFFCURVE",
"443 740 OFFCURVE",
"373 740 CURVE SMOOTH",
"249 740 OFFCURVE",
"163 636 OFFCURVE",
"143 533 CURVE SMOOTH",
"141 522 LINE",
"74 522 LINE",
"59 453 LINE",
"126 453 LINE"
);
}
);
width = 506;
}
);
unicode = FB01;
},
{
glyphname = f_l;
layers = (
{
layerId = "4E0115BC-0505-415D-92F6-F9BAC1931694";
name = Regular;
paths = (
{
closed = 1;
nodes = (
"417 -7 CURVE SMOOTH",
"466 -7 OFFCURVE",
"520 10 OFFCURVE",
"522 12 CURVE",
"526 84 LINE",
"525 84 OFFCURVE",
"488 72 OFFCURVE",
"465 72 CURVE SMOOTH",
"437 72 OFFCURVE",
"426 94 OFFCURVE",
"426 117 CURVE SMOOTH",
"426 122 OFFCURVE",
"427 128 OFFCURVE",
"428 133 CURVE SMOOTH",
"521 572 LINE SMOOTH",
"524 587 OFFCURVE",
"526 601 OFFCURVE",
"526 615 CURVE SMOOTH",
"526 690 OFFCURVE",
"477 740 OFFCURVE",
"372 740 CURVE SMOOTH",
"252 740 OFFCURVE",
"172 661 OFFCURVE",
"145 540 CURVE SMOOTH",
"141 522 LINE",
"74 522 LINE",
"59 453 LINE",
"126 453 LINE",
"30 0 LINE",
"118 0 LINE",
"214 453 LINE",
"311 453 LINE",
"325 522 LINE",
"229 522 LINE",
"231 531 LINE SMOOTH",
"248 609 OFFCURVE",
"289 664 OFFCURVE",
"357 664 CURVE SMOOTH",
"415 664 OFFCURVE",
"433 627 OFFCURVE",
"433 587 CURVE SMOOTH",
"433 576 OFFCURVE",
"431 564 OFFCURVE",
"429 553 CURVE SMOOTH",
"335 114 LINE SMOOTH",
"331 94 OFFCURVE",
"329 83 OFFCURVE",
"329 72 CURVE SMOOTH",
"329 27 OFFCURVE",
"359 -7 OFFCURVE"
);
}
);
width = 585;
}
);
unicode = FB02;
},
{
glyphname = s_t;
layers = (
{
layerId = "4E0115BC-0505-415D-92F6-F9BAC1931694";
name = Regular;
paths = (
{
closed = 1;
nodes = (
"179 -10 CURVE SMOOTH",
"293 -10 OFFCURVE",
"410 52 OFFCURVE",
"410 171 CURVE SMOOTH",
"410 254 OFFCURVE",
"352 271 OFFCURVE",
"271 287 CURVE SMOOTH",
"190 303 OFFCURVE",
"139 311 OFFCURVE",
"139 371 CURVE SMOOTH",
"139 439 OFFCURVE",
"205 467 OFFCURVE",
"269 467 CURVE SMOOTH",
"312 467 OFFCURVE",
"360 454 OFFCURVE",
"396 410 CURVE",
"446 463 LINE",
"440 472 OFFCURVE",
"422 518 OFFCURVE",
"422 569 CURVE SMOOTH",
"422 640 OFFCURVE",
"457 700 OFFCURVE",
"548 700 CURVE SMOOTH",
"593 700 OFFCURVE",
"611 685 OFFCURVE",
"611 638 CURVE SMOOTH",
"611 611 OFFCURVE",
"605 574 OFFCURVE",
"594 522 CURVE",
"527 522 LINE",
"512 453 LINE",
"580 453 LINE",
"510 123 LINE SMOOTH",
"506 103 OFFCURVE",
"502 87 OFFCURVE",
"502 71 CURVE SMOOTH",
"502 18 OFFCURVE",
"543 -7 OFFCURVE",
"596 -7 CURVE SMOOTH",
"646 -7 OFFCURVE",
"700 16 OFFCURVE",
"724 26 CURVE",
"720 96 LINE",
"707 90 OFFCURVE",
"673 74 OFFCURVE",
"643 74 CURVE SMOOTH",
"616 74 OFFCURVE",
"597 87 OFFCURVE",
"597 113 CURVE SMOOTH",
"597 119 OFFCURVE",
"598 123 OFFCURVE",
"599 129 CURVE SMOOTH",
"668 453 LINE",
"777 453 LINE",
"792 522 LINE",
"682 522 LINE",
"692 572 OFFCURVE",
"700 613 OFFCURVE",
"700 647 CURVE SMOOTH",
"700 710 OFFCURVE",
"672 744 OFFCURVE",
"579 744 CURVE SMOOTH",
"430 744 OFFCURVE",
"381 658 OFFCURVE",
"381 574 CURVE SMOOTH",
"381 547 OFFCURVE",
"386 523 OFFCURVE",
"391 500 CURVE",
"362 522 OFFCURVE",
"316 531 OFFCURVE",
"278 531 CURVE SMOOTH",
"176 531 OFFCURVE",
"56 467 OFFCURVE",
"56 349 CURVE SMOOTH",
"56 261 OFFCURVE",
"122 246 OFFCURVE",
"208 228 CURVE SMOOTH",
"274 214 OFFCURVE",
"325 202 OFFCURVE",
"325 149 CURVE SMOOTH",
"325 88 OFFCURVE",
"257 55 OFFCURVE",
"190 55 CURVE SMOOTH",
"132 55 OFFCURVE",
"77 79 OFFCURVE",
"29 124 CURVE",
"-19 64 LINE",
"22 23 OFFCURVE",
"96 -10 OFFCURVE"
);
}
);
width = 791;
}
);
unicode = FB06;
},
{
glyphname = A.sc;
layers = (
{
anchors = (
{
name = bottom;
position = "{570, 8}";
},
{
name = top;
position = "{266, 707}";
}
);
layerId = "4E0115BC-0505-415D-92F6-F9BAC1931694";
name = Regular;
paths = (
{
closed = 1;
nodes = (
"-45 0 LINE",
"41 0 LINE",
"139 155 LINE",
"373 155 LINE",
"406 0 LINE",
"490 0 LINE",
"373 551 LINE",
"307 551 LINE"
);
},
{
closed = 1;
nodes = (
"172 225 LINE",
"319 452 LINE",
"368 225 LINE"
);
}
);
width = 567;
}
);
},
{
glyphname = B.sc;
layers = (
{
layerId = "4E0115BC-0505-415D-92F6-F9BAC1931694";
name = Regular;
paths = (
{
closed = 1;
nodes = (
"14 0 LINE",
"286 0 LINE SMOOTH",
"392 0 OFFCURVE",
"491 66 OFFCURVE",
"491 170 CURVE SMOOTH",
"491 225 OFFCURVE",
"462 267 OFFCURVE",
"411 283 CURVE",
"478 309 OFFCURVE",
"523 372 OFFCURVE",
"523 436 CURVE SMOOTH",
"523 495 OFFCURVE",
"488 551 OFFCURVE",
"420 551 CURVE SMOOTH",
"131 551 LINE"
);
},
{
closed = 1;
nodes = (
"109 69 LINE",
"146 246 LINE",
"344 246 LINE SMOOTH",
"385 246 OFFCURVE",
"411 212 OFFCURVE",
"411 173 CURVE SMOOTH",
"411 118 OFFCURVE",
"357 69 OFFCURVE",
"300 69 CURVE SMOOTH"
);
},
{
closed = 1;
nodes = (
"160 311 LINE",
"196 481 LINE",
"376 481 LINE",
"415 481 OFFCURVE",
"440 453 OFFCURVE",
"440 413 CURVE SMOOTH",
"440 356 OFFCURVE",
"390 311 OFFCURVE",
"336 311 CURVE SMOOTH"
);
}
);
width = 563;
}
);
},
{
glyphname = C.sc;
layers = (
{
anchors = (
{
name = bottom;
position = "{317, 0}";
},
{
name = top;
position = "{318, 707}";
}
);
layerId = "4E0115BC-0505-415D-92F6-F9BAC1931694";
name = Regular;
paths = (
{
closed = 1;
nodes = (
"246 -5 CURVE SMOOTH",
"335 -5 OFFCURVE",
"448 41 OFFCURVE",
"502 123 CURVE",
"444 161 LINE",
"398 95 OFFCURVE",
"323 67 OFFCURVE",
"265 67 CURVE SMOOTH",
"169 67 OFFCURVE",
"112 146 OFFCURVE",
"112 238 CURVE SMOOTH",
"112 350 OFFCURVE",
"208 482 OFFCURVE",
"351 482 CURVE SMOOTH",
"407 482 OFFCURVE",
"468 460 OFFCURVE",
"487 392 CURVE",
"558 434 LINE",
"538 505 OFFCURVE",
"471 554 OFFCURVE",
"369 554 CURVE SMOOTH",
"172 554 OFFCURVE",
"30 382 OFFCURVE",
"30 232 CURVE SMOOTH",
"30 111 OFFCURVE",
"109 -5 OFFCURVE"
);
}
);
width = 570;
}
);
},
{
glyphname = D.sc;
layers = (
{
anchors = (
{
name = top;
position = "{294, 707}";
}
);
layerId = "4E0115BC-0505-415D-92F6-F9BAC1931694";
name = Regular;
paths = (
{
closed = 1;
nodes = (
"14 0 LINE",
"216 0 LINE",
"414 0 OFFCURVE",
"562 140 OFFCURVE",
"562 334 CURVE SMOOTH",
"562 456 OFFCURVE",
"489 551 OFFCURVE",
"333 551 CURVE SMOOTH",
"131 551 LINE"
);
},
{
closed = 1;
nodes = (
"109 71 LINE",
"196 480 LINE",
"318 480 LINE SMOOTH",
"424 480 OFFCURVE",
"479 415 OFFCURVE",
"479 322 CURVE SMOOTH",
"479 188 OFFCURVE",
"385 71 OFFCURVE",
"231 71 CURVE SMOOTH"
);
}
);
width = 604;
}
);
},
{
glyphname = E.sc;
layers = (
{
anchors = (
{
name = bottom;
position = "{285, 0}";
},
{
name = top;
position = "{285, 707}";
}
);
layerId = "4E0115BC-0505-415D-92F6-F9BAC1931694";
name = Regular;
paths = (
{
closed = 1;
nodes = (
"14 0 LINE",
"407 0 LINE",
"422 71 LINE",
"109 71 LINE",
"147 248 LINE",
"413 248 LINE",
"427 314 LINE",
"161 314 LINE",
"196 480 LINE",
"502 480 LINE",
"517 551 LINE",
"131 551 LINE"
);
}
);
width = 510;
}
);
},
{
glyphname = F.sc;
layers = (
{
layerId = "4E0115BC-0505-415D-92F6-F9BAC1931694";
name = Regular;
paths = (
{
closed = 1;
nodes = (
"14 0 LINE",
"94 0 LINE",
"145 241 LINE",
"399 241 LINE",
"414 308 LINE",
"159 308 LINE",
"196 480 LINE",
"498 480 LINE",
"513 551 LINE",
"131 551 LINE"
);
}
);
width = 495;
}
);
},
{
glyphname = G.sc;
layers = (
{
anchors = (
{
name = bottom;
position = "{320, 0}";
},
{
name = top;
position = "{308, 707}";
}
);
layerId = "4E0115BC-0505-415D-92F6-F9BAC1931694";
name = Regular;
paths = (
{
closed = 1;
nodes = (
"244 -4 CURVE SMOOTH",
"311 -4 OFFCURVE",
"375 23 OFFCURVE",
"439 80 CURVE",
"457 162 LINE",
"392 99 OFFCURVE",
"328 68 OFFCURVE",
"265 68 CURVE SMOOTH",
"172 68 OFFCURVE",
"112 143 OFFCURVE",
"112 236 CURVE SMOOTH",
"112 358 OFFCURVE",
"217 483 OFFCURVE",
"346 483 CURVE SMOOTH",
"414 483 OFFCURVE",
"467 453 OFFCURVE",
"485 391 CURVE",
"556 435 LINE",
"534 506 OFFCURVE",
"472 555 OFFCURVE",
"364 555 CURVE SMOOTH",
"189 555 OFFCURVE",
"31 399 OFFCURVE",
"31 231 CURVE SMOOTH",
"31 108 OFFCURVE",
"113 -4 OFFCURVE"
);
},
{
closed = 1;
nodes = (
"414 0 LINE",
"481 0 LINE",
"540 277 LINE",
"350 277 LINE",
"338 217 LINE",
"460 217 LINE"
);
}
);
width = 594;
}
);
},
{
glyphname = H.sc;
layers = (
{
anchors = (
{
name = top;
position = "{308, 707}";
}
);
layerId = "4E0115BC-0505-415D-92F6-F9BAC1931694";
name = Regular;
paths = (
{
closed = 1;
nodes = (
"14 0 LINE",
"94 0 LINE",
"146 246 LINE",
"453 246 LINE",
"401 0 LINE",
"481 0 LINE",
"598 551 LINE",
"518 551 LINE",
"469 318 LINE",
"161 318 LINE",
"211 551 LINE",
"131 551 LINE"
);
}
);
width = 622;
}
);
},
{
glyphname = I.sc;
layers = (
{
anchors = (
{
name = bottom;
position = "{51, 0}";
},
{
name = top;
position = "{50, 707}";
}
);
layerId = "4E0115BC-0505-415D-92F6-F9BAC1931694";
name = Regular;
paths = (
{
closed = 1;
nodes = (
"14 0 LINE",
"94 0 LINE",
"211 551 LINE",
"131 551 LINE"
);
}
);
width = 235;
}
);
},
{
glyphname = J.sc;
layers = (
{
anchors = (
{
name = top;
position = "{307, 707}";
}
);
layerId = "4E0115BC-0505-415D-92F6-F9BAC1931694";
name = Regular;
paths = (
{
closed = 1;
nodes = (
"82 -8 CURVE SMOOTH",
"259 -8 OFFCURVE",
"304 103 OFFCURVE",
"340 271 CURVE SMOOTH",
"400 551 LINE",
"320 551 LINE",
"260 271 LINE SMOOTH",
"231 135 OFFCURVE",
"203 63 OFFCURVE",
"97 63 CURVE SMOOTH",
"50 63 OFFCURVE",
"14 78 OFFCURVE",
"-2 91 CURVE",
"-37 25 LINE",
"-7 3 OFFCURVE",
"32 -8 OFFCURVE"
);
}
);
width = 417;
}
);
},
{
glyphname = K.sc;
layers = (
{
anchors = (
{
name = bottom;
position = "{255, 0}";
}
);
layerId = "4E0115BC-0505-415D-92F6-F9BAC1931694";
name = Regular;
paths = (
{
closed = 1;
nodes = (
"14 0 LINE",
"94 0 LINE",
"130 168 LINE",
"245 261 LINE",
"395 0 LINE",
"481 0 LINE",
"304 308 LINE",
"585 551 LINE",
"499 551 LINE",
"148 256 LINE",
"211 551 LINE",
"131 551 LINE"
);
}
);
width = 549;
}
);
},
{
glyphname = L.sc;
layers = (
{
anchors = (
{
name = bottom;
position = "{272, 0}";
},
{
name = top;
position = "{272, 707}";
}
);
layerId = "4E0115BC-0505-415D-92F6-F9BAC1931694";
name = Regular;
paths = (
{
closed = 1;
nodes = (
"14 0 LINE",
"392 0 LINE",
"407 71 LINE",
"109 71 LINE",
"211 551 LINE",
"131 551 LINE"
);
}
);
width = 468;
}
);
},
{
glyphname = M.sc;
layers = (
{
layerId = "4E0115BC-0505-415D-92F6-F9BAC1931694";
name = Regular;
paths = (
{
closed = 1;
nodes = (
"14 0 LINE",
"94 0 LINE",
"181 409 LINE",
"299 98 LINE",
"344 98 LINE",
"594 409 LINE",
"507 0 LINE",
"587 0 LINE",
"704 551 LINE",
"620 551 LINE",
"345 206 LINE",
"216 551 LINE",
"131 551 LINE"
);
}
);
width = 728;
}
);
},
{
glyphname = N.sc;
layers = (
{
anchors = (
{
name = bottom;
position = "{335, 0}";
},
{
name = top;
position = "{334, 707}";
}
);
layerId = "4E0115BC-0505-415D-92F6-F9BAC1931694";
name = Regular;
paths = (
{
closed = 1;
nodes = (
"14 0 LINE",
"94 0 LINE",
"179 402 LINE",
"436 0 LINE",
"503 0 LINE",
"620 551 LINE",
"540 551 LINE",
"453 141 LINE",
"193 551 LINE",
"131 551 LINE"
);
}
);
width = 644;
}
);
},
{
glyphname = O.sc;
layers = (
{
anchors = (
{
name = bottom;
position = "{315, 0}";
},
{
name = top;
position = "{315, 707}";
}
);
layerId = "4E0115BC-0505-415D-92F6-F9BAC1931694";
name = Regular;
paths = (
{
closed = 1;
nodes = (
"247 -4 CURVE SMOOTH",
"424 -4 OFFCURVE",
"584 156 OFFCURVE",
"584 321 CURVE SMOOTH",
"584 441 OFFCURVE",
"507 554 OFFCURVE",
"367 554 CURVE SMOOTH",
"190 554 OFFCURVE",
"29 394 OFFCURVE",
"29 228 CURVE SMOOTH",
"29 107 OFFCURVE",
"108 -4 OFFCURVE"
);
},
{
closed = 1;
nodes = (
"264 68 CURVE SMOOTH",
"165 68 OFFCURVE",
"111 147 OFFCURVE",
"111 236 CURVE SMOOTH",
"111 353 OFFCURVE",
"216 482 OFFCURVE",
"351 482 CURVE SMOOTH",
"447 482 OFFCURVE",
"502 404 OFFCURVE",
"502 314 CURVE SMOOTH",
"502 199 OFFCURVE",
"399 68 OFFCURVE"
);
}
);
width = 625;
}
);
},
{
glyphname = P.sc;
layers = (
{
layerId = "4E0115BC-0505-415D-92F6-F9BAC1931694";
name = Regular;
paths = (
{
closed = 1;
nodes = (
"14 0 LINE",
"94 0 LINE",
"135 194 LINE",
"301 194 LINE SMOOTH",
"418 194 OFFCURVE",
"514 300 OFFCURVE",
"514 401 CURVE SMOOTH",
"514 477 OFFCURVE",
"461 551 OFFCURVE",
"372 551 CURVE SMOOTH",
"131 551 LINE"
);
},
{
closed = 1;
nodes = (
"150 265 LINE",
"196 480 LINE",
"352 480 LINE SMOOTH",
"399 480 OFFCURVE",
"432 444 OFFCURVE",
"432 393 CURVE SMOOTH",
"432 325 OFFCURVE",
"378 265 OFFCURVE",
"311 265 CURVE SMOOTH"
);
}
);
width = 527;
}
);
},
{
glyphname = Q.sc;
layers = (
{
layerId = "4E0115BC-0505-415D-92F6-F9BAC1931694";
name = Regular;
paths = (
{
closed = 1;
nodes = (
"247 -4 CURVE SMOOTH",
"424 -4 OFFCURVE",
"584 156 OFFCURVE",
"584 321 CURVE SMOOTH",
"584 441 OFFCURVE",
"507 555 OFFCURVE",
"367 555 CURVE SMOOTH",
"191 555 OFFCURVE",
"29 394 OFFCURVE",
"29 228 CURVE SMOOTH",
"29 107 OFFCURVE",
"108 -4 OFFCURVE"
);
},
{
closed = 1;
nodes = (
"264 68 CURVE SMOOTH",
"165 68 OFFCURVE",
"111 147 OFFCURVE",
"111 236 CURVE SMOOTH",
"111 353 OFFCURVE",
"216 483 OFFCURVE",
"351 483 CURVE SMOOTH",
"448 483 OFFCURVE",
"502 404 OFFCURVE",
"502 315 CURVE SMOOTH",
"502 199 OFFCURVE",
"399 68 OFFCURVE"
);
},
{
closed = 1;
nodes = (
"440 0 LINE",
"518 0 LINE",
"391 187 LINE",
"312 187 LINE"
);
}
);
width = 624;
}
);
},
{
glyphname = R.sc;
layers = (
{
anchors = (
{
name = bottom;
position = "{257, 0}";
},
{
name = top;
position = "{257, 710}";
}
);
layerId = "4E0115BC-0505-415D-92F6-F9BAC1931694";
name = Regular;
paths = (
{
closed = 1;
nodes = (
"14 0 LINE",
"94 0 LINE",
"135 194 LINE",
"281 194 LINE",
"368 0 LINE",
"460 0 LINE",
"366 210 LINE",
"453 233 OFFCURVE",
"521 316 OFFCURVE",
"521 401 CURVE SMOOTH",
"521 477 OFFCURVE",
"469 551 OFFCURVE",
"379 551 CURVE SMOOTH",
"131 551 LINE"
);
},
{
closed = 1;
nodes = (
"150 265 LINE",
"196 480 LINE",
"359 480 LINE SMOOTH",
"407 480 OFFCURVE",
"439 441 OFFCURVE",
"439 392 CURVE SMOOTH",
"439 328 OFFCURVE",
"383 265 OFFCURVE",
"318 265 CURVE SMOOTH"
);
}
);
width = 556;
}
);
},
{
glyphname = S.sc;
layers = (
{
anchors = (
{
name = bottom;
position = "{248, 0}";
},
{
name = top;
position = "{248, 729}";
}
);
layerId = "4E0115BC-0505-415D-92F6-F9BAC1931694";
name = Regular;
paths = (
{
closed = 1;
nodes = (
"201 -6 CURVE SMOOTH",
"333 -6 OFFCURVE",
"445 52 OFFCURVE",
"445 179 CURVE SMOOTH",
"445 257 OFFCURVE",
"381 285 OFFCURVE",
"285 309 CURVE SMOOTH",
"201 330 OFFCURVE",
"158 345 OFFCURVE",
"158 388 CURVE SMOOTH",
"158 444 OFFCURVE",
"201 484 OFFCURVE",
"298 484 CURVE SMOOTH",
"365 484 OFFCURVE",
"417 457 OFFCURVE",
"439 427 CURVE",
"488 492 LINE",
"449 530 OFFCURVE",
"390 555 OFFCURVE",
"314 555 CURVE SMOOTH",
"182 555 OFFCURVE",
"72 485 OFFCURVE",
"72 364 CURVE SMOOTH",
"72 296 OFFCURVE",
"122 266 OFFCURVE",
"215 243 CURVE SMOOTH",
"303 221 OFFCURVE",
"355 204 OFFCURVE",
"355 156 CURVE SMOOTH",
"355 98 OFFCURVE",
"302 66 OFFCURVE",
"218 66 CURVE SMOOTH",
"131 66 OFFCURVE",
"65 101 OFFCURVE",
"37 138 CURVE",
"-15 70 LINE",
"38 21 OFFCURVE",
"115 -6 OFFCURVE"
);
}
);
width = 510;
}
);
},
{
glyphname = T.sc;
layers = (
{
anchors = (
{
name = bottom;
position = "{236, 0}";
},
{
name = top;
position = "{236, 707}";
}
);
layerId = "4E0115BC-0505-415D-92F6-F9BAC1931694";
name = Regular;
paths = (
{
closed = 1;
nodes = (
"154 0 LINE",
"234 0 LINE",
"336 480 LINE",
"531 480 LINE",
"546 551 LINE",
"74 551 LINE",
"59 480 LINE",
"256 480 LINE"
);
}
);
width = 515;
}
);
},
{
glyphname = U.sc;
layers = (
{
anchors = (
{
name = bottom;
position = "{319, 0}";
},
{
name = top;
position = "{319, 707}";
}
);
layerId = "4E0115BC-0505-415D-92F6-F9BAC1931694";
name = Regular;
paths = (
{
closed = 1;
nodes = (
"249 -4 CURVE SMOOTH",
"424 -4 OFFCURVE",
"519 122 OFFCURVE",
"551 272 CURVE SMOOTH",
"610 551 LINE",
"530 551 LINE",
"471 272 LINE SMOOTH",
"449 170 OFFCURVE",
"391 68 OFFCURVE",
"263 68 CURVE SMOOTH",
"168 68 OFFCURVE",
"135 127 OFFCURVE",
"135 202 CURVE SMOOTH",
"135 224 OFFCURVE",
"138 248 OFFCURVE",
"143 272 CURVE SMOOTH",
"202 551 LINE",
"122 551 LINE",
"63 272 LINE SMOOTH",
"57 243 OFFCURVE",
"53 214 OFFCURVE",
"53 187 CURVE SMOOTH",
"53 81 OFFCURVE",
"105 -4 OFFCURVE"
);
}
);
width = 625;
}
);
},
{
glyphname = V.sc;
layers = (
{
layerId = "4E0115BC-0505-415D-92F6-F9BAC1931694";
name = Regular;
paths = (
{
closed = 1;
nodes = (
"180 0 LINE",
"249 0 LINE",
"600 551 LINE",
"515 551 LINE",
"239 112 LINE",
"148 551 LINE",
"63 551 LINE"
);
}
);
width = 563;
}
);
},
{
glyphname = W.sc;
layers = (
{
anchors = (
{
name = top;
position = "{435, 707}";
}
);
layerId = "4E0115BC-0505-415D-92F6-F9BAC1931694";
name = Regular;
paths = (
{
closed = 1;
nodes = (
"184 0 LINE",
"254 0 LINE",
"419 252 LINE",
"478 0 LINE",
"546 0 LINE",
"904 551 LINE",
"816 551 LINE",
"527 97 LINE",
"480 305 LINE",
"631 548 LINE",
"556 548 LINE",
"441 359 LINE",
"407 548 LINE",
"332 548 LINE",
"380 305 LINE",
"246 97 LINE",
"149 551 LINE",
"62 551 LINE"
);
}
);
width = 865;
}
);
},
{
glyphname = X.sc;
layers = (
{
layerId = "4E0115BC-0505-415D-92F6-F9BAC1931694";
name = Regular;
paths = (
{
closed = 1;
nodes = (
"-47 0 LINE",
"42 0 LINE",
"250 214 LINE",
"368 0 LINE",
"456 0 LINE",
"305 272 LINE",
"579 551 LINE",
"491 551 LINE",
"274 329 LINE",
"152 551 LINE",
"63 551 LINE",
"219 272 LINE"
);
}
);
width = 536;
}
);
},
{
glyphname = Y.sc;
layers = (
{
anchors = (
{
name = top;
position = "{226, 707}";
}
);
layerId = "4E0115BC-0505-415D-92F6-F9BAC1931694";
name = Regular;
paths = (
{
closed = 1;
nodes = (
"157 0 LINE",
"237 0 LINE",
"279 199 LINE",
"572 551 LINE",
"484 551 LINE",
"254 270 LINE",
"145 551 LINE",
"58 551 LINE",
"200 200 LINE"
);
}
);
width = 531;
}
);
},
{
glyphname = Z.sc;
layers = (
{
anchors = (
{
name = top;
position = "{274, 707}";
}
);
layerId = "4E0115BC-0505-415D-92F6-F9BAC1931694";
name = Regular;
paths = (
{
closed = 1;
nodes = (
"-28 0 LINE",
"429 0 LINE",
"444 71 LINE",
"88 71 LINE",
"533 489 LINE",
"546 551 LINE",
"97 551 LINE",
"82 480 LINE",
"437 480 LINE",
"-15 62 LINE"
);
}
);
width = 531;
}
);
},
{
glyphname = ordfeminine;
layers = (
{
anchors = (
{
name = bottom;
position = "{384, 11}";
},
{
name = top;
position = "{191, 519}";
}
);
layerId = "4E0115BC-0505-415D-92F6-F9BAC1931694";
name = Regular;
paths = (
{
closed = 1;
nodes = (
"165 344 CURVE SMOOTH",
"216 344 OFFCURVE",
"268 367 OFFCURVE",
"308 409 CURVE",
"305 391 OFFCURVE",
"304 385 OFFCURVE",
"304 379 CURVE SMOOTH",
"304 359 OFFCURVE",
"319 347 OFFCURVE",
"348 347 CURVE SMOOTH",
"355 347 OFFCURVE",
"365 348 OFFCURVE",
"375 350 CURVE",
"388 412 LINE",
"377 413 OFFCURVE",
"372 417 OFFCURVE",
"372 427 CURVE SMOOTH",
"372 430 OFFCURVE",
"372 433 OFFCURVE",
"373 436 CURVE SMOOTH",
"401 567 LINE SMOOTH",
"404 582 OFFCURVE",
"406 595 OFFCURVE",
"406 608 CURVE SMOOTH",
"406 675 OFFCURVE",
"361 711 OFFCURVE",
"284 711 CURVE SMOOTH",
"237 711 OFFCURVE",
"190 696 OFFCURVE",
"139 665 CURVE",
"152 620 LINE",
"196 647 OFFCURVE",
"233 661 OFFCURVE",
"268 661 CURVE SMOOTH",
"312 661 OFFCURVE",
"336 638 OFFCURVE",
"336 599 CURVE SMOOTH",
"336 592 OFFCURVE",
"335 584 OFFCURVE",
"333 575 CURVE SMOOTH",
"328 550 LINE",
"305 561 OFFCURVE",
"274 567 OFFCURVE",
"241 567 CURVE SMOOTH",
"148 567 OFFCURVE",
"73 512 OFFCURVE",
"73 435 CURVE SMOOTH",
"73 383 OFFCURVE",
"110 344 OFFCURVE"
);
},
{
closed = 1;
nodes = (
"196 397 CURVE SMOOTH",
"163 397 OFFCURVE",
"141 420 OFFCURVE",
"141 450 CURVE SMOOTH",
"141 494 OFFCURVE",
"186 524 OFFCURVE",
"244 524 CURVE SMOOTH",
"270 524 OFFCURVE",
"298 520 OFFCURVE",
"318 509 CURVE",
"308 461 LINE SMOOTH",
"301 428 OFFCURVE",
"242 397 OFFCURVE"
);
}
);
width = 418;
}
);
unicode = 00AA;
},
{
glyphname = ordmasculine;
layers = (
{
anchors = (
{
name = bottom;
position = "{224, 0}";
},
{
name = top;
position = "{225, 519}";
}
);
layerId = "4E0115BC-0505-415D-92F6-F9BAC1931694";
name = Regular;
paths = (
{
closed = 1;
nodes = (
"223 344 CURVE SMOOTH",
"344 344 OFFCURVE",
"440 451 OFFCURVE",
"440 563 CURVE SMOOTH",
"440 645 OFFCURVE",
"390 711 OFFCURVE",
"301 711 CURVE SMOOTH",
"181 711 OFFCURVE",
"84 606 OFFCURVE",
"84 492 CURVE SMOOTH",
"84 412 OFFCURVE",
"133 344 OFFCURVE"
);
},
{
closed = 1;
nodes = (
"236 405 CURVE SMOOTH",
"188 405 OFFCURVE",
"156 446 OFFCURVE",
"156 501 CURVE SMOOTH",
"156 582 OFFCURVE",
"222 649 OFFCURVE",
"288 649 CURVE SMOOTH",
"336 649 OFFCURVE",
"368 608 OFFCURVE",
"368 553 CURVE SMOOTH",
"368 473 OFFCURVE",
"302 405 OFFCURVE"
);
}
);
width = 431;
}
);
unicode = 00BA;
},
{
glyphname = Delta;
layers = (
{
layerId = "4E0115BC-0505-415D-92F6-F9BAC1931694";
name = Regular;
paths = (
{
closed = 1;
nodes = (
"337 710 LINE",
"263 710 LINE",
"-2 67 LINE",
"-2 0 LINE",
"600 0 LINE",
"600 67 LINE"
);
},
{
closed = 1;
nodes = (
"98 80 LINE",
"300 606 LINE",
"501 80 LINE"
);
}
);
width = 652;
}
);
unicode = 2206;
},
{
glyphname = uni0394;
layers = (
{
layerId = "4E0115BC-0505-415D-92F6-F9BAC1931694";
name = Regular;
paths = (
{
closed = 1;
nodes = (
"-18 0 LINE",
"584 0 LINE",
"584 67 LINE",
"321 710 LINE",
"247 710 LINE",
"-18 67 LINE"
);
},
{
closed = 1;
nodes = (
"82 80 LINE",
"284 606 LINE",
"485 80 LINE"
);
}
);
width = 625;
}
);
unicode = 0394;
},
{
glyphname = Omega;
layers = (
{
layerId = "4E0115BC-0505-415D-92F6-F9BAC1931694";
name = Regular;
paths = (
{
closed = 1;
nodes = (
"51 0 LINE",
"340 0 LINE",
"340 79 LINE",
"225 117 OFFCURVE",
"152 245 OFFCURVE",
"152 365 CURVE SMOOTH",
"152 498 OFFCURVE",
"242 633 OFFCURVE",
"387 633 CURVE SMOOTH",
"532 633 OFFCURVE",
"622 498 OFFCURVE",
"622 365 CURVE SMOOTH",
"622 245 OFFCURVE",
"549 117 OFFCURVE",
"434 79 CURVE",
"434 0 LINE",
"723 0 LINE",
"723 79 LINE",
"544 79 LINE",
"648 137 OFFCURVE",
"713 242 OFFCURVE",
"713 365 CURVE SMOOTH",
"713 549 OFFCURVE",
"573 715 OFFCURVE",
"387 715 CURVE SMOOTH",
"201 715 OFFCURVE",
"61 549 OFFCURVE",
"61 365 CURVE SMOOTH",
"61 242 OFFCURVE",
"126 137 OFFCURVE",
"230 79 CURVE",
"51 79 LINE"
);
}
);
width = 802;
}
);
unicode = 2126;
},
{
glyphname = uni03A9;
layers = (
{
layerId = "4E0115BC-0505-415D-92F6-F9BAC1931694";
name = Regular;
paths = (
{
closed = 1;
nodes = (
"51 0 LINE",
"340 0 LINE",
"340 79 LINE",
"225 117 OFFCURVE",
"152 245 OFFCURVE",
"152 365 CURVE SMOOTH",
"152 498 OFFCURVE",
"242 633 OFFCURVE",
"387 633 CURVE SMOOTH",
"532 633 OFFCURVE",
"622 498 OFFCURVE",
"622 365 CURVE SMOOTH",
"622 245 OFFCURVE",
"549 117 OFFCURVE",
"434 79 CURVE",
"434 0 LINE",
"723 0 LINE",
"723 79 LINE",
"544 79 LINE",
"648 137 OFFCURVE",
"713 242 OFFCURVE",
"713 365 CURVE SMOOTH",
"713 549 OFFCURVE",
"573 715 OFFCURVE",
"387 715 CURVE SMOOTH",
"201 715 OFFCURVE",
"61 549 OFFCURVE",
"61 365 CURVE SMOOTH",
"61 242 OFFCURVE",
"126 137 OFFCURVE",
"230 79 CURVE",
"51 79 LINE"
);
}
);
width = 802;
}
);
unicode = 03A9;
},
{
glyphname = mu;
layers = (
{
layerId = "4E0115BC-0505-415D-92F6-F9BAC1931694";
name = Regular;
paths = (
{
closed = 1;
nodes = (
"-32 -212 LINE",
"56 -212 LINE",
"110 67 LINE",
"115 25 OFFCURVE",
"142 -10 OFFCURVE",
"199 -10 CURVE SMOOTH",
"273 -10 OFFCURVE",
"358 48 OFFCURVE",
"401 112 CURVE",
"390 66 OFFCURVE",
"389 51 OFFCURVE",
"389 39 CURVE SMOOTH",
"389 13 OFFCURVE",
"410 -4 OFFCURVE",
"444 -4 CURVE SMOOTH",
"453 -4 OFFCURVE",
"465 -2 OFFCURVE",
"480 0 CURVE",
"497 76 LINE",
"481 77 OFFCURVE",
"474 82 OFFCURVE",
"474 95 CURVE SMOOTH",
"474 99 OFFCURVE",
"475 103 OFFCURVE",
"476 108 CURVE SMOOTH",
"564 522 LINE",
"476 522 LINE",
"406 195 LINE",
"360 115 OFFCURVE",
"285 66 OFFCURVE",
"220 66 CURVE SMOOTH",
"167 66 OFFCURVE",
"140 96 OFFCURVE",
"140 157 CURVE SMOOTH",
"140 177 OFFCURVE",
"143 200 OFFCURVE",
"149 226 CURVE SMOOTH",
"212 522 LINE",
"124 522 LINE"
);
}
);
width = 606;
}
);
unicode = 00B5;
},
{
glyphname = uni03BC;
layers = (
{
layerId = "4E0115BC-0505-415D-92F6-F9BAC1931694";
name = Regular;
paths = (
{
closed = 1;
nodes = (
"-40 -212 LINE",
"48 -212 LINE",
"102 67 LINE",
"107 25 OFFCURVE",
"134 -10 OFFCURVE",
"191 -10 CURVE SMOOTH",
"265 -10 OFFCURVE",
"350 48 OFFCURVE",
"393 112 CURVE",
"382 66 OFFCURVE",
"381 51 OFFCURVE",
"381 39 CURVE SMOOTH",
"381 13 OFFCURVE",
"402 -4 OFFCURVE",
"436 -4 CURVE SMOOTH",
"445 -4 OFFCURVE",
"457 -2 OFFCURVE",
"472 0 CURVE",
"489 76 LINE",
"473 77 OFFCURVE",
"466 82 OFFCURVE",
"466 95 CURVE SMOOTH",
"466 99 OFFCURVE",
"467 103 OFFCURVE",
"468 108 CURVE SMOOTH",
"556 522 LINE",
"468 522 LINE",
"398 195 LINE",
"352 115 OFFCURVE",
"277 66 OFFCURVE",
"212 66 CURVE SMOOTH",
"159 66 OFFCURVE",
"132 96 OFFCURVE",
"132 157 CURVE SMOOTH",
"132 177 OFFCURVE",
"135 200 OFFCURVE",
"141 226 CURVE SMOOTH",
"204 522 LINE",
"116 522 LINE"
);
}
);
width = 584;
}
);
unicode = 03BC;
},
{
glyphname = pi;
layers = (
{
layerId = "4E0115BC-0505-415D-92F6-F9BAC1931694";
name = Regular;
paths = (
{
closed = 1;
nodes = (
"510 -7 CURVE SMOOTH",
"541 -7 OFFCURVE",
"586 2 OFFCURVE",
"615 14 CURVE",
"601 85 LINE",
"584 78 OFFCURVE",
"562 73 OFFCURVE",
"547 73 CURVE SMOOTH",
"510 73 OFFCURVE",
"488 96 OFFCURVE",
"488 135 CURVE SMOOTH",
"488 442 LINE",
"598 442 LINE",
"598 522 LINE",
"57 522 LINE",
"57 442 LINE",
"137 442 LINE",
"137 0 LINE",
"222 0 LINE",
"222 442 LINE",
"403 442 LINE",
"403 103 LINE SMOOTH",
"403 34 OFFCURVE",
"445 -7 OFFCURVE"
);
}
);
width = 692;
}
);
unicode = 03C0;
},
{
glyphname = zero;
lastChange = "2015-10-29 10:36:55 +0000";
layers = (
{
layerId = "4E0115BC-0505-415D-92F6-F9BAC1931694";
name = Regular;
paths = (
{
closed = 1;
nodes = (
"267 -10 CURVE SMOOTH",
"469 -10 OFFCURVE",
"636 224 OFFCURVE",
"636 422 CURVE SMOOTH",
"636 557 OFFCURVE",
"573 710 OFFCURVE",
"419 710 CURVE SMOOTH",
"217 710 OFFCURVE",
"49 474 OFFCURVE",
"49 276 CURVE SMOOTH",
"49 141 OFFCURVE",
"114 -10 OFFCURVE"
);
},
{
closed = 1;
nodes = (
"283 71 CURVE SMOOTH",
"182 71 OFFCURVE",
"141 166 OFFCURVE",
"141 270 CURVE SMOOTH",
"141 412 OFFCURVE",
"244 629 OFFCURVE",
"402 629 CURVE SMOOTH",
"500 629 OFFCURVE",
"544 522 OFFCURVE",
"544 416 CURVE SMOOTH",
"544 277 OFFCURVE",
"437 71 OFFCURVE"
);
}
);
width = 665;
}
);
unicode = 0030;
},
{
glyphname = one;
lastChange = "2015-10-29 10:39:51 +0000";
layers = (
{
layerId = "4E0115BC-0505-415D-92F6-F9BAC1931694";
name = Regular;
paths = (
{
closed = 1;
nodes = (
"128 0 LINE",
"222 0 LINE",
"373 718 LINE",
"283 718 LINE",
"111 621 LINE",
"143 547 LINE",
"259 611 LINE"
);
}
);
width = 424;
}
);
unicode = 0031;
},
{
glyphname = two;
lastChange = "2015-10-29 10:36:37 +0000";
layers = (
{
layerId = "4E0115BC-0505-415D-92F6-F9BAC1931694";
name = Regular;
paths = (
{
closed = 1;
nodes = (
"-18 0 CURVE",
"450 0 LINE",
"467 80 LINE",
"113 80 LINE",
"132 171 OFFCURVE",
"180 220 OFFCURVE",
"320 283 CURVE SMOOTH",
"439 337 OFFCURVE",
"563 393 OFFCURVE",
"563 553 CURVE SMOOTH",
"563 645 OFFCURVE",
"506 719 OFFCURVE",
"386 719 CURVE SMOOTH",
"245 719 OFFCURVE",
"142 625 OFFCURVE",
"114 598 CURVE",
"158 541 LINE",
"197 580 OFFCURVE",
"272 637 OFFCURVE",
"359 637 CURVE SMOOTH",
"431 637 OFFCURVE",
"463 593 OFFCURVE",
"463 537 CURVE SMOOTH",
"463 404 OFFCURVE",
"337 376 OFFCURVE",
"231 327 CURVE SMOOTH",
"98 265 OFFCURVE",
"22 186 OFFCURVE"
);
}
);
width = 565;
}
);
unicode = 0032;
},
{
glyphname = three;
lastChange = "2015-10-29 10:36:43 +0000";
layers = (
{
layerId = "4E0115BC-0505-415D-92F6-F9BAC1931694";
name = Regular;
paths = (
{
closed = 1;
nodes = (
"201 -9 CURVE SMOOTH",
"341 -9 OFFCURVE",
"488 77 OFFCURVE",
"488 218 CURVE SMOOTH",
"488 293 OFFCURVE",
"447 353 OFFCURVE",
"375 367 CURVE",
"485 393 OFFCURVE",
"543 465 OFFCURVE",
"543 551 CURVE SMOOTH",
"543 649 OFFCURVE",
"468 719 OFFCURVE",
"352 719 CURVE SMOOTH",
"262 719 OFFCURVE",
"163 677 OFFCURVE",
"110 607 CURVE",
"156 546 LINE",
"188 597 OFFCURVE",
"259 641 OFFCURVE",
"333 641 CURVE SMOOTH",
"401 641 OFFCURVE",
"448 603 OFFCURVE",
"448 538 CURVE SMOOTH",
"448 449 OFFCURVE",
"359 401 OFFCURVE",
"230 401 CURVE SMOOTH",
"198 401 LINE",
"182 326 LINE",
"214 326 LINE SMOOTH",
"330 326 OFFCURVE",
"398 287 OFFCURVE",
"398 214 CURVE SMOOTH",
"398 132 OFFCURVE",
"311 73 OFFCURVE",
"213 73 CURVE SMOOTH",
"115 73 OFFCURVE",
"71 132 OFFCURVE",
"71 201 CURVE",
"10 148 LINE",
"10 53 OFFCURVE",
"83 -9 OFFCURVE"
);
}
);
width = 559;
}
);
unicode = 0033;
},
{
glyphname = four;
lastChange = "2015-10-29 10:36:47 +0000";
layers = (
{
layerId = "4E0115BC-0505-415D-92F6-F9BAC1931694";
name = Regular;
paths = (
{
closed = 1;
nodes = (
"366 0 LINE",
"404 181 LINE",
"488 181 LINE",
"505 261 LINE",
"421 261 LINE",
"516 710 LINE",
"455 710 LINE",
"19 260 LINE",
"2 181 LINE",
"316 181 LINE",
"278 0 LINE"
);
},
{
closed = 1;
nodes = (
"111 261 LINE",
"409 575 LINE",
"342 261 LINE"
);
}
);
width = 554;
}
);
unicode = 0034;
},
{
glyphname = five;
lastChange = "2015-10-29 10:37:01 +0000";
layers = (
{
layerId = "4E0115BC-0505-415D-92F6-F9BAC1931694";
name = Regular;
paths = (
{
closed = 1;
nodes = (
"191 -10 CURVE SMOOTH",
"345 -10 OFFCURVE",
"486 109 OFFCURVE",
"486 271 CURVE SMOOTH",
"486 378 OFFCURVE",
"415 453 OFFCURVE",
"308 453 CURVE SMOOTH",
"257 453 OFFCURVE",
"211 435 OFFCURVE",
"177 403 CURVE",
"265 629 LINE",
"528 629 LINE",
"546 710 LINE",
"217 710 LINE",
"216 710 OFFCURVE",
"68 333 OFFCURVE",
"55 304 CURVE",
"134 304 LINE",
"173 350 OFFCURVE",
"229 377 OFFCURVE",
"281 377 CURVE SMOOTH",
"349 377 OFFCURVE",
"394 327 OFFCURVE",
"394 255 CURVE SMOOTH",
"394 150 OFFCURVE",
"306 69 OFFCURVE",
"208 69 CURVE SMOOTH",
"141 69 OFFCURVE",
"88 109 OFFCURVE",
"66 171 CURVE",
"1 123 LINE",
"24 42 OFFCURVE",
"95 -10 OFFCURVE"
);
}
);
width = 539;
}
);
unicode = 0035;
},
{
glyphname = six;
lastChange = "2015-10-29 10:37:06 +0000";
layers = (
{
layerId = "4E0115BC-0505-415D-92F6-F9BAC1931694";
name = Regular;
paths = (
{
closed = 1;
nodes = (
"238 -10 CURVE SMOOTH",
"118 -10 OFFCURVE",
"47 76 OFFCURVE",
"47 216 CURVE SMOOTH",
"47 483 OFFCURVE",
"191 715 OFFCURVE",
"401 715 CURVE SMOOTH",
"488 715 OFFCURVE",
"553 668 OFFCURVE",
"578 589 CURVE",
"513 536 LINE",
"498 598 OFFCURVE",
"449 638 OFFCURVE",
"383 638 CURVE SMOOTH",
"282 638 OFFCURVE",
"194 536 OFFCURVE",
"154 360 CURVE",
"197 429 OFFCURVE",
"272 474 OFFCURVE",
"349 474 CURVE SMOOTH",
"462 474 OFFCURVE",
"537 389 OFFCURVE",
"537 278 CURVE SMOOTH",
"537 123 OFFCURVE",
"392 -10 OFFCURVE"
);
},
{
closed = 1;
nodes = (
"255 66 CURVE SMOOTH",
"352 66 OFFCURVE",
"451 159 OFFCURVE",
"451 265 CURVE SMOOTH",
"451 342 OFFCURVE",
"400 403 OFFCURVE",
"326 403 CURVE SMOOTH",
"228 403 OFFCURVE",
"130 310 OFFCURVE",
"130 205 CURVE SMOOTH",
"130 128 OFFCURVE",
"181 66 OFFCURVE"
);
}
);
width = 591;
}
);
unicode = 0036;
},
{
glyphname = seven;
lastChange = "2015-10-29 10:37:11 +0000";
layers = (
{
layerId = "4E0115BC-0505-415D-92F6-F9BAC1931694";
name = Regular;
paths = (
{
closed = 1;
nodes = (
"7 0 LINE",
"106 0 LINE",
"597 710 LINE",
"115 710 LINE",
"98 629 LINE",
"440 629 LINE"
);
}
);
width = 514;
}
);
unicode = 0037;
},
{
glyphname = eight;
lastChange = "2015-10-29 10:37:16 +0000";
layers = (
{
layerId = "4E0115BC-0505-415D-92F6-F9BAC1931694";
name = Regular;
paths = (
{
closed = 1;
nodes = (
"509 233 CURVE SMOOTH",
"509 302 OFFCURVE",
"469 356 OFFCURVE",
"417 380 CURVE",
"487 409 OFFCURVE",
"556 471 OFFCURVE",
"556 555 CURVE SMOOTH",
"556 655 OFFCURVE",
"465 710 OFFCURVE",
"374 710 CURVE SMOOTH",
"262 710 OFFCURVE",
"116 632 OFFCURVE",
"116 500 CURVE SMOOTH",
"116 446 OFFCURVE",
"148 401 OFFCURVE",
"190 380 CURVE",
"116 351 OFFCURVE",
"24 279 OFFCURVE",
"24 170 CURVE SMOOTH",
"24 69 OFFCURVE",
"102 -8 OFFCURVE",
"220 -8 CURVE SMOOTH",
"366 -8 OFFCURVE",
"509 91 OFFCURVE"
);
},
{
closed = 1;
nodes = (
"420 230 CURVE SMOOTH",
"420 136 OFFCURVE",
"321 71 OFFCURVE",
"239 71 CURVE SMOOTH",
"176 71 OFFCURVE",
"116 114 OFFCURVE",
"116 184 CURVE SMOOTH",
"116 278 OFFCURVE",
"212 343 OFFCURVE",
"295 343 CURVE SMOOTH",
"359 343 OFFCURVE",
"420 301 OFFCURVE"
);
},
{
closed = 1;
nodes = (
"205 503 CURVE SMOOTH",
"205 581 OFFCURVE",
"283 631 OFFCURVE",
"357 631 CURVE SMOOTH",
"416 631 OFFCURVE",
"464 597 OFFCURVE",
"464 541 CURVE SMOOTH",
"464 458 OFFCURVE",
"376 411 OFFCURVE",
"311 411 CURVE SMOOTH",
"259 411 OFFCURVE",
"205 444 OFFCURVE"
);
}
);
width = 576;
}
);
unicode = 0038;
},
{
glyphname = nine;
lastChange = "2015-10-29 10:37:23 +0000";
layers = (
{
layerId = "4E0115BC-0505-415D-92F6-F9BAC1931694";
name = Regular;
paths = (
{
closed = 1;
nodes = (
"76 427 CURVE SMOOTH",
"76 583 OFFCURVE",
"221 715 OFFCURVE",
"376 715 CURVE SMOOTH",
"495 715 OFFCURVE",
"567 630 OFFCURVE",
"567 489 CURVE SMOOTH",
"567 224 OFFCURVE",
"422 -10 OFFCURVE",
"213 -10 CURVE SMOOTH",
"126 -10 OFFCURVE",
"61 37 OFFCURVE",
"36 117 CURVE",
"101 170 LINE",
"115 108 OFFCURVE",
"165 68 OFFCURVE",
"230 68 CURVE SMOOTH",
"332 68 OFFCURVE",
"420 169 OFFCURVE",
"459 345 CURVE",
"417 276 OFFCURVE",
"341 231 OFFCURVE",
"264 231 CURVE SMOOTH",
"151 231 OFFCURVE",
"76 317 OFFCURVE"
);
},
{
closed = 1;
nodes = (
"359 640 CURVE SMOOTH",
"262 640 OFFCURVE",
"163 546 OFFCURVE",
"163 441 CURVE SMOOTH",
"163 364 OFFCURVE",
"214 303 OFFCURVE",
"288 303 CURVE SMOOTH",
"385 303 OFFCURVE",
"485 395 OFFCURVE",
"485 500 CURVE SMOOTH",
"485 577 OFFCURVE",
"433 640 OFFCURVE"
);
}
);
width = 592;
}
);
unicode = 0039;
},
{
glyphname = one.001;
layers = (
{
layerId = "4E0115BC-0505-415D-92F6-F9BAC1931694";
name = Regular;
paths = (
{
closed = 1;
nodes = (
"1 0 LINE",
"341 0 LINE",
"358 80 LINE",
"237 80 LINE",
"373 718 LINE",
"283 718 LINE",
"280 714 OFFCURVE",
"179 621 OFFCURVE",
"111 621 CURVE",
"94 539 LINE",
"145 539 OFFCURVE",
"236 594 OFFCURVE",
"263 625 CURVE",
"147 80 LINE",
"18 80 LINE"
);
}
);
width = 424;
}
);
},
{
glyphname = zero.denominator;
layers = (
{
layerId = "4E0115BC-0505-415D-92F6-F9BAC1931694";
name = Regular;
paths = (
{
closed = 1;
nodes = (
"161 -5 CURVE SMOOTH",
"293 -5 OFFCURVE",
"397 125 OFFCURVE",
"397 236 CURVE SMOOTH",
"397 315 OFFCURVE",
"353 406 OFFCURVE",
"248 406 CURVE SMOOTH",
"116 406 OFFCURVE",
"10 275 OFFCURVE",
"10 164 CURVE SMOOTH",
"10 84 OFFCURVE",
"55 -5 OFFCURVE"
);
},
{
closed = 1;
nodes = (
"172 50 CURVE SMOOTH",
"100 50 OFFCURVE",
"67 112 OFFCURVE",
"67 171 CURVE SMOOTH",
"67 244 OFFCURVE",
"133 351 OFFCURVE",
"236 351 CURVE SMOOTH",
"307 351 OFFCURVE",
"341 289 OFFCURVE",
"341 229 CURVE SMOOTH",
"341 156 OFFCURVE",
"275 50 OFFCURVE"
);
}
);
width = 450;
}
);
},
{
glyphname = one.denominator;
layers = (
{
layerId = "4E0115BC-0505-415D-92F6-F9BAC1931694";
name = Regular;
paths = (
{
closed = 1;
nodes = (
"-16 0 LINE",
"208 0 LINE",
"219 54 LINE",
"138 54 LINE",
"214 411 LINE",
"158 411 LINE",
"157 408 OFFCURVE",
"90 355 OFFCURVE",
"45 355 CURVE",
"33 300 LINE",
"68 300 OFFCURVE",
"127 331 OFFCURVE",
"145 349 CURVE",
"82 54 LINE",
"-5 54 LINE"
);
}
);
width = 290;
}
);
},
{
glyphname = two.denominator;
layers = (
{
layerId = "4E0115BC-0505-415D-92F6-F9BAC1931694";
name = Regular;
paths = (
{
closed = 1;
nodes = (
"-29 0 CURVE",
"283 0 LINE",
"295 54 LINE",
"70 54 LINE",
"78 89 OFFCURVE",
"104 133 OFFCURVE",
"187 160 CURVE SMOOTH",
"301 198 OFFCURVE",
"347 233 OFFCURVE",
"347 312 CURVE SMOOTH",
"347 370 OFFCURVE",
"307 411 OFFCURVE",
"225 411 CURVE SMOOTH",
"131 411 OFFCURVE",
"65 361 OFFCURVE",
"48 343 CURVE",
"75 303 LINE",
"100 326 OFFCURVE",
"145 357 OFFCURVE",
"206 357 CURVE SMOOTH",
"258 357 OFFCURVE",
"284 333 OFFCURVE",
"284 300 CURVE SMOOTH",
"284 231 OFFCURVE",
"202 214 OFFCURVE",
"133 188 CURVE SMOOTH",
"40 153 OFFCURVE",
"-7 105 OFFCURVE"
);
}
);
width = 386;
}
);
},
{
glyphname = three.denominator;
layers = (
{
layerId = "4E0115BC-0505-415D-92F6-F9BAC1931694";
name = Regular;
paths = (
{
closed = 1;
nodes = (
"117 -5 CURVE SMOOTH",
"210 -5 OFFCURVE",
"304 41 OFFCURVE",
"304 125 CURVE SMOOTH",
"304 168 OFFCURVE",
"275 203 OFFCURVE",
"225 211 CURVE",
"294 225 OFFCURVE",
"334 261 OFFCURVE",
"334 315 CURVE SMOOTH",
"334 370 OFFCURVE",
"282 411 OFFCURVE",
"203 411 CURVE SMOOTH",
"142 411 OFFCURVE",
"78 388 OFFCURVE",
"45 349 CURVE",
"72 306 LINE",
"99 338 OFFCURVE",
"141 360 OFFCURVE",
"193 360 CURVE SMOOTH",
"236 360 OFFCURVE",
"274 339 OFFCURVE",
"274 305 CURVE SMOOTH",
"274 257 OFFCURVE",
"217 234 OFFCURVE",
"131 234 CURVE SMOOTH",
"109 234 LINE",
"99 184 LINE",
"121 184 LINE SMOOTH",
"201 184 OFFCURVE",
"248 162 OFFCURVE",
"248 123 CURVE SMOOTH",
"248 79 OFFCURVE",
"192 50 OFFCURVE",
"128 50 CURVE SMOOTH",
"59 50 OFFCURVE",
"24 90 OFFCURVE",
"24 118 CURVE",
"-15 81 LINE",
"-14 27 OFFCURVE",
"38 -5 OFFCURVE"
);
}
);
width = 380;
}
);
},
{
glyphname = four.denominator;
layers = (
{
layerId = "4E0115BC-0505-415D-92F6-F9BAC1931694";
name = Regular;
paths = (
{
closed = 1;
nodes = (
"174 0 LINE",
"229 0 LINE",
"250 100 LINE",
"306 100 LINE",
"318 154 LINE",
"261 154 LINE",
"315 406 LINE",
"277 406 LINE",
"-8 153 LINE",
"-19 100 LINE",
"195 100 LINE"
);
},
{
closed = 1;
nodes = (
"49 154 LINE",
"247 334 LINE",
"209 154 LINE"
);
}
);
width = 377;
}
);
},
{
glyphname = five.denominator;
layers = (
{
layerId = "4E0115BC-0505-415D-92F6-F9BAC1931694";
name = Regular;
paths = (
{
closed = 1;
nodes = (
"111 -5 CURVE SMOOTH",
"212 -5 OFFCURVE",
"303 61 OFFCURVE",
"303 152 CURVE SMOOTH",
"303 216 OFFCURVE",
"253 260 OFFCURVE",
"179 260 CURVE SMOOTH",
"144 260 OFFCURVE",
"113 250 OFFCURVE",
"90 234 CURVE",
"143 351 LINE",
"321 351 LINE",
"333 406 LINE",
"114 406 LINE",
"98 364 OFFCURVE",
"35 226 OFFCURVE",
"12 170 CURVE",
"62 170 LINE",
"86 198 OFFCURVE",
"128 217 OFFCURVE",
"165 217 CURVE SMOOTH",
"206 217 OFFCURVE",
"246 193 OFFCURVE",
"246 147 CURVE SMOOTH",
"246 87 OFFCURVE",
"189 47 OFFCURVE",
"125 47 CURVE SMOOTH",
"76 47 OFFCURVE",
"40 69 OFFCURVE",
"23 102 CURVE",
"-19 68 LINE",
"-2 24 OFFCURVE",
"47 -5 OFFCURVE"
);
}
);
width = 369;
}
);
},
{
glyphname = six.denominator;
layers = (
{
layerId = "4E0115BC-0505-415D-92F6-F9BAC1931694";
name = Regular;
paths = (
{
closed = 1;
nodes = (
"139 -5 CURVE SMOOTH",
"58 -5 OFFCURVE",
"9 46 OFFCURVE",
"9 132 CURVE SMOOTH",
"9 288 OFFCURVE",
"101 409 OFFCURVE",
"235 409 CURVE SMOOTH",
"292 409 OFFCURVE",
"338 384 OFFCURVE",
"354 340 CURVE",
"314 303 LINE",
"303 336 OFFCURVE",
"266 357 OFFCURVE",
"222 357 CURVE SMOOTH",
"152 357 OFFCURVE",
"95 305 OFFCURVE",
"75 213 CURVE",
"101 249 OFFCURVE",
"155 271 OFFCURVE",
"202 271 CURVE SMOOTH",
"282 271 OFFCURVE",
"334 221 OFFCURVE",
"334 156 CURVE SMOOTH",
"334 69 OFFCURVE",
"242 -5 OFFCURVE"
);
},
{
closed = 1;
nodes = (
"152 45 CURVE SMOOTH",
"217 45 OFFCURVE",
"280 93 OFFCURVE",
"280 146 CURVE SMOOTH",
"280 189 OFFCURVE",
"243 223 OFFCURVE",
"189 223 CURVE SMOOTH",
"122 223 OFFCURVE",
"59 176 OFFCURVE",
"59 123 CURVE SMOOTH",
"59 80 OFFCURVE",
"99 45 OFFCURVE"
);
}
);
width = 398;
}
);
},
{
glyphname = seven.denominator;
layers = (
{
layerId = "4E0115BC-0505-415D-92F6-F9BAC1931694";
name = Regular;
paths = (
{
closed = 1;
nodes = (
"-10 0 LINE",
"52 0 LINE",
"367 406 LINE",
"47 406 LINE",
"35 351 LINE",
"269 351 LINE"
);
}
);
width = 352;
}
);
},
{
glyphname = eight.denominator;
layers = (
{
layerId = "4E0115BC-0505-415D-92F6-F9BAC1931694";
name = Regular;
paths = (
{
closed = 1;
nodes = (
"129 -5 CURVE SMOOTH",
"224 -5 OFFCURVE",
"317 52 OFFCURVE",
"317 131 CURVE SMOOTH",
"317 172 OFFCURVE",
"289 202 OFFCURVE",
"250 218 CURVE",
"299 234 OFFCURVE",
"341 267 OFFCURVE",
"341 315 CURVE SMOOTH",
"341 371 OFFCURVE",
"280 406 OFFCURVE",
"217 406 CURVE SMOOTH",
"142 406 OFFCURVE",
"50 359 OFFCURVE",
"50 288 CURVE SMOOTH",
"50 254 OFFCURVE",
"74 230 OFFCURVE",
"104 218 CURVE",
"50 199 OFFCURVE",
"-5 162 OFFCURVE",
"-5 100 CURVE SMOOTH",
"-5 42 OFFCURVE",
"48 -5 OFFCURVE"
);
},
{
closed = 1;
nodes = (
"143 50 CURVE SMOOTH",
"98 50 OFFCURVE",
"52 73 OFFCURVE",
"52 111 CURVE SMOOTH",
"52 160 OFFCURVE",
"115 193 OFFCURVE",
"172 193 CURVE SMOOTH",
"217 193 OFFCURVE",
"261 169 OFFCURVE",
"261 130 CURVE SMOOTH",
"261 82 OFFCURVE",
"198 50 OFFCURVE"
);
},
{
closed = 1;
nodes = (
"182 238 CURVE SMOOTH",
"144 238 OFFCURVE",
"105 257 OFFCURVE",
"105 288 CURVE SMOOTH",
"105 328 OFFCURVE",
"155 353 OFFCURVE",
"206 353 CURVE SMOOTH",
"247 353 OFFCURVE",
"284 334 OFFCURVE",
"284 303 CURVE SMOOTH",
"284 263 OFFCURVE",
"227 238 OFFCURVE"
);
}
);
width = 391;
}
);
},
{
glyphname = nine.denominator;
layers = (
{
layerId = "4E0115BC-0505-415D-92F6-F9BAC1931694";
name = Regular;
paths = (
{
closed = 1;
nodes = (
"122 -5 CURVE SMOOTH",
"64 -5 OFFCURVE",
"18 20 OFFCURVE",
"1 64 CURVE",
"43 101 LINE",
"54 68 OFFCURVE",
"89 47 OFFCURVE",
"135 47 CURVE SMOOTH",
"203 47 OFFCURVE",
"262 99 OFFCURVE",
"282 190 CURVE",
"255 155 OFFCURVE",
"202 132 OFFCURVE",
"154 132 CURVE SMOOTH",
"74 132 OFFCURVE",
"22 182 OFFCURVE",
"22 247 CURVE SMOOTH",
"22 335 OFFCURVE",
"115 409 OFFCURVE",
"217 409 CURVE SMOOTH",
"298 409 OFFCURVE",
"348 357 OFFCURVE",
"348 272 CURVE SMOOTH",
"348 116 OFFCURVE",
"256 -5 OFFCURVE"
);
},
{
closed = 1;
nodes = (
"168 181 CURVE SMOOTH",
"233 181 OFFCURVE",
"296 228 OFFCURVE",
"296 281 CURVE SMOOTH",
"296 323 OFFCURVE",
"258 358 OFFCURVE",
"205 358 CURVE SMOOTH",
"140 358 OFFCURVE",
"76 310 OFFCURVE",
"76 257 CURVE SMOOTH",
"76 215 OFFCURVE",
"115 181 OFFCURVE"
);
}
);
width = 399;
}
);
},
{
glyphname = zero.numerator;
layers = (
{
layerId = "4E0115BC-0505-415D-92F6-F9BAC1931694";
name = Regular;
paths = (
{
closed = 1;
nodes = (
"230 319 CURVE SMOOTH",
"363 319 OFFCURVE",
"466 449 OFFCURVE",
"466 560 CURVE SMOOTH",
"466 639 OFFCURVE",
"422 730 OFFCURVE",
"317 730 CURVE SMOOTH",
"185 730 OFFCURVE",
"79 599 OFFCURVE",
"79 488 CURVE SMOOTH",
"79 408 OFFCURVE",
"124 319 OFFCURVE"
);
},
{
closed = 1;
nodes = (
"137 495 CURVE SMOOTH",
"137 568 OFFCURVE",
"202 675 OFFCURVE",
"305 675 CURVE SMOOTH",
"377 675 OFFCURVE",
"410 613 OFFCURVE",
"410 553 CURVE SMOOTH",
"410 480 OFFCURVE",
"345 374 OFFCURVE",
"241 374 CURVE SMOOTH",
"169 374 OFFCURVE",
"137 436 OFFCURVE"
);
}
);
width = 450;
}
);
},
{
glyphname = one.numerator;
layers = (
{
layerId = "4E0115BC-0505-415D-92F6-F9BAC1931694";
name = Regular;
paths = (
{
closed = 1;
nodes = (
"195 375 LINE",
"271 731 LINE",
"215 731 LINE",
"214 728 OFFCURVE",
"153 675 OFFCURVE",
"113 675 CURVE",
"101 620 LINE",
"132 620 OFFCURVE",
"185 652 OFFCURVE",
"202 669 CURVE",
"140 375 LINE",
"64 375 LINE",
"52 320 LINE",
"253 320 LINE",
"265 375 LINE"
);
}
);
width = 269;
}
);
},
{
glyphname = two.numerator;
layers = (
{
layerId = "4E0115BC-0505-415D-92F6-F9BAC1931694";
name = Regular;
paths = (
{
closed = 1;
nodes = (
"343 320 LINE",
"355 374 LINE",
"137 374 LINE",
"145 409 OFFCURVE",
"172 454 OFFCURVE",
"254 480 CURVE SMOOTH",
"364 516 OFFCURVE",
"415 555 OFFCURVE",
"415 632 CURVE SMOOTH",
"415 690 OFFCURVE",
"375 731 OFFCURVE",
"293 731 CURVE SMOOTH",
"199 731 OFFCURVE",
"132 681 OFFCURVE",
"116 663 CURVE",
"143 624 LINE",
"168 646 OFFCURVE",
"213 677 OFFCURVE",
"274 677 CURVE SMOOTH",
"326 677 OFFCURVE",
"352 653 OFFCURVE",
"352 621 CURVE SMOOTH",
"352 553 OFFCURVE",
"270 535 OFFCURVE",
"200 508 CURVE SMOOTH",
"108 473 OFFCURVE",
"61 425 OFFCURVE",
"39 320 CURVE"
);
}
);
width = 383;
}
);
},
{
glyphname = three.numerator;
layers = (
{
layerId = "4E0115BC-0505-415D-92F6-F9BAC1931694";
name = Regular;
paths = (
{
closed = 1;
nodes = (
"184 314 CURVE SMOOTH",
"277 314 OFFCURVE",
"371 361 OFFCURVE",
"371 445 CURVE SMOOTH",
"371 488 OFFCURVE",
"342 523 OFFCURVE",
"292 531 CURVE",
"361 545 OFFCURVE",
"401 581 OFFCURVE",
"401 635 CURVE SMOOTH",
"401 690 OFFCURVE",
"349 731 OFFCURVE",
"271 731 CURVE SMOOTH",
"209 731 OFFCURVE",
"145 708 OFFCURVE",
"112 669 CURVE",
"139 626 LINE",
"166 658 OFFCURVE",
"209 680 OFFCURVE",
"260 680 CURVE SMOOTH",
"304 680 OFFCURVE",
"341 659 OFFCURVE",
"341 625 CURVE SMOOTH",
"341 577 OFFCURVE",
"285 554 OFFCURVE",
"198 554 CURVE SMOOTH",
"176 554 LINE",
"166 503 LINE",
"188 503 LINE SMOOTH",
"267 503 OFFCURVE",
"316 482 OFFCURVE",
"316 443 CURVE SMOOTH",
"316 399 OFFCURVE",
"259 370 OFFCURVE",
"195 370 CURVE SMOOTH",
"126 370 OFFCURVE",
"92 409 OFFCURVE",
"92 438 CURVE",
"52 400 LINE",
"54 347 OFFCURVE",
"105 314 OFFCURVE"
);
}
);
width = 379;
}
);
},
{
glyphname = four.numerator;
layers = (
{
layerId = "4E0115BC-0505-415D-92F6-F9BAC1931694";
name = Regular;
paths = (
{
closed = 1;
nodes = (
"299 325 LINE",
"320 424 LINE",
"376 424 LINE",
"388 478 LINE",
"331 478 LINE",
"385 730 LINE",
"347 730 LINE",
"62 477 LINE",
"51 424 LINE",
"265 424 LINE",
"244 325 LINE"
);
},
{
closed = 1;
nodes = (
"317 658 LINE",
"279 478 LINE",
"119 478 LINE"
);
}
);
width = 379;
}
);
},
{
glyphname = five.numerator;
layers = (
{
layerId = "4E0115BC-0505-415D-92F6-F9BAC1931694";
name = Regular;
paths = (
{
closed = 1;
nodes = (
"247 584 CURVE SMOOTH",
"212 584 OFFCURVE",
"181 574 OFFCURVE",
"158 558 CURVE",
"211 675 LINE",
"389 675 LINE",
"401 730 LINE",
"182 730 LINE",
"166 688 OFFCURVE",
"103 550 OFFCURVE",
"80 494 CURVE",
"130 494 LINE",
"154 522 OFFCURVE",
"196 541 OFFCURVE",
"233 541 CURVE SMOOTH",
"274 541 OFFCURVE",
"314 517 OFFCURVE",
"314 471 CURVE SMOOTH",
"314 411 OFFCURVE",
"257 372 OFFCURVE",
"193 372 CURVE SMOOTH",
"144 372 OFFCURVE",
"107 393 OFFCURVE",
"91 427 CURVE",
"49 393 LINE",
"65 348 OFFCURVE",
"115 319 OFFCURVE",
"178 319 CURVE SMOOTH",
"280 319 OFFCURVE",
"371 385 OFFCURVE",
"371 477 CURVE SMOOTH",
"371 540 OFFCURVE",
"321 584 OFFCURVE"
);
}
);
width = 368;
}
);
},
{
glyphname = six.numerator;
layers = (
{
layerId = "4E0115BC-0505-415D-92F6-F9BAC1931694";
name = Regular;
paths = (
{
closed = 1;
nodes = (
"403 477 CURVE SMOOTH",
"403 389 OFFCURVE",
"310 315 OFFCURVE",
"207 315 CURVE SMOOTH",
"126 315 OFFCURVE",
"77 367 OFFCURVE",
"77 452 CURVE SMOOTH",
"77 608 OFFCURVE",
"169 730 OFFCURVE",
"303 730 CURVE SMOOTH",
"360 730 OFFCURVE",
"406 705 OFFCURVE",
"423 661 CURVE",
"382 624 LINE",
"371 656 OFFCURVE",
"335 678 OFFCURVE",
"290 678 CURVE SMOOTH",
"221 678 OFFCURVE",
"163 625 OFFCURVE",
"143 534 CURVE",
"169 570 OFFCURVE",
"223 592 OFFCURVE",
"270 592 CURVE SMOOTH",
"350 592 OFFCURVE",
"403 542 OFFCURVE"
);
},
{
closed = 1;
nodes = (
"220 366 CURVE SMOOTH",
"285 366 OFFCURVE",
"349 414 OFFCURVE",
"349 467 CURVE SMOOTH",
"349 510 OFFCURVE",
"311 544 OFFCURVE",
"257 544 CURVE SMOOTH",
"190 544 OFFCURVE",
"128 497 OFFCURVE",
"128 444 CURVE SMOOTH",
"128 401 OFFCURVE",
"167 366 OFFCURVE"
);
}
);
width = 399;
}
);
},
{
glyphname = seven.numerator;
layers = (
{
layerId = "4E0115BC-0505-415D-92F6-F9BAC1931694";
name = Regular;
paths = (
{
closed = 1;
nodes = (
"58 325 LINE",
"120 325 LINE",
"434 730 LINE",
"114 730 LINE",
"103 675 LINE",
"336 675 LINE"
);
}
);
width = 352;
}
);
},
{
glyphname = eight.numerator;
layers = (
{
layerId = "4E0115BC-0505-415D-92F6-F9BAC1931694";
name = Regular;
paths = (
{
closed = 1;
nodes = (
"385 455 CURVE SMOOTH",
"385 496 OFFCURVE",
"358 526 OFFCURVE",
"319 542 CURVE",
"368 558 OFFCURVE",
"409 591 OFFCURVE",
"409 639 CURVE SMOOTH",
"409 695 OFFCURVE",
"349 730 OFFCURVE",
"286 730 CURVE SMOOTH",
"211 730 OFFCURVE",
"119 683 OFFCURVE",
"119 612 CURVE SMOOTH",
"119 578 OFFCURVE",
"143 554 OFFCURVE",
"173 542 CURVE",
"119 523 OFFCURVE",
"64 486 OFFCURVE",
"64 424 CURVE SMOOTH",
"64 366 OFFCURVE",
"117 319 OFFCURVE",
"198 319 CURVE SMOOTH",
"293 319 OFFCURVE",
"385 376 OFFCURVE"
);
},
{
closed = 1;
nodes = (
"330 454 CURVE SMOOTH",
"330 406 OFFCURVE",
"267 374 OFFCURVE",
"212 374 CURVE SMOOTH",
"167 374 OFFCURVE",
"121 397 OFFCURVE",
"121 436 CURVE SMOOTH",
"121 484 OFFCURVE",
"183 517 OFFCURVE",
"241 517 CURVE SMOOTH",
"286 517 OFFCURVE",
"330 493 OFFCURVE"
);
},
{
closed = 1;
nodes = (
"174 613 CURVE SMOOTH",
"174 652 OFFCURVE",
"224 677 OFFCURVE",
"275 677 CURVE SMOOTH",
"316 677 OFFCURVE",
"353 659 OFFCURVE",
"353 627 CURVE SMOOTH",
"353 587 OFFCURVE",
"295 563 OFFCURVE",
"251 563 CURVE SMOOTH",
"213 563 OFFCURVE",
"174 581 OFFCURVE"
);
}
);
width = 390;
}
);
},
{
glyphname = nine.numerator;
layers = (
{
layerId = "4E0115BC-0505-415D-92F6-F9BAC1931694";
name = Regular;
paths = (
{
closed = 1;
nodes = (
"90 568 CURVE SMOOTH",
"90 656 OFFCURVE",
"183 730 OFFCURVE",
"285 730 CURVE SMOOTH",
"366 730 OFFCURVE",
"416 678 OFFCURVE",
"416 593 CURVE SMOOTH",
"416 437 OFFCURVE",
"324 315 OFFCURVE",
"190 315 CURVE SMOOTH",
"133 315 OFFCURVE",
"87 341 OFFCURVE",
"70 385 CURVE",
"111 421 LINE",
"122 388 OFFCURVE",
"157 367 OFFCURVE",
"203 367 CURVE SMOOTH",
"272 367 OFFCURVE",
"330 420 OFFCURVE",
"350 511 CURVE",
"324 476 OFFCURVE",
"270 453 OFFCURVE",
"222 453 CURVE SMOOTH",
"143 453 OFFCURVE",
"90 503 OFFCURVE"
);
},
{
closed = 1;
nodes = (
"273 679 CURVE SMOOTH",
"208 679 OFFCURVE",
"144 631 OFFCURVE",
"144 578 CURVE SMOOTH",
"144 536 OFFCURVE",
"183 502 OFFCURVE",
"236 502 CURVE SMOOTH",
"301 502 OFFCURVE",
"365 548 OFFCURVE",
"365 601 CURVE SMOOTH",
"365 644 OFFCURVE",
"326 679 OFFCURVE"
);
}
);
width = 399;
}
);
},
{
glyphname = zero.onum;
lastChange = "2015-10-29 10:35:18 +0000";
layers = (
{
layerId = "4E0115BC-0505-415D-92F6-F9BAC1931694";
name = Regular;
paths = (
{
closed = 1;
nodes = (
"231 -10 CURVE SMOOTH",
"395 -10 OFFCURVE",
"546 156 OFFCURVE",
"546 364 CURVE SMOOTH",
"546 500 OFFCURVE",
"474 597 OFFCURVE",
"360 597 CURVE SMOOTH",
"195 597 OFFCURVE",
"45 429 OFFCURVE",
"45 222 CURVE SMOOTH",
"45 87 OFFCURVE",
"116 -10 OFFCURVE"
);
},
{
closed = 1;
nodes = (
"248 72 CURVE SMOOTH",
"176 72 OFFCURVE",
"134 136 OFFCURVE",
"134 232 CURVE SMOOTH",
"134 388 OFFCURVE",
"230 515 OFFCURVE",
"343 515 CURVE SMOOTH",
"413 515 OFFCURVE",
"456 450 OFFCURVE",
"456 354 CURVE SMOOTH",
"456 197 OFFCURVE",
"358 72 OFFCURVE"
);
}
);
width = 594;
}
);
},
{
glyphname = one.onum;
lastChange = "2015-10-29 10:35:26 +0000";
layers = (
{
layerId = "4E0115BC-0505-415D-92F6-F9BAC1931694";
name = Regular;
paths = (
{
closed = 1;
nodes = (
"3 0 LINE",
"349 0 LINE",
"366 80 LINE",
"245 80 LINE",
"349 571 LINE",
"259 571 LINE",
"248 556 OFFCURVE",
"139 476 OFFCURVE",
"84 476 CURVE",
"66 392 LINE",
"116 392 OFFCURVE",
"209 439 OFFCURVE",
"238 470 CURVE",
"155 80 LINE",
"20 80 LINE"
);
}
);
width = 434;
}
);
},
{
glyphname = two.onum;
lastChange = "2015-10-29 10:35:31 +0000";
layers = (
{
layerId = "4E0115BC-0505-415D-92F6-F9BAC1931694";
name = Regular;
paths = (
{
closed = 1;
nodes = (
"-21 0 CURVE",
"405 0 LINE",
"422 80 LINE",
"104 80 LINE",
"133 155 OFFCURVE",
"234 208 OFFCURVE",
"295 237 CURVE SMOOTH",
"365 270 OFFCURVE",
"488 327 OFFCURVE",
"488 447 CURVE SMOOTH",
"488 522 OFFCURVE",
"431 581 OFFCURVE",
"328 581 CURVE SMOOTH",
"210 581 OFFCURVE",
"117 509 OFFCURVE",
"90 486 CURVE",
"133 422 LINE",
"164 452 OFFCURVE",
"220 503 OFFCURVE",
"295 503 CURVE SMOOTH",
"359 503 OFFCURVE",
"389 464 OFFCURVE",
"389 424 CURVE SMOOTH",
"389 344 OFFCURVE",
"283 310 OFFCURVE",
"189 261 CURVE SMOOTH",
"45 186 OFFCURVE",
"2 107 OFFCURVE"
);
}
);
width = 514;
}
);
},
{
glyphname = three.onum;
lastChange = "2015-10-29 10:35:36 +0000";
layers = (
{
layerId = "4E0115BC-0505-415D-92F6-F9BAC1931694";
name = Regular;
paths = (
{
closed = 1;
nodes = (
"152 -147 CURVE SMOOTH",
"311 -147 OFFCURVE",
"430 -45 OFFCURVE",
"430 98 CURVE SMOOTH",
"430 170 OFFCURVE",
"393 224 OFFCURVE",
"330 236 CURVE",
"420 251 OFFCURVE",
"488 340 OFFCURVE",
"488 430 CURVE SMOOTH",
"488 518 OFFCURVE",
"423 576 OFFCURVE",
"317 576 CURVE SMOOTH",
"222 576 OFFCURVE",
"127 531 OFFCURVE",
"79 464 CURVE",
"121 408 LINE",
"163 464 OFFCURVE",
"223 497 OFFCURVE",
"291 497 CURVE SMOOTH",
"352 497 OFFCURVE",
"393 469 OFFCURVE",
"393 414 CURVE SMOOTH",
"393 335 OFFCURVE",
"328 270 OFFCURVE",
"224 270 CURVE SMOOTH",
"197 270 LINE",
"181 196 LINE",
"206 196 LINE SMOOTH",
"293 196 OFFCURVE",
"337 153 OFFCURVE",
"337 87 CURVE SMOOTH",
"337 -11 OFFCURVE",
"271 -67 OFFCURVE",
"168 -67 CURVE SMOOTH",
"90 -67 OFFCURVE",
"50 -33 OFFCURVE",
"32 21 CURVE",
"-38 -38 LINE",
"-12 -107 OFFCURVE",
"56 -147 OFFCURVE"
);
}
);
width = 519;
}
);
},
{
glyphname = four.onum;
lastChange = "2015-10-29 10:35:40 +0000";
layers = (
{
layerId = "4E0115BC-0505-415D-92F6-F9BAC1931694";
name = Regular;
paths = (
{
closed = 1;
nodes = (
"238 -127 LINE",
"326 -127 LINE",
"362 42 LINE",
"446 42 LINE",
"463 122 LINE",
"379 122 LINE",
"475 571 LINE",
"415 571 LINE",
"-11 120 LINE",
"-28 42 LINE",
"274 42 LINE"
);
},
{
closed = 1;
nodes = (
"80 122 LINE",
"367 435 LINE",
"300 122 LINE"
);
}
);
width = 539;
}
);
},
{
glyphname = five.onum;
lastChange = "2015-10-29 10:35:44 +0000";
layers = (
{
layerId = "4E0115BC-0505-415D-92F6-F9BAC1931694";
name = Regular;
paths = (
{
closed = 1;
nodes = (
"156 -149 CURVE SMOOTH",
"309 -149 OFFCURVE",
"451 -31 OFFCURVE",
"451 132 CURVE SMOOTH",
"451 240 OFFCURVE",
"380 314 OFFCURVE",
"273 314 CURVE SMOOTH",
"222 314 OFFCURVE",
"176 295 OFFCURVE",
"143 264 CURVE",
"230 490 LINE",
"494 490 LINE",
"511 571 LINE",
"183 571 LINE",
"181 571 OFFCURVE",
"33 193 OFFCURVE",
"20 164 CURVE",
"99 164 LINE",
"138 211 OFFCURVE",
"193 237 OFFCURVE",
"246 237 CURVE SMOOTH",
"314 237 OFFCURVE",
"359 188 OFFCURVE",
"359 116 CURVE SMOOTH",
"359 10 OFFCURVE",
"271 -71 OFFCURVE",
"173 -71 CURVE SMOOTH",
"106 -71 OFFCURVE",
"53 -30 OFFCURVE",
"31 31 CURVE",
"-34 -17 LINE",
"-12 -97 OFFCURVE",
"60 -149 OFFCURVE"
);
}
);
width = 528;
}
);
},
{
glyphname = six.onum;
lastChange = "2015-10-29 10:35:49 +0000";
layers = (
{
layerId = "4E0115BC-0505-415D-92F6-F9BAC1931694";
name = Regular;
paths = (
{
closed = 1;
nodes = (
"238 -10 CURVE SMOOTH",
"118 -10 OFFCURVE",
"47 76 OFFCURVE",
"47 216 CURVE SMOOTH",
"47 483 OFFCURVE",
"191 715 OFFCURVE",
"401 715 CURVE SMOOTH",
"488 715 OFFCURVE",
"553 668 OFFCURVE",
"578 589 CURVE",
"513 536 LINE",
"498 598 OFFCURVE",
"449 638 OFFCURVE",
"383 638 CURVE SMOOTH",
"282 638 OFFCURVE",
"194 536 OFFCURVE",
"154 360 CURVE",
"197 429 OFFCURVE",
"272 474 OFFCURVE",
"349 474 CURVE SMOOTH",
"462 474 OFFCURVE",
"537 389 OFFCURVE",
"537 278 CURVE SMOOTH",
"537 123 OFFCURVE",
"392 -10 OFFCURVE"
);
},
{
closed = 1;
nodes = (
"255 66 CURVE SMOOTH",
"352 66 OFFCURVE",
"451 159 OFFCURVE",
"451 265 CURVE SMOOTH",
"451 342 OFFCURVE",
"400 403 OFFCURVE",
"326 403 CURVE SMOOTH",
"228 403 OFFCURVE",
"130 310 OFFCURVE",
"130 205 CURVE SMOOTH",
"130 128 OFFCURVE",
"181 66 OFFCURVE"
);
}
);
width = 591;
}
);
},
{
glyphname = seven.onum;
lastChange = "2015-10-29 10:35:54 +0000";
layers = (
{
layerId = "4E0115BC-0505-415D-92F6-F9BAC1931694";
name = Regular;
paths = (
{
closed = 1;
nodes = (
"-25 -127 LINE",
"75 -127 LINE",
"565 583 LINE",
"83 583 LINE",
"66 502 LINE",
"408 502 LINE"
);
}
);
width = 516;
}
);
},
{
glyphname = eight.onum;
lastChange = "2015-10-29 10:36:01 +0000";
layers = (
{
layerId = "4E0115BC-0505-415D-92F6-F9BAC1931694";
name = Regular;
paths = (
{
closed = 1;
nodes = (
"220 -8 CURVE SMOOTH",
"366 -8 OFFCURVE",
"509 91 OFFCURVE",
"509 233 CURVE SMOOTH",
"509 302 OFFCURVE",
"469 356 OFFCURVE",
"417 380 CURVE",
"487 409 OFFCURVE",
"556 471 OFFCURVE",
"556 555 CURVE SMOOTH",
"556 655 OFFCURVE",
"465 710 OFFCURVE",
"374 710 CURVE SMOOTH",
"262 710 OFFCURVE",
"116 632 OFFCURVE",
"116 500 CURVE SMOOTH",
"116 446 OFFCURVE",
"148 401 OFFCURVE",
"190 380 CURVE",
"116 351 OFFCURVE",
"24 279 OFFCURVE",
"24 170 CURVE SMOOTH",
"24 69 OFFCURVE",
"102 -8 OFFCURVE"
);
},
{
closed = 1;
nodes = (
"239 71 CURVE SMOOTH",
"176 71 OFFCURVE",
"116 114 OFFCURVE",
"116 184 CURVE SMOOTH",
"116 278 OFFCURVE",
"212 343 OFFCURVE",
"295 343 CURVE SMOOTH",
"359 343 OFFCURVE",
"420 301 OFFCURVE",
"420 230 CURVE SMOOTH",
"420 136 OFFCURVE",
"321 71 OFFCURVE"
);
},
{
closed = 1;
nodes = (
"311 411 CURVE SMOOTH",
"259 411 OFFCURVE",
"205 444 OFFCURVE",
"205 503 CURVE SMOOTH",
"205 581 OFFCURVE",
"283 631 OFFCURVE",
"357 631 CURVE SMOOTH",
"416 631 OFFCURVE",
"464 597 OFFCURVE",
"464 541 CURVE SMOOTH",
"464 458 OFFCURVE",
"376 411 OFFCURVE"
);
}
);
width = 576;
}
);
},
{
glyphname = nine.onum;
lastChange = "2015-10-29 10:36:09 +0000";
layers = (
{
layerId = "4E0115BC-0505-415D-92F6-F9BAC1931694";
name = Regular;
paths = (
{
closed = 1;
nodes = (
"173 -154 CURVE SMOOTH",
"86 -154 OFFCURVE",
"21 -107 OFFCURVE",
"-4 -28 CURVE",
"61 25 LINE",
"75 -37 OFFCURVE",
"125 -77 OFFCURVE",
"191 -77 CURVE SMOOTH",
"292 -77 OFFCURVE",
"380 25 OFFCURVE",
"419 201 CURVE",
"377 132 OFFCURVE",
"302 87 OFFCURVE",
"224 87 CURVE SMOOTH",
"112 87 OFFCURVE",
"37 172 OFFCURVE",
"37 283 CURVE SMOOTH",
"37 438 OFFCURVE",
"181 571 OFFCURVE",
"336 571 CURVE SMOOTH",
"455 571 OFFCURVE",
"527 485 OFFCURVE",
"527 345 CURVE SMOOTH",
"527 78 OFFCURVE",
"383 -154 OFFCURVE"
);
},
{
closed = 1;
nodes = (
"247 158 CURVE SMOOTH",
"346 158 OFFCURVE",
"444 251 OFFCURVE",
"444 356 CURVE SMOOTH",
"444 433 OFFCURVE",
"393 495 OFFCURVE",
"319 495 CURVE SMOOTH",
"222 495 OFFCURVE",
"122 402 OFFCURVE",
"122 296 CURVE SMOOTH",
"122 219 OFFCURVE",
"174 158 OFFCURVE"
);
}
);
width = 574;
}
);
},
{
glyphname = fraction;
layers = (
{
layerId = "4E0115BC-0505-415D-92F6-F9BAC1931694";
name = Regular;
paths = (
{
closed = 1;
nodes = (
"-220 -5 LINE",
"112 343 LINE",
"446 678 LINE",
"411 715 LINE",
"84 370 LINE",
"-254 33 LINE"
);
}
);
width = 168;
}
);
unicode = 2044;
},
{
glyphname = zeroinferior;
layers = (
{
layerId = "4E0115BC-0505-415D-92F6-F9BAC1931694";
name = Regular;
paths = (
{
closed = 1;
nodes = (
"144 -85 CURVE SMOOTH",
"276 -85 OFFCURVE",
"380 45 OFFCURVE",
"380 156 CURVE SMOOTH",
"380 235 OFFCURVE",
"336 326 OFFCURVE",
"231 326 CURVE SMOOTH",
"99 326 OFFCURVE",
"-7 195 OFFCURVE",
"-7 84 CURVE SMOOTH",
"-7 4 OFFCURVE",
"38 -85 OFFCURVE"
);
},
{
closed = 1;
nodes = (
"50 91 CURVE SMOOTH",
"50 164 OFFCURVE",
"116 271 OFFCURVE",
"219 271 CURVE SMOOTH",
"290 271 OFFCURVE",
"324 209 OFFCURVE",
"324 149 CURVE SMOOTH",
"324 76 OFFCURVE",
"258 -30 OFFCURVE",
"155 -30 CURVE SMOOTH",
"82 -30 OFFCURVE",
"50 32 OFFCURVE"
);
}
);
width = 450;
}
);
unicode = 2080;
},
{
glyphname = oneinferior;
layers = (
{
layerId = "4E0115BC-0505-415D-92F6-F9BAC1931694";
name = Regular;
paths = (
{
closed = 1;
nodes = (
"121 -26 LINE",
"197 331 LINE",
"141 331 LINE",
"140 328 OFFCURVE",
"73 275 OFFCURVE",
"28 275 CURVE",
"16 220 LINE",
"51 220 OFFCURVE",
"110 251 OFFCURVE",
"128 269 CURVE",
"65 -26 LINE",
"-22 -26 LINE",
"-33 -80 LINE",
"191 -80 LINE",
"202 -26 LINE"
);
}
);
width = 291;
}
);
unicode = 2081;
},
{
glyphname = twoinferior;
layers = (
{
layerId = "4E0115BC-0505-415D-92F6-F9BAC1931694";
name = Regular;
paths = (
{
closed = 1;
nodes = (
"266 -80 LINE",
"278 -26 LINE",
"53 -26 LINE",
"61 9 OFFCURVE",
"87 53 OFFCURVE",
"170 80 CURVE SMOOTH",
"280 116 OFFCURVE",
"330 154 OFFCURVE",
"330 232 CURVE SMOOTH",
"330 290 OFFCURVE",
"290 331 OFFCURVE",
"208 331 CURVE SMOOTH",
"114 331 OFFCURVE",
"48 281 OFFCURVE",
"31 263 CURVE",
"58 223 LINE",
"83 246 OFFCURVE",
"128 277 OFFCURVE",
"189 277 CURVE SMOOTH",
"241 277 OFFCURVE",
"267 253 OFFCURVE",
"267 220 CURVE SMOOTH",
"267 151 OFFCURVE",
"185 134 OFFCURVE",
"116 108 CURVE SMOOTH",
"23 73 OFFCURVE",
"-24 25 OFFCURVE",
"-46 -80 CURVE"
);
}
);
width = 386;
}
);
unicode = 2082;
},
{
glyphname = threeinferior;
layers = (
{
layerId = "4E0115BC-0505-415D-92F6-F9BAC1931694";
name = Regular;
paths = (
{
closed = 1;
nodes = (
"100 -85 CURVE SMOOTH",
"193 -85 OFFCURVE",
"287 -39 OFFCURVE",
"287 45 CURVE SMOOTH",
"287 88 OFFCURVE",
"258 123 OFFCURVE",
"208 131 CURVE",
"277 145 OFFCURVE",
"317 181 OFFCURVE",
"317 235 CURVE SMOOTH",
"317 290 OFFCURVE",
"265 331 OFFCURVE",
"186 331 CURVE SMOOTH",
"125 331 OFFCURVE",
"61 308 OFFCURVE",
"28 269 CURVE",
"55 226 LINE",
"82 258 OFFCURVE",
"124 280 OFFCURVE",
"176 280 CURVE SMOOTH",
"219 280 OFFCURVE",
"257 259 OFFCURVE",
"257 225 CURVE SMOOTH",
"257 177 OFFCURVE",
"200 154 OFFCURVE",
"114 154 CURVE SMOOTH",
"92 154 LINE",
"82 104 LINE",
"104 104 LINE SMOOTH",
"183 104 OFFCURVE",
"231 82 OFFCURVE",
"231 43 CURVE SMOOTH",
"231 -1 OFFCURVE",
"175 -30 OFFCURVE",
"111 -30 CURVE SMOOTH",
"42 -30 OFFCURVE",
"7 10 OFFCURVE",
"7 38 CURVE",
"-32 1 LINE",
"-31 -53 OFFCURVE",
"22 -85 OFFCURVE"
);
}
);
width = 380;
}
);
unicode = 2083;
},
{
glyphname = fourinferior;
layers = (
{
layerId = "4E0115BC-0505-415D-92F6-F9BAC1931694";
name = Regular;
paths = (
{
closed = 1;
nodes = (
"212 -80 LINE",
"233 20 LINE",
"289 20 LINE",
"301 74 LINE",
"244 74 LINE",
"298 326 LINE",
"260 326 LINE",
"-25 73 LINE",
"-36 20 LINE",
"178 20 LINE",
"157 -80 LINE"
);
},
{
closed = 1;
nodes = (
"230 254 LINE",
"192 74 LINE",
"32 74 LINE"
);
}
);
width = 377;
}
);
unicode = 2084;
},
{
glyphname = fiveinferior;
layers = (
{
layerId = "4E0115BC-0505-415D-92F6-F9BAC1931694";
name = Regular;
paths = (
{
closed = 1;
nodes = (
"162 180 CURVE SMOOTH",
"127 180 OFFCURVE",
"96 170 OFFCURVE",
"73 154 CURVE",
"126 271 LINE",
"304 271 LINE",
"316 326 LINE",
"97 326 LINE",
"81 284 OFFCURVE",
"18 146 OFFCURVE",
"-5 90 CURVE",
"45 90 LINE",
"69 118 OFFCURVE",
"111 137 OFFCURVE",
"148 137 CURVE SMOOTH",
"189 137 OFFCURVE",
"229 113 OFFCURVE",
"229 67 CURVE SMOOTH",
"229 7 OFFCURVE",
"172 -33 OFFCURVE",
"108 -33 CURVE SMOOTH",
"59 -33 OFFCURVE",
"23 -11 OFFCURVE",
"6 22 CURVE",
"-36 -12 LINE",
"-19 -56 OFFCURVE",
"30 -85 OFFCURVE",
"94 -85 CURVE SMOOTH",
"195 -85 OFFCURVE",
"286 -19 OFFCURVE",
"286 72 CURVE SMOOTH",
"286 136 OFFCURVE",
"236 180 OFFCURVE"
);
}
);
width = 369;
}
);
unicode = 2085;
},
{
glyphname = sixinferior;
layers = (
{
layerId = "4E0115BC-0505-415D-92F6-F9BAC1931694";
name = Regular;
paths = (
{
closed = 1;
nodes = (
"317 76 CURVE SMOOTH",
"317 -11 OFFCURVE",
"225 -85 OFFCURVE",
"122 -85 CURVE SMOOTH",
"41 -85 OFFCURVE",
"-8 -34 OFFCURVE",
"-8 52 CURVE SMOOTH",
"-8 208 OFFCURVE",
"84 329 OFFCURVE",
"218 329 CURVE SMOOTH",
"275 329 OFFCURVE",
"321 304 OFFCURVE",
"337 260 CURVE",
"297 223 LINE",
"286 256 OFFCURVE",
"249 277 OFFCURVE",
"205 277 CURVE SMOOTH",
"135 277 OFFCURVE",
"78 225 OFFCURVE",
"58 133 CURVE",
"84 169 OFFCURVE",
"138 191 OFFCURVE",
"185 191 CURVE SMOOTH",
"265 191 OFFCURVE",
"317 141 OFFCURVE"
);
},
{
closed = 1;
nodes = (
"135 -35 CURVE SMOOTH",
"200 -35 OFFCURVE",
"263 13 OFFCURVE",
"263 66 CURVE SMOOTH",
"263 109 OFFCURVE",
"226 143 OFFCURVE",
"172 143 CURVE SMOOTH",
"105 143 OFFCURVE",
"42 96 OFFCURVE",
"42 43 CURVE SMOOTH",
"42 0 OFFCURVE",
"82 -35 OFFCURVE"
);
}
);
width = 398;
}
);
unicode = 2086;
},
{
glyphname = seveninferior;
layers = (
{
layerId = "4E0115BC-0505-415D-92F6-F9BAC1931694";
name = Regular;
paths = (
{
closed = 1;
nodes = (
"-27 -80 LINE",
"35 -80 LINE",
"350 326 LINE",
"30 326 LINE",
"18 271 LINE",
"252 271 LINE"
);
}
);
width = 353;
}
);
unicode = 2087;
},
{
glyphname = eightinferior;
layers = (
{
layerId = "4E0115BC-0505-415D-92F6-F9BAC1931694";
name = Regular;
paths = (
{
closed = 1;
nodes = (
"300 51 CURVE SMOOTH",
"300 92 OFFCURVE",
"272 122 OFFCURVE",
"233 138 CURVE",
"282 154 OFFCURVE",
"324 187 OFFCURVE",
"324 235 CURVE SMOOTH",
"324 291 OFFCURVE",
"263 326 OFFCURVE",
"200 326 CURVE SMOOTH",
"125 326 OFFCURVE",
"33 279 OFFCURVE",
"33 208 CURVE SMOOTH",
"33 174 OFFCURVE",
"57 150 OFFCURVE",
"87 138 CURVE",
"33 119 OFFCURVE",
"-22 82 OFFCURVE",
"-22 20 CURVE SMOOTH",
"-22 -38 OFFCURVE",
"31 -85 OFFCURVE",
"112 -85 CURVE SMOOTH",
"207 -85 OFFCURVE",
"300 -28 OFFCURVE"
);
},
{
closed = 1;
nodes = (
"244 50 CURVE SMOOTH",
"244 2 OFFCURVE",
"181 -30 OFFCURVE",
"126 -30 CURVE SMOOTH",
"81 -30 OFFCURVE",
"35 -7 OFFCURVE",
"35 31 CURVE SMOOTH",
"35 80 OFFCURVE",
"98 113 OFFCURVE",
"155 113 CURVE SMOOTH",
"200 113 OFFCURVE",
"244 89 OFFCURVE"
);
},
{
closed = 1;
nodes = (
"88 208 CURVE SMOOTH",
"88 248 OFFCURVE",
"138 273 OFFCURVE",
"189 273 CURVE SMOOTH",
"231 273 OFFCURVE",
"267 254 OFFCURVE",
"267 223 CURVE SMOOTH",
"267 183 OFFCURVE",
"209 158 OFFCURVE",
"165 158 CURVE SMOOTH",
"127 158 OFFCURVE",
"88 177 OFFCURVE"
);
}
);
width = 391;
}
);
unicode = 2088;
},
{
glyphname = nineinferior;
layers = (
{
layerId = "4E0115BC-0505-415D-92F6-F9BAC1931694";
name = Regular;
paths = (
{
closed = 1;
nodes = (
"5 167 CURVE SMOOTH",
"5 255 OFFCURVE",
"98 329 OFFCURVE",
"200 329 CURVE SMOOTH",
"281 329 OFFCURVE",
"331 277 OFFCURVE",
"331 192 CURVE SMOOTH",
"331 36 OFFCURVE",
"240 -85 OFFCURVE",
"105 -85 CURVE SMOOTH",
"48 -85 OFFCURVE",
"1 -60 OFFCURVE",
"-16 -16 CURVE",
"26 21 LINE",
"37 -12 OFFCURVE",
"72 -33 OFFCURVE",
"118 -33 CURVE SMOOTH",
"186 -33 OFFCURVE",
"245 19 OFFCURVE",
"265 110 CURVE",
"238 75 OFFCURVE",
"185 52 OFFCURVE",
"137 52 CURVE SMOOTH",
"57 52 OFFCURVE",
"5 102 OFFCURVE"
);
},
{
closed = 1;
nodes = (
"188 278 CURVE SMOOTH",
"122 278 OFFCURVE",
"59 230 OFFCURVE",
"59 177 CURVE SMOOTH",
"59 135 OFFCURVE",
"98 101 OFFCURVE",
"151 101 CURVE SMOOTH",
"216 101 OFFCURVE",
"279 148 OFFCURVE",
"279 201 CURVE SMOOTH",
"279 243 OFFCURVE",
"241 278 OFFCURVE"
);
}
);
width = 400;
}
);
unicode = 2089;
},
{
glyphname = zerosuperior;
layers = (
{
layerId = "4E0115BC-0505-415D-92F6-F9BAC1931694";
name = Regular;
paths = (
{
closed = 1;
nodes = (
"247 399 CURVE SMOOTH",
"380 399 OFFCURVE",
"483 529 OFFCURVE",
"483 640 CURVE SMOOTH",
"483 719 OFFCURVE",
"439 810 OFFCURVE",
"334 810 CURVE SMOOTH",
"202 810 OFFCURVE",
"96 679 OFFCURVE",
"96 568 CURVE SMOOTH",
"96 488 OFFCURVE",
"141 399 OFFCURVE"
);
},
{
closed = 1;
nodes = (
"154 575 CURVE SMOOTH",
"154 648 OFFCURVE",
"219 755 OFFCURVE",
"322 755 CURVE SMOOTH",
"393 755 OFFCURVE",
"427 693 OFFCURVE",
"427 633 CURVE SMOOTH",
"427 560 OFFCURVE",
"362 454 OFFCURVE",
"258 454 CURVE SMOOTH",
"186 454 OFFCURVE",
"154 516 OFFCURVE"
);
}
);
width = 450;
}
);
unicode = 2070;
},
{
glyphname = onesuperior;
layers = (
{
layerId = "4E0115BC-0505-415D-92F6-F9BAC1931694";
name = Regular;
paths = (
{
closed = 1;
nodes = (
"212 455 LINE",
"288 811 LINE",
"232 811 LINE",
"231 808 OFFCURVE",
"170 755 OFFCURVE",
"130 755 CURVE",
"118 700 LINE",
"149 700 OFFCURVE",
"202 732 OFFCURVE",
"219 749 CURVE",
"157 455 LINE",
"81 455 LINE",
"69 400 LINE",
"270 400 LINE",
"282 455 LINE"
);
}
);
width = 269;
}
);
unicode = 00B9;
},
{
glyphname = twosuperior;
layers = (
{
layerId = "4E0115BC-0505-415D-92F6-F9BAC1931694";
name = Regular;
paths = (
{
closed = 1;
nodes = (
"360 400 LINE",
"372 454 LINE",
"154 454 LINE",
"162 489 OFFCURVE",
"189 533 OFFCURVE",
"271 560 CURVE SMOOTH",
"377 595 OFFCURVE",
"432 632 OFFCURVE",
"432 712 CURVE SMOOTH",
"432 770 OFFCURVE",
"392 811 OFFCURVE",
"310 811 CURVE SMOOTH",
"216 811 OFFCURVE",
"149 761 OFFCURVE",
"133 743 CURVE",
"160 704 LINE",
"185 726 OFFCURVE",
"230 757 OFFCURVE",
"291 757 CURVE SMOOTH",
"343 757 OFFCURVE",
"369 733 OFFCURVE",
"369 701 CURVE SMOOTH",
"369 633 OFFCURVE",
"287 615 OFFCURVE",
"217 588 CURVE SMOOTH",
"125 553 OFFCURVE",
"78 505 OFFCURVE",
"56 400 CURVE"
);
}
);
width = 383;
}
);
unicode = 00B2;
},
{
glyphname = threesuperior;
layers = (
{
layerId = "4E0115BC-0505-415D-92F6-F9BAC1931694";
name = Regular;
paths = (
{
closed = 1;
nodes = (
"204 394 CURVE SMOOTH",
"291 394 OFFCURVE",
"388 441 OFFCURVE",
"388 524 CURVE SMOOTH",
"388 569 OFFCURVE",
"359 603 OFFCURVE",
"309 611 CURVE",
"378 625 OFFCURVE",
"418 662 OFFCURVE",
"418 713 CURVE SMOOTH",
"418 771 OFFCURVE",
"366 811 OFFCURVE",
"287 811 CURVE SMOOTH",
"227 811 OFFCURVE",
"162 788 OFFCURVE",
"129 749 CURVE",
"156 706 LINE",
"183 738 OFFCURVE",
"227 760 OFFCURVE",
"276 760 CURVE SMOOTH",
"322 760 OFFCURVE",
"358 740 OFFCURVE",
"358 704 CURVE SMOOTH",
"358 658 OFFCURVE",
"302 634 OFFCURVE",
"215 634 CURVE SMOOTH",
"193 634 LINE",
"183 583 LINE",
"205 583 LINE SMOOTH",
"285 583 OFFCURVE",
"333 562 OFFCURVE",
"333 522 CURVE SMOOTH",
"333 479 OFFCURVE",
"275 450 OFFCURVE",
"214 450 CURVE SMOOTH",
"142 450 OFFCURVE",
"109 490 OFFCURVE",
"109 518 CURVE",
"69 480 LINE",
"81 429 OFFCURVE",
"128 394 OFFCURVE"
);
}
);
width = 379;
}
);
unicode = 00B3;
},
{
glyphname = foursuperior;
layers = (
{
layerId = "4E0115BC-0505-415D-92F6-F9BAC1931694";
name = Regular;
paths = (
{
closed = 1;
nodes = (
"316 405 LINE",
"337 504 LINE",
"393 504 LINE",
"405 558 LINE",
"348 558 LINE",
"402 810 LINE",
"364 810 LINE",
"79 557 LINE",
"68 504 LINE",
"282 504 LINE",
"261 405 LINE"
);
},
{
closed = 1;
nodes = (
"334 738 LINE",
"296 558 LINE",
"136 558 LINE"
);
}
);
width = 379;
}
);
unicode = 2074;
},
{
glyphname = fivesuperior;
layers = (
{
layerId = "4E0115BC-0505-415D-92F6-F9BAC1931694";
name = Regular;
paths = (
{
closed = 1;
nodes = (
"264 664 CURVE SMOOTH",
"229 664 OFFCURVE",
"198 654 OFFCURVE",
"175 638 CURVE",
"228 755 LINE",
"406 755 LINE",
"418 810 LINE",
"199 810 LINE",
"183 768 OFFCURVE",
"120 630 OFFCURVE",
"97 574 CURVE",
"147 574 LINE",
"171 602 OFFCURVE",
"213 621 OFFCURVE",
"250 621 CURVE SMOOTH",
"291 621 OFFCURVE",
"331 597 OFFCURVE",
"331 551 CURVE SMOOTH",
"331 491 OFFCURVE",
"274 452 OFFCURVE",
"210 452 CURVE SMOOTH",
"161 452 OFFCURVE",
"124 473 OFFCURVE",
"108 507 CURVE",
"66 473 LINE",
"82 428 OFFCURVE",
"131 399 OFFCURVE",
"195 399 CURVE SMOOTH",
"297 399 OFFCURVE",
"388 465 OFFCURVE",
"388 557 CURVE SMOOTH",
"388 620 OFFCURVE",
"338 664 OFFCURVE"
);
}
);
width = 368;
}
);
unicode = 2075;
},
{
glyphname = sixsuperior;
layers = (
{
layerId = "4E0115BC-0505-415D-92F6-F9BAC1931694";
name = Regular;
paths = (
{
closed = 1;
nodes = (
"420 557 CURVE SMOOTH",
"420 469 OFFCURVE",
"327 395 OFFCURVE",
"224 395 CURVE SMOOTH",
"143 395 OFFCURVE",
"94 447 OFFCURVE",
"94 532 CURVE SMOOTH",
"94 688 OFFCURVE",
"186 810 OFFCURVE",
"320 810 CURVE SMOOTH",
"377 810 OFFCURVE",
"423 785 OFFCURVE",
"440 741 CURVE",
"399 704 LINE",
"388 736 OFFCURVE",
"352 758 OFFCURVE",
"307 758 CURVE SMOOTH",
"238 758 OFFCURVE",
"180 705 OFFCURVE",
"160 614 CURVE",
"186 650 OFFCURVE",
"240 672 OFFCURVE",
"287 672 CURVE SMOOTH",
"367 672 OFFCURVE",
"420 622 OFFCURVE"
);
},
{
closed = 1;
nodes = (
"237 446 CURVE SMOOTH",
"302 446 OFFCURVE",
"366 494 OFFCURVE",
"366 547 CURVE SMOOTH",
"366 590 OFFCURVE",
"328 624 OFFCURVE",
"274 624 CURVE SMOOTH",
"208 624 OFFCURVE",
"145 577 OFFCURVE",
"145 524 CURVE SMOOTH",
"145 481 OFFCURVE",
"184 446 OFFCURVE"
);
}
);
width = 399;
}
);
unicode = 2076;
},
{
glyphname = sevensuperior;
layers = (
{
layerId = "4E0115BC-0505-415D-92F6-F9BAC1931694";
name = Regular;
paths = (
{
closed = 1;
nodes = (
"76 405 LINE",
"138 405 LINE",
"452 810 LINE",
"132 810 LINE",
"121 755 LINE",
"354 755 LINE"
);
}
);
width = 354;
}
);
unicode = 2077;
},
{
glyphname = eightsuperior;
layers = (
{
layerId = "4E0115BC-0505-415D-92F6-F9BAC1931694";
name = Regular;
paths = (
{
closed = 1;
nodes = (
"401 535 CURVE SMOOTH",
"401 576 OFFCURVE",
"374 606 OFFCURVE",
"335 622 CURVE",
"384 638 OFFCURVE",
"425 671 OFFCURVE",
"425 719 CURVE SMOOTH",
"425 775 OFFCURVE",
"365 810 OFFCURVE",
"302 810 CURVE SMOOTH",
"227 810 OFFCURVE",
"135 763 OFFCURVE",
"135 692 CURVE SMOOTH",
"135 658 OFFCURVE",
"159 634 OFFCURVE",
"189 622 CURVE",
"135 603 OFFCURVE",
"80 566 OFFCURVE",
"80 504 CURVE SMOOTH",
"80 446 OFFCURVE",
"133 399 OFFCURVE",
"214 399 CURVE SMOOTH",
"309 399 OFFCURVE",
"401 456 OFFCURVE"
);
},
{
closed = 1;
nodes = (
"346 534 CURVE SMOOTH",
"346 486 OFFCURVE",
"283 454 OFFCURVE",
"228 454 CURVE SMOOTH",
"183 454 OFFCURVE",
"137 477 OFFCURVE",
"137 516 CURVE SMOOTH",
"137 564 OFFCURVE",
"199 597 OFFCURVE",
"257 597 CURVE SMOOTH",
"302 597 OFFCURVE",
"346 573 OFFCURVE"
);
},
{
closed = 1;
nodes = (
"190 693 CURVE SMOOTH",
"190 732 OFFCURVE",
"240 757 OFFCURVE",
"291 757 CURVE SMOOTH",
"332 757 OFFCURVE",
"369 739 OFFCURVE",
"369 707 CURVE SMOOTH",
"369 667 OFFCURVE",
"311 643 OFFCURVE",
"267 643 CURVE SMOOTH",
"229 643 OFFCURVE",
"190 661 OFFCURVE"
);
}
);
width = 389;
}
);
unicode = 2078;
},
{
glyphname = ninesuperior;
layers = (
{
layerId = "4E0115BC-0505-415D-92F6-F9BAC1931694";
name = Regular;
paths = (
{
closed = 1;
nodes = (
"107 648 CURVE SMOOTH",
"107 736 OFFCURVE",
"200 810 OFFCURVE",
"302 810 CURVE SMOOTH",
"383 810 OFFCURVE",
"433 758 OFFCURVE",
"433 673 CURVE SMOOTH",
"433 517 OFFCURVE",
"341 395 OFFCURVE",
"207 395 CURVE SMOOTH",
"150 395 OFFCURVE",
"104 421 OFFCURVE",
"87 465 CURVE",
"128 501 LINE",
"139 468 OFFCURVE",
"174 447 OFFCURVE",
"220 447 CURVE SMOOTH",
"289 447 OFFCURVE",
"347 500 OFFCURVE",
"367 591 CURVE",
"341 556 OFFCURVE",
"287 533 OFFCURVE",
"239 533 CURVE SMOOTH",
"160 533 OFFCURVE",
"107 583 OFFCURVE"
);
},
{
closed = 1;
nodes = (
"290 759 CURVE SMOOTH",
"225 759 OFFCURVE",
"161 711 OFFCURVE",
"161 658 CURVE SMOOTH",
"161 616 OFFCURVE",
"200 582 OFFCURVE",
"253 582 CURVE SMOOTH",
"318 582 OFFCURVE",
"382 628 OFFCURVE",
"382 681 CURVE SMOOTH",
"382 724 OFFCURVE",
"343 759 OFFCURVE"
);
}
);
width = 399;
}
);
unicode = 2079;
},
{
glyphname = asterisk;
layers = (
{
layerId = "4E0115BC-0505-415D-92F6-F9BAC1931694";
name = Regular;
paths = (
{
closed = 1;
nodes = (
"162 513 LINE",
"219 580 LINE",
"245 513 LINE",
"288 538 LINE",
"259 603 LINE",
"329 625 LINE",
"326 667 LINE",
"253 640 LINE",
"272 714 LINE",
"221 714 LINE",
"209 640 LINE",
"148 667 LINE",
"126 625 LINE",
"187 603 LINE",
"131 538 LINE"
);
}
);
width = 322;
}
);
unicode = 002A;
},
{
glyphname = backslash;
layers = (
{
layerId = "4E0115BC-0505-415D-92F6-F9BAC1931694";
name = Regular;
paths = (
{
closed = 1;
nodes = (
"108 710 LINE",
"371 0 LINE",
"469 0 LINE",
"207 710 LINE"
);
}
);
width = 556;
}
);
unicode = 005C;
},
{
glyphname = periodcentered;
layers = (
{
layerId = "4E0115BC-0505-415D-92F6-F9BAC1931694";
name = Regular;
paths = (
{
closed = 1;
nodes = (
"124 245 LINE",
"150 369 LINE",
"76 369 LINE",
"50 245 LINE"
);
}
);
width = 199;
}
);
unicode = 00B7;
},
{
glyphname = bullet;
layers = (
{
layerId = "4E0115BC-0505-415D-92F6-F9BAC1931694";
name = Regular;
paths = (
{
closed = 1;
nodes = (
"273 363 CURVE SMOOTH",
"273 406 OFFCURVE",
"244 441 OFFCURVE",
"200 441 CURVE SMOOTH",
"145 441 OFFCURVE",
"88 389 OFFCURVE",
"88 331 CURVE SMOOTH",
"88 287 OFFCURVE",
"118 253 OFFCURVE",
"160 253 CURVE SMOOTH",
"217 253 OFFCURVE",
"273 304 OFFCURVE"
);
}
);
width = 345;
}
);
unicode = 2022;
},
{
glyphname = colon;
layers = (
{
layerId = "4E0115BC-0505-415D-92F6-F9BAC1931694";
name = Regular;
paths = (
{
closed = 1;
nodes = (
"157 406 LINE",
"181 518 LINE",
"108 518 LINE",
"84 406 LINE"
);
},
{
closed = 1;
nodes = (
"71 0 LINE",
"95 112 LINE",
"22 112 LINE",
"-2 0 LINE"
);
}
);
width = 198;
}
);
unicode = 003A;
},
{
glyphname = comma;
layers = (
{
layerId = "4E0115BC-0505-415D-92F6-F9BAC1931694";
name = Regular;
paths = (
{
closed = 1;
nodes = (
"36 -81 LINE",
"84 8 LINE",
"106 112 LINE",
"24 112 LINE",
"2 8 LINE",
"32 8 LINE",
"-7 -81 LINE"
);
}
);
width = 208;
}
);
unicode = 002C;
},
{
glyphname = ellipsis;
layers = (
{
layerId = "4E0115BC-0505-415D-92F6-F9BAC1931694";
name = Regular;
paths = (
{
closed = 1;
nodes = (
"74 0 LINE",
"98 112 LINE",
"24 112 LINE",
"0 0 LINE"
);
},
{
closed = 1;
nodes = (
"220 0 LINE",
"244 112 LINE",
"171 112 LINE",
"147 0 LINE"
);
},
{
closed = 1;
nodes = (
"367 0 LINE",
"391 112 LINE",
"317 112 LINE",
"293 0 LINE"
);
}
);
width = 493;
}
);
unicode = 2026;
},
{
glyphname = exclam;
layers = (
{
layerId = "4E0115BC-0505-415D-92F6-F9BAC1931694";
name = Regular;
paths = (
{
closed = 1;
nodes = (
"160 240 LINE",
"261 717 LINE",
"173 717 LINE",
"72 240 LINE"
);
},
{
closed = 1;
nodes = (
"109 0 LINE",
"135 124 LINE",
"47 124 LINE",
"21 0 LINE"
);
}
);
width = 258;
}
);
unicode = 0021;
},
{
glyphname = exclamdown;
layers = (
{
layerId = "4E0115BC-0505-415D-92F6-F9BAC1931694";
name = Regular;
paths = (
{
closed = 1;
nodes = (
"121 474 LINE",
"20 -3 LINE",
"108 -3 LINE",
"209 474 LINE"
);
},
{
closed = 1;
nodes = (
"172 714 LINE",
"146 590 LINE",
"234 590 LINE",
"260 714 LINE"
);
}
);
width = 257;
}
);
unicode = 00A1;
},
{
glyphname = numbersign;
layers = (
{
layerId = "4E0115BC-0505-415D-92F6-F9BAC1931694";
name = Regular;
paths = (
{
closed = 1;
nodes = (
"672 511 LINE",
"559 511 LINE",
"648 710 LINE",
"575 710 LINE",
"488 511 LINE",
"333 511 LINE",
"421 710 LINE",
"349 710 LINE",
"261 511 LINE",
"124 511 LINE",
"110 447 LINE",
"231 447 LINE",
"154 269 LINE",
"30 269 LINE",
"16 201 LINE",
"123 201 LINE",
"33 0 LINE",
"106 0 LINE",
"195 201 LINE",
"350 201 LINE",
"260 0 LINE",
"333 0 LINE",
"422 201 LINE",
"564 201 LINE",
"578 269 LINE",
"452 269 LINE",
"530 447 LINE",
"658 447 LINE"
);
},
{
closed = 1;
nodes = (
"226 269 LINE",
"303 447 LINE",
"458 447 LINE",
"380 269 LINE"
);
}
);
width = 664;
}
);
unicode = 0023;
},
{
glyphname = period;
layers = (
{
layerId = "4E0115BC-0505-415D-92F6-F9BAC1931694";
name = Regular;
paths = (
{
closed = 1;
nodes = (
"74 0 LINE",
"98 112 LINE",
"24 112 LINE",
"0 0 LINE"
);
}
);
width = 200;
}
);
unicode = 002E;
},
{
glyphname = question;
layers = (
{
layerId = "4E0115BC-0505-415D-92F6-F9BAC1931694";
name = Regular;
paths = (
{
closed = 1;
nodes = (
"191 211 LINE",
"209 299 OFFCURVE",
"262 324 OFFCURVE",
"315 351 CURVE SMOOTH",
"403 397 OFFCURVE",
"476 440 OFFCURVE",
"476 567 CURVE SMOOTH",
"476 670 OFFCURVE",
"403 719 OFFCURVE",
"321 719 CURVE SMOOTH",
"237 719 OFFCURVE",
"147 672 OFFCURVE",
"95 590 CURVE",
"146 551 LINE",
"181 602 OFFCURVE",
"241 646 OFFCURVE",
"303 646 CURVE SMOOTH",
"354 646 OFFCURVE",
"396 614 OFFCURVE",
"396 554 CURVE SMOOTH",
"396 446 OFFCURVE",
"290 410 OFFCURVE",
"231 375 CURVE SMOOTH",
"164 336 OFFCURVE",
"132 283 OFFCURVE",
"117 211 CURVE"
);
},
{
closed = 1;
nodes = (
"148 0 LINE",
"172 116 LINE",
"99 116 LINE",
"74 0 LINE"
);
}
);
width = 462;
}
);
unicode = 003F;
},
{
glyphname = quotedbl;
layers = (
{
layerId = "4E0115BC-0505-415D-92F6-F9BAC1931694";
name = Regular;
paths = (
{
closed = 1;
nodes = (
"182 502 LINE",
"228 718 LINE",
"152 718 LINE",
"106 502 LINE"
);
},
{
closed = 1;
nodes = (
"294 502 LINE",
"340 718 LINE",
"264 718 LINE",
"218 502 LINE"
);
}
);
width = 318;
}
);
unicode = 0022;
},
{
glyphname = quotesingle;
layers = (
{
layerId = "4E0115BC-0505-415D-92F6-F9BAC1931694";
name = Regular;
paths = (
{
closed = 1;
nodes = (
"182 501 LINE",
"228 718 LINE",
"152 718 LINE",
"106 501 LINE"
);
}
);
width = 206;
}
);
unicode = 0027;
},
{
glyphname = semicolon;
layers = (
{
layerId = "4E0115BC-0505-415D-92F6-F9BAC1931694";
name = Regular;
paths = (
{
closed = 1;
nodes = (
"157 406 LINE",
"181 518 LINE",
"108 518 LINE",
"85 406 LINE"
);
},
{
closed = 1;
nodes = (
"34 -81 LINE",
"82 8 LINE",
"104 112 LINE",
"22 112 LINE",
"0 8 LINE",
"30 8 LINE",
"-9 -81 LINE"
);
}
);
width = 202;
}
);
unicode = 003B;
},
{
glyphname = slash;
layers = (
{
layerId = "4E0115BC-0505-415D-92F6-F9BAC1931694";
name = Regular;
paths = (
{
closed = 1;
nodes = (
"582 710 LINE",
"-26 0 LINE",
"72 0 LINE",
"680 710 LINE"
);
}
);
width = 628;
}
);
unicode = 002F;
},
{
glyphname = underscore;
layers = (
{
layerId = "4E0115BC-0505-415D-92F6-F9BAC1931694";
name = Regular;
paths = (
{
closed = 1;
nodes = (
"338 -80 LINE",
"355 0 LINE",
"-2 0 LINE",
"-19 -80 LINE"
);
}
);
width = 483;
}
);
unicode = 005F;
},
{
glyphname = braceleft;
layers = (
{
layerId = "4E0115BC-0505-415D-92F6-F9BAC1931694";
name = Regular;
paths = (
{
closed = 1;
nodes = (
"297 668 LINE",
"313 740 LINE",
"202 740 LINE SMOOTH",
"196 740 OFFCURVE",
"179 735 OFFCURVE",
"174 710 CURVE SMOOTH",
"119 450 LINE SMOOTH",
"115 430 OFFCURVE",
"93 393 OFFCURVE",
"66 393 CURVE",
"52 329 LINE",
"71 326 OFFCURVE",
"81 307 OFFCURVE",
"81 285 CURVE SMOOTH",
"81 280 OFFCURVE",
"81 275 OFFCURVE",
"80 270 CURVE SMOOTH",
"23 -1 LINE SMOOTH",
"22 -5 OFFCURVE",
"22 -9 OFFCURVE",
"22 -12 CURVE SMOOTH",
"22 -26 OFFCURVE",
"30 -31 OFFCURVE",
"38 -31 CURVE SMOOTH",
"149 -31 LINE",
"164 41 LINE",
"112 41 LINE",
"166 296 LINE SMOOTH",
"167 301 OFFCURVE",
"167 306 OFFCURVE",
"167 311 CURVE SMOOTH",
"167 328 OFFCURVE",
"163 347 OFFCURVE",
"151 360 CURVE",
"175 379 OFFCURVE",
"189 405 OFFCURVE",
"193 424 CURVE SMOOTH",
"245 668 LINE"
);
}
);
width = 265;
}
);
unicode = 007B;
},
{
glyphname = braceright;
layers = (
{
layerId = "4E0115BC-0505-415D-92F6-F9BAC1931694";
name = Regular;
paths = (
{
closed = 1;
nodes = (
"176 668 LINE",
"124 424 LINE SMOOTH",
"123 419 OFFCURVE",
"122 414 OFFCURVE",
"122 408 CURVE SMOOTH",
"122 392 OFFCURVE",
"127 374 OFFCURVE",
"138 360 CURVE",
"115 342 OFFCURVE",
"101 314 OFFCURVE",
"97 296 CURVE SMOOTH",
"43 41 LINE",
"-10 41 LINE",
"-25 -31 LINE",
"85 -31 LINE SMOOTH",
"94 -31 OFFCURVE",
"109 -24 OFFCURVE",
"114 -1 CURVE SMOOTH",
"171 270 LINE SMOOTH",
"177 299 OFFCURVE",
"199 325 OFFCURVE",
"224 329 CURVE",
"238 393 LINE",
"216 393 OFFCURVE",
"208 418 OFFCURVE",
"208 438 CURVE SMOOTH",
"208 442 OFFCURVE",
"208 446 OFFCURVE",
"209 450 CURVE SMOOTH",
"265 710 LINE SMOOTH",
"266 713 OFFCURVE",
"266 716 OFFCURVE",
"266 719 CURVE SMOOTH",
"266 736 OFFCURVE",
"254 740 OFFCURVE",
"249 740 CURVE SMOOTH",
"139 740 LINE",
"124 668 LINE"
);
}
);
width = 264;
}
);
unicode = 007D;
},
{
glyphname = bracketleft;
layers = (
{
layerId = "4E0115BC-0505-415D-92F6-F9BAC1931694";
name = Regular;
paths = (
{
closed = 1;
nodes = (
"148 -40 LINE",
"163 32 LINE",
"107 32 LINE",
"242 668 LINE",
"298 668 LINE",
"313 740 LINE",
"176 740 LINE",
"10 -40 LINE"
);
}
);
width = 265;
}
);
unicode = 005B;
},
{
glyphname = bracketright;
layers = (
{
layerId = "4E0115BC-0505-415D-92F6-F9BAC1931694";
name = Regular;
paths = (
{
closed = 1;
nodes = (
"111 -40 LINE",
"276 740 LINE",
"139 740 LINE",
"123 668 LINE",
"179 668 LINE",
"44 32 LINE",
"-12 32 LINE",
"-27 -40 LINE"
);
}
);
width = 265;
}
);
unicode = 005D;
},
{
glyphname = parenleft;
layers = (
{
layerId = "4E0115BC-0505-415D-92F6-F9BAC1931694";
name = Regular;
paths = (
{
closed = 1;
nodes = (
"42 261 CURVE SMOOTH",
"42 163 OFFCURVE",
"68 50 OFFCURVE",
"107 -42 CURVE",
"179 -8 LINE",
"145 79 OFFCURVE",
"125 186 OFFCURVE",
"125 268 CURVE SMOOTH",
"125 434 OFFCURVE",
"261 626 OFFCURVE",
"334 714 CURVE",
"273 744 LINE",
"145 581 OFFCURVE",
"42 437 OFFCURVE"
);
}
);
width = 278;
}
);
unicode = 0028;
},
{
glyphname = parenright;
layers = (
{
layerId = "4E0115BC-0505-415D-92F6-F9BAC1931694";
name = Regular;
paths = (
{
closed = 1;
nodes = (
"256 432 CURVE SMOOTH",
"256 533 OFFCURVE",
"229 646 OFFCURVE",
"194 744 CURVE",
"119 714 LINE",
"143 656 OFFCURVE",
"172 530 OFFCURVE",
"172 424 CURVE SMOOTH",
"172 278 OFFCURVE",
"87 138 OFFCURVE",
"-32 -8 CURVE",
"26 -42 LINE",
"155 111 OFFCURVE",
"256 262 OFFCURVE"
);
}
);
width = 278;
}
);
unicode = 0029;
},
{
glyphname = emdash;
layers = (
{
layerId = "4E0115BC-0505-415D-92F6-F9BAC1931694";
name = Regular;
paths = (
{
closed = 1;
nodes = (
"795 233 LINE",
"812 313 LINE",
"65 313 LINE",
"48 233 LINE"
);
}
);
width = 872;
}
);
unicode = 2014;
},
{
glyphname = endash;
layers = (
{
layerId = "4E0115BC-0505-415D-92F6-F9BAC1931694";
name = Regular;
paths = (
{
closed = 1;
nodes = (
"483 233 LINE",
"500 313 LINE",
"65 313 LINE",
"48 233 LINE"
);
}
);
width = 560;
}
);
unicode = 2013;
},
{
glyphname = hyphen;
layers = (
{
layerId = "4E0115BC-0505-415D-92F6-F9BAC1931694";
name = Regular;
paths = (
{
closed = 1;
nodes = (
"329 233 LINE",
"346 313 LINE",
"65 313 LINE",
"48 233 LINE"
);
}
);
width = 406;
}
);
unicode = 002D;
},
{
glyphname = uni00AD;
layers = (
{
layerId = "4E0115BC-0505-415D-92F6-F9BAC1931694";
name = Regular;
paths = (
{
closed = 1;
nodes = (
"483 233 LINE",
"500 313 LINE",
"65 313 LINE",
"48 233 LINE"
);
}
);
width = 560;
}
);
unicode = 00AD;
},
{
glyphname = apostrophe;
layers = (
{
anchors = (
{
name = _top;
position = "{280, 522}";
}
);
layerId = "4E0115BC-0505-415D-92F6-F9BAC1931694";
name = Regular;
paths = (
{
closed = 1;
nodes = (
"326 609 LINE",
"436 730 LINE",
"326 730 LINE",
"321 692 LINE",
"273 629 LINE"
);
}
);
width = 535;
}
);
unicode = 02BC;
},
{
glyphname = guillemotleft;
layers = (
{
layerId = "4E0115BC-0505-415D-92F6-F9BAC1931694";
name = Regular;
paths = (
{
closed = 1;
nodes = (
"26 234 LINE",
"230 60 LINE",
"246 134 LINE",
"102 259 LINE",
"300 387 LINE",
"316 461 LINE",
"36 280 LINE"
);
},
{
closed = 1;
nodes = (
"261 234 LINE",
"465 60 LINE",
"481 134 LINE",
"337 259 LINE",
"535 387 LINE",
"550 461 LINE",
"270 280 LINE"
);
}
);
width = 576;
}
);
unicode = 00AB;
},
{
glyphname = guillemotright;
layers = (
{
layerId = "4E0115BC-0505-415D-92F6-F9BAC1931694";
name = Regular;
paths = (
{
closed = 1;
nodes = (
"531 280 LINE",
"328 461 LINE",
"312 387 LINE",
"455 259 LINE",
"258 134 LINE",
"243 60 LINE",
"521 234 LINE"
);
},
{
closed = 1;
nodes = (
"296 280 LINE",
"93 461 LINE",
"78 387 LINE",
"221 259 LINE",
"24 134 LINE",
"8 60 LINE",
"286 234 LINE"
);
}
);
width = 576;
}
);
unicode = 00BB;
},
{
glyphname = guilsinglleft;
layers = (
{
layerId = "4E0115BC-0505-415D-92F6-F9BAC1931694";
name = Regular;
paths = (
{
closed = 1;
nodes = (
"26 234 LINE",
"230 60 LINE",
"246 134 LINE",
"102 259 LINE",
"300 387 LINE",
"316 461 LINE",
"36 280 LINE"
);
}
);
width = 341;
}
);
unicode = 2039;
},
{
glyphname = guilsinglright;
layers = (
{
layerId = "4E0115BC-0505-415D-92F6-F9BAC1931694";
name = Regular;
paths = (
{
closed = 1;
nodes = (
"296 280 LINE",
"93 461 LINE",
"78 387 LINE",
"221 259 LINE",
"24 134 LINE",
"8 60 LINE",
"286 234 LINE"
);
}
);
width = 341;
}
);
unicode = 203A;
},
{
glyphname = quotedblbase;
layers = (
{
layerId = "4E0115BC-0505-415D-92F6-F9BAC1931694";
name = Regular;
paths = (
{
closed = 1;
nodes = (
"32 -115 LINE",
"85 0 LINE",
"109 114 LINE",
"25 114 LINE",
"1 0 LINE",
"31 0 LINE",
"-13 -115 LINE"
);
},
{
closed = 1;
nodes = (
"167 -115 LINE",
"220 0 LINE",
"245 114 LINE",
"161 114 LINE",
"137 0 LINE",
"166 0 LINE",
"122 -115 LINE"
);
}
);
width = 348;
}
);
unicode = 201E;
},
{
glyphname = quotedblleft;
layers = (
{
layerId = "4E0115BC-0505-415D-92F6-F9BAC1931694";
name = Regular;
paths = (
{
closed = 1;
nodes = (
"181 730 LINE",
"127 615 LINE",
"103 501 LINE",
"187 501 LINE",
"211 615 LINE",
"182 615 LINE",
"225 730 LINE"
);
},
{
closed = 1;
nodes = (
"312 730 LINE",
"258 615 LINE",
"234 501 LINE",
"318 501 LINE",
"342 615 LINE",
"313 615 LINE",
"356 730 LINE"
);
}
);
width = 337;
}
);
unicode = 201C;
},
{
glyphname = quotedblright;
layers = (
{
layerId = "4E0115BC-0505-415D-92F6-F9BAC1931694";
name = Regular;
paths = (
{
closed = 1;
nodes = (
"155 501 LINE",
"209 616 LINE",
"233 730 LINE",
"149 730 LINE",
"125 616 LINE",
"154 616 LINE",
"111 501 LINE"
);
},
{
closed = 1;
nodes = (
"286 501 LINE",
"340 616 LINE",
"364 730 LINE",
"280 730 LINE",
"256 616 LINE",
"285 616 LINE",
"242 501 LINE"
);
}
);
width = 331;
}
);
unicode = 201D;
},
{
glyphname = quoteleft;
layers = (
{
layerId = "4E0115BC-0505-415D-92F6-F9BAC1931694";
name = Regular;
paths = (
{
closed = 1;
nodes = (
"181 730 LINE",
"127 615 LINE",
"103 501 LINE",
"187 501 LINE",
"211 615 LINE",
"182 615 LINE",
"225 730 LINE"
);
}
);
width = 206;
}
);
unicode = 2018;
},
{
glyphname = quotesinglbase;
layers = (
{
layerId = "4E0115BC-0505-415D-92F6-F9BAC1931694";
name = Regular;
paths = (
{
closed = 1;
nodes = (
"32 -115 LINE",
"85 0 LINE",
"109 114 LINE",
"25 114 LINE",
"1 0 LINE",
"31 0 LINE",
"-13 -115 LINE"
);
}
);
width = 212;
}
);
unicode = 201A;
},
{
glyphname = Euro;
layers = (
{
layerId = "4E0115BC-0505-415D-92F6-F9BAC1931694";
name = Regular;
paths = (
{
closed = 1;
nodes = (
"452 259 LINE",
"485 311 LINE",
"58 311 LINE",
"25 259 LINE"
);
},
{
closed = 1;
nodes = (
"103 422 LINE",
"70 370 LINE",
"509 370 LINE",
"542 422 LINE"
);
},
{
closed = 1;
nodes = (
"129 294 CURVE SMOOTH",
"129 141 OFFCURVE",
"219 -6 OFFCURVE",
"377 -6 CURVE SMOOTH",
"482 -6 OFFCURVE",
"616 53 OFFCURVE",
"681 159 CURVE",
"615 200 LINE",
"558 112 OFFCURVE",
"467 75 OFFCURVE",
"398 75 CURVE SMOOTH",
"287 75 OFFCURVE",
"220 178 OFFCURVE",
"220 299 CURVE SMOOTH",
"220 450 OFFCURVE",
"341 633 OFFCURVE",
"514 633 CURVE SMOOTH",
"581 633 OFFCURVE",
"653 603 OFFCURVE",
"673 513 CURVE",
"754 559 LINE",
"731 650 OFFCURVE",
"655 714 OFFCURVE",
"535 714 CURVE SMOOTH",
"301 714 OFFCURVE",
"129 489 OFFCURVE"
);
}
);
width = 757;
}
);
unicode = 20AC;
},
{
glyphname = cent;
layers = (
{
layerId = "4E0115BC-0505-415D-92F6-F9BAC1931694";
name = Regular;
paths = (
{
closed = 1;
nodes = (
"220 -120 LINE",
"243 -10 LINE",
"310 -10 OFFCURVE",
"422 34 OFFCURVE",
"473 121 CURVE",
"392 147 LINE",
"370 102 OFFCURVE",
"304 72 OFFCURVE",
"260 68 CURVE",
"341 452 LINE",
"387 449 OFFCURVE",
"423 425 OFFCURVE",
"438 377 CURVE",
"529 404 LINE",
"507 481 OFFCURVE",
"449 527 OFFCURVE",
"358 530 CURVE",
"382 645 LINE",
"339 645 LINE",
"314 530 LINE",
"147 511 OFFCURVE",
"28 359 OFFCURVE",
"28 211 CURVE SMOOTH",
"28 104 OFFCURVE",
"91 0 OFFCURVE",
"200 -9 CURVE",
"176 -120 LINE"
);
},
{
closed = 1;
nodes = (
"119 221 CURVE SMOOTH",
"119 320 OFFCURVE",
"196 436 OFFCURVE",
"297 449 CURVE",
"217 72 LINE",
"156 85 OFFCURVE",
"119 149 OFFCURVE"
);
}
);
width = 548;
}
);
unicode = 00A2;
},
{
glyphname = colonmonetary;
layers = (
{
layerId = "4E0115BC-0505-415D-92F6-F9BAC1931694";
name = Regular;
paths = (
{
closed = 1;
nodes = (
"24 210 CURVE SMOOTH",
"24 89 OFFCURVE",
"99 -10 OFFCURVE",
"227 -10 CURVE SMOOTH",
"328 -10 OFFCURVE",
"422 45 OFFCURVE",
"468 121 CURVE",
"387 147 LINE",
"363 103 OFFCURVE",
"298 66 OFFCURVE",
"241 66 CURVE SMOOTH",
"166 66 OFFCURVE",
"115 133 OFFCURVE",
"115 221 CURVE SMOOTH",
"115 350 OFFCURVE",
"217 455 OFFCURVE",
"323 455 CURVE SMOOTH",
"377 455 OFFCURVE",
"418 426 OFFCURVE",
"433 377 CURVE",
"524 404 LINE",
"504 481 OFFCURVE",
"440 531 OFFCURVE",
"341 531 CURVE SMOOTH",
"165 531 OFFCURVE",
"24 378 OFFCURVE"
);
},
{
closed = 1;
nodes = (
"436 645 LINE",
"392 645 LINE",
"355 473 LINE",
"399 473 LINE"
);
},
{
closed = 1;
nodes = (
"255 473 LINE",
"298 473 LINE",
"335 645 LINE",
"291 645 LINE"
);
},
{
closed = 1;
nodes = (
"309 52 LINE",
"266 52 LINE",
"229 -120 LINE",
"273 -120 LINE"
);
},
{
closed = 1;
nodes = (
"129 -120 LINE",
"172 -120 LINE",
"209 52 LINE",
"165 52 LINE"
);
}
);
width = 536;
}
);
unicode = 20A1;
},
{
glyphname = currency;
layers = (
{
layerId = "4E0115BC-0505-415D-92F6-F9BAC1931694";
name = Regular;
paths = (
{
closed = 1;
nodes = (
"110 558 LINE",
"69 517 LINE",
"140 445 LINE",
"119 415 OFFCURVE",
"108 377 OFFCURVE",
"108 337 CURVE SMOOTH",
"108 297 OFFCURVE",
"120 260 OFFCURVE",
"141 229 CURVE",
"69 157 LINE",
"105 121 LINE",
"178 190 LINE",
"208 168 OFFCURVE",
"246 154 OFFCURVE",
"290 154 CURVE SMOOTH",
"334 154 OFFCURVE",
"372 168 OFFCURVE",
"401 190 CURVE",
"475 121 LINE",
"511 157 LINE",
"438 229 LINE",
"460 260 OFFCURVE",
"472 297 OFFCURVE",
"472 337 CURVE SMOOTH",
"472 377 OFFCURVE",
"460 415 OFFCURVE",
"439 445 CURVE",
"511 517 LINE",
"470 558 LINE",
"399 486 LINE",
"369 508 OFFCURVE",
"332 521 OFFCURVE",
"290 521 CURVE SMOOTH",
"247 521 OFFCURVE",
"210 508 OFFCURVE",
"181 486 CURVE"
);
},
{
closed = 1;
nodes = (
"180 336 CURVE SMOOTH",
"180 406 OFFCURVE",
"229 459 OFFCURVE",
"290 459 CURVE SMOOTH",
"351 459 OFFCURVE",
"400 407 OFFCURVE",
"400 338 CURVE SMOOTH",
"400 269 OFFCURVE",
"351 215 OFFCURVE",
"290 215 CURVE SMOOTH",
"229 215 OFFCURVE",
"180 268 OFFCURVE"
);
}
);
width = 567;
}
);
unicode = 00A4;
},
{
glyphname = dollar;
layers = (
{
layerId = "4E0115BC-0505-415D-92F6-F9BAC1931694";
name = Regular;
paths = (
{
closed = 1;
nodes = (
"192 -107 LINE",
"235 -107 LINE",
"266 38 LINE",
"223 39 LINE"
);
},
{
closed = 1;
nodes = (
"262 48 LINE",
"393 666 LINE",
"360 659 LINE",
"230 50 LINE"
);
},
{
closed = 1;
nodes = (
"356 665 LINE",
"401 672 LINE",
"431 815 LINE",
"388 815 LINE"
);
},
{
closed = 1;
nodes = (
"597 634 LINE",
"551 683 OFFCURVE",
"483 715 OFFCURVE",
"392 715 CURVE SMOOTH",
"232 715 OFFCURVE",
"99 623 OFFCURVE",
"99 469 CURVE SMOOTH",
"99 384 OFFCURVE",
"161 348 OFFCURVE",
"271 318 CURVE SMOOTH",
"375 290 OFFCURVE",
"438 266 OFFCURVE",
"438 201 CURVE SMOOTH",
"438 121 OFFCURVE",
"372 74 OFFCURVE",
"264 74 CURVE SMOOTH",
"162 74 OFFCURVE",
"79 124 OFFCURVE",
"50 169 CURVE",
"-9 93 LINE",
"53 28 OFFCURVE",
"142 -7 OFFCURVE",
"245 -7 CURVE SMOOTH",
"404 -7 OFFCURVE",
"538 69 OFFCURVE",
"538 229 CURVE SMOOTH",
"538 327 OFFCURVE",
"464 365 OFFCURVE",
"349 394 CURVE SMOOTH",
"249 419 OFFCURVE",
"198 439 OFFCURVE",
"198 498 CURVE SMOOTH",
"198 577 OFFCURVE",
"252 635 OFFCURVE",
"373 635 CURVE SMOOTH",
"453 635 OFFCURVE",
"518 598 OFFCURVE",
"540 561 CURVE"
);
}
);
width = 596;
}
);
unicode = 0024;
},
{
glyphname = florin;
layers = (
{
layerId = "4E0115BC-0505-415D-92F6-F9BAC1931694";
name = Regular;
paths = (
{
closed = 1;
nodes = (
"42 -186 CURVE SMOOTH",
"124 -186 OFFCURVE",
"212 -118 OFFCURVE",
"233 -21 CURVE SMOOTH",
"321 392 LINE",
"452 392 LINE",
"467 461 LINE",
"336 461 LINE",
"352 536 LINE SMOOTH",
"370 619 OFFCURVE",
"408 665 OFFCURVE",
"462 665 CURVE SMOOTH",
"487 665 OFFCURVE",
"514 656 OFFCURVE",
"529 643 CURVE",
"564 708 LINE",
"537 728 OFFCURVE",
"499 740 OFFCURVE",
"460 740 CURVE SMOOTH",
"366 740 OFFCURVE",
"290 661 OFFCURVE",
"263 533 CURVE SMOOTH",
"248 461 LINE",
"180 461 LINE",
"166 392 LINE",
"233 392 LINE",
"145 -23 LINE SMOOTH",
"135 -72 OFFCURVE",
"89 -108 OFFCURVE",
"49 -108 CURVE SMOOTH",
"26 -108 OFFCURVE",
"3 -102 OFFCURVE",
"-11 -85 CURVE",
"-64 -144 LINE",
"-39 -173 OFFCURVE",
"-1 -186 OFFCURVE"
);
}
);
width = 512;
}
);
unicode = 0192;
},
{
glyphname = franc;
layers = (
{
layerId = "4E0115BC-0505-415D-92F6-F9BAC1931694";
name = Regular;
paths = (
{
closed = 1;
nodes = (
"142 0 LINE",
"210 318 LINE",
"510 318 LINE",
"526 393 LINE",
"226 393 LINE",
"276 630 LINE",
"633 630 LINE",
"650 710 LINE",
"203 710 LINE",
"52 0 LINE"
);
},
{
closed = 1;
nodes = (
"281 127 LINE",
"295 195 LINE",
"8 195 LINE",
"-6 127 LINE"
);
}
);
width = 589;
}
);
unicode = 20A3;
},
{
glyphname = lira;
layers = (
{
layerId = "4E0115BC-0505-415D-92F6-F9BAC1931694";
name = Regular;
paths = (
{
closed = 1;
nodes = (
"62 352 LINE",
"395 352 LINE",
"406 404 LINE",
"73 404 LINE"
);
},
{
closed = 1;
nodes = (
"281 -15 CURVE SMOOTH",
"316 -15 OFFCURVE",
"357 -5 OFFCURVE",
"392 12 CURVE",
"385 79 LINE",
"350 67 OFFCURVE",
"325 61 OFFCURVE",
"301 61 CURVE SMOOTH",
"256 61 OFFCURVE",
"223 79 OFFCURVE",
"172 79 CURVE SMOOTH",
"150 79 OFFCURVE",
"126 76 OFFCURVE",
"100 69 CURVE",
"218 178 OFFCURVE",
"239 230 OFFCURVE",
"239 307 CURVE SMOOTH",
"239 388 OFFCURVE",
"202 451 OFFCURVE",
"202 512 CURVE SMOOTH",
"202 584 OFFCURVE",
"262 642 OFFCURVE",
"327 642 CURVE SMOOTH",
"377 642 OFFCURVE",
"424 608 OFFCURVE",
"443 556 CURVE",
"503 610 LINE",
"475 675 OFFCURVE",
"416 715 OFFCURVE",
"344 715 CURVE SMOOTH",
"232 715 OFFCURVE",
"122 623 OFFCURVE",
"122 512 CURVE SMOOTH",
"122 442 OFFCURVE",
"160 376 OFFCURVE",
"160 298 CURVE SMOOTH",
"160 216 OFFCURVE",
"122 158 OFFCURVE",
"0 56 CURVE",
"8 -8 LINE",
"45 3 OFFCURVE",
"90 10 OFFCURVE",
"121 10 CURVE SMOOTH",
"181 10 OFFCURVE",
"224 -15 OFFCURVE"
);
},
{
closed = 1;
nodes = (
"38 241 LINE",
"371 241 LINE",
"382 293 LINE",
"49 293 LINE"
);
}
);
width = 481;
}
);
unicode = 20A4;
},
{
glyphname = sterling;
layers = (
{
layerId = "4E0115BC-0505-415D-92F6-F9BAC1931694";
name = Regular;
paths = (
{
closed = 1;
nodes = (
"55 307 LINE",
"389 307 LINE",
"404 375 LINE",
"69 375 LINE"
);
},
{
closed = 1;
nodes = (
"9 -8 LINE",
"46 3 OFFCURVE",
"91 10 OFFCURVE",
"122 10 CURVE SMOOTH",
"182 10 OFFCURVE",
"225 -15 OFFCURVE",
"282 -15 CURVE SMOOTH",
"317 -15 OFFCURVE",
"358 -5 OFFCURVE",
"393 12 CURVE",
"386 79 LINE",
"351 67 OFFCURVE",
"326 61 OFFCURVE",
"302 61 CURVE SMOOTH",
"257 61 OFFCURVE",
"224 79 OFFCURVE",
"173 79 CURVE SMOOTH",
"151 79 OFFCURVE",
"127 76 OFFCURVE",
"101 69 CURVE",
"219 178 OFFCURVE",
"240 230 OFFCURVE",
"240 307 CURVE SMOOTH",
"240 388 OFFCURVE",
"203 451 OFFCURVE",
"203 512 CURVE SMOOTH",
"203 584 OFFCURVE",
"263 642 OFFCURVE",
"328 642 CURVE SMOOTH",
"378 642 OFFCURVE",
"425 608 OFFCURVE",
"444 556 CURVE",
"504 610 LINE",
"476 675 OFFCURVE",
"417 715 OFFCURVE",
"345 715 CURVE SMOOTH",
"233 715 OFFCURVE",
"123 623 OFFCURVE",
"123 512 CURVE SMOOTH",
"123 442 OFFCURVE",
"161 376 OFFCURVE",
"161 298 CURVE SMOOTH",
"161 216 OFFCURVE",
"123 158 OFFCURVE",
"1 56 CURVE"
);
}
);
width = 491;
}
);
unicode = 00A3;
},
{
glyphname = uni20A6;
layers = (
{
layerId = "4E0115BC-0505-415D-92F6-F9BAC1931694";
name = Regular;
paths = (
{
closed = 1;
nodes = (
"782 317 LINE",
"41 317 LINE",
"30 265 LINE",
"771 265 LINE"
);
},
{
closed = 1;
nodes = (
"805 428 LINE",
"65 428 LINE",
"54 376 LINE",
"794 376 LINE"
);
},
{
closed = 1;
nodes = (
"555 0 LINE",
"631 0 LINE",
"782 709 LINE",
"692 709 LINE",
"574 157 LINE",
"281 710 LINE",
"211 710 LINE",
"60 0 LINE",
"150 0 LINE",
"265 542 LINE"
);
}
);
width = 817;
}
);
unicode = 20A6;
},
{
glyphname = uni20A9;
layers = (
{
layerId = "4E0115BC-0505-415D-92F6-F9BAC1931694";
name = Regular;
paths = (
{
closed = 1;
nodes = (
"514 357 LINE",
"49 357 LINE",
"38 305 LINE",
"503 305 LINE"
);
},
{
closed = 1;
nodes = (
"580 305 LINE",
"1045 305 LINE",
"1056 357 LINE",
"591 357 LINE"
);
},
{
closed = 1;
nodes = (
"540 478 LINE",
"75 478 LINE",
"64 426 LINE",
"529 426 LINE"
);
},
{
closed = 1;
nodes = (
"605 426 LINE",
"1071 426 LINE",
"1082 478 LINE",
"617 478 LINE"
);
},
{
closed = 1;
nodes = (
"504 397 LINE",
"330 104 LINE",
"234 710 LINE",
"137 710 LINE",
"266 0 LINE",
"344 0 LINE",
"548 335 LINE",
"609 0 LINE",
"687 0 LINE",
"1119 710 LINE",
"1021 710 LINE",
"668 104 LINE",
"618 397 LINE",
"800 706 LINE",
"715 706 LINE",
"574 459 LINE",
"538 706 LINE",
"453 706 LINE"
);
}
);
width = 1081;
}
);
unicode = 20A9;
},
{
glyphname = uni20B9;
layers = (
{
layerId = "4E0115BC-0505-415D-92F6-F9BAC1931694";
name = Regular;
paths = (
{
closed = 1;
nodes = (
"107 630 LINE",
"206 630 LINE SMOOTH",
"259 630 OFFCURVE",
"297 577 OFFCURVE",
"297 512 CURVE SMOOTH",
"297 425 OFFCURVE",
"229 335 OFFCURVE",
"148 335 CURVE SMOOTH",
"72 335 LINE",
"203 0 LINE",
"305 0 LINE",
"199 272 LINE",
"306 299 OFFCURVE",
"390 411 OFFCURVE",
"390 522 CURVE SMOOTH",
"390 618 OFFCURVE",
"330 710 OFFCURVE",
"228 710 CURVE SMOOTH",
"125 710 LINE"
);
},
{
closed = 1;
nodes = (
"501 589 LINE",
"99 589 LINE",
"88 537 LINE",
"490 537 LINE"
);
},
{
closed = 1;
nodes = (
"527 710 LINE",
"125 710 LINE",
"113 658 LINE",
"516 658 LINE"
);
}
);
width = 478;
}
);
unicode = 20B9;
},
{
glyphname = yen;
layers = (
{
layerId = "4E0115BC-0505-415D-92F6-F9BAC1931694";
name = Regular;
paths = (
{
closed = 1;
nodes = (
"712 710 LINE",
"613 710 LINE",
"332 340 LINE",
"211 710 LINE",
"113 710 LINE",
"233 377 LINE",
"155 377 LINE",
"142 317 LINE",
"252 317 LINE",
"271 261 LINE",
"264 231 LINE",
"124 231 LINE",
"111 171 LINE",
"251 171 LINE",
"215 0 LINE",
"305 0 LINE",
"341 171 LINE",
"484 171 LINE",
"496 231 LINE",
"354 231 LINE",
"360 259 LINE",
"405 317 LINE",
"514 317 LINE",
"527 377 LINE",
"450 377 LINE"
);
}
);
width = 660;
}
);
unicode = 00A5;
},
{
glyphname = approxequal;
layers = (
{
layerId = "4E0115BC-0505-415D-92F6-F9BAC1931694";
name = Regular;
paths = (
{
closed = 1;
nodes = (
"369 335 LINE",
"351 310 OFFCURVE",
"322 289 OFFCURVE",
"277 289 CURVE SMOOTH",
"217 289 OFFCURVE",
"191 331 OFFCURVE",
"148 331 CURVE SMOOTH",
"121 331 OFFCURVE",
"107 318 OFFCURVE",
"100 305 CURVE",
"60 349 LINE",
"76 374 OFFCURVE",
"102 396 OFFCURVE",
"146 396 CURVE SMOOTH",
"203 396 OFFCURVE",
"226 353 OFFCURVE",
"275 353 CURVE SMOOTH",
"305 353 OFFCURVE",
"321 364 OFFCURVE",
"331 375 CURVE"
);
},
{
closed = 1;
nodes = (
"369 198 LINE",
"351 176 OFFCURVE",
"322 157 OFFCURVE",
"277 157 CURVE SMOOTH",
"217 157 OFFCURVE",
"191 199 OFFCURVE",
"148 199 CURVE SMOOTH",
"121 199 OFFCURVE",
"107 186 OFFCURVE",
"100 173 CURVE",
"60 217 LINE",
"76 242 OFFCURVE",
"102 264 OFFCURVE",
"146 264 CURVE SMOOTH",
"203 264 OFFCURVE",
"226 221 OFFCURVE",
"275 221 CURVE SMOOTH",
"305 221 OFFCURVE",
"321 231 OFFCURVE",
"331 243 CURVE"
);
}
);
width = 442;
}
);
unicode = 2248;
},
{
glyphname = asciitilde;
layers = (
{
layerId = "4E0115BC-0505-415D-92F6-F9BAC1931694";
name = Regular;
paths = (
{
closed = 1;
nodes = (
"49 237 CURVE",
"101 237 LINE",
"101 239 OFFCURVE",
"126 293 OFFCURVE",
"174 293 CURVE SMOOTH",
"223 293 OFFCURVE",
"254 237 OFFCURVE",
"319 237 CURVE SMOOTH",
"409 237 OFFCURVE",
"458 336 OFFCURVE",
"460 344 CURVE",
"409 344 LINE",
"408 339 OFFCURVE",
"382 292 OFFCURVE",
"332 292 CURVE SMOOTH",
"278 292 OFFCURVE",
"248 349 OFFCURVE",
"186 349 CURVE SMOOTH",
"102 349 OFFCURVE",
"53 253 OFFCURVE"
);
}
);
width = 513;
}
);
unicode = 007E;
},
{
glyphname = divide;
layers = (
{
layerId = "4E0115BC-0505-415D-92F6-F9BAC1931694";
name = Regular;
paths = (
{
closed = 1;
nodes = (
"300 405 LINE",
"300 507 LINE",
"225 507 LINE",
"225 405 LINE"
);
},
{
closed = 1;
nodes = (
"300 66 LINE",
"300 168 LINE",
"225 168 LINE",
"225 66 LINE"
);
},
{
closed = 1;
nodes = (
"464 251 LINE",
"464 323 LINE",
"61 323 LINE",
"61 251 LINE"
);
}
);
width = 533;
}
);
unicode = 00F7;
},
{
glyphname = equal;
layers = (
{
layerId = "4E0115BC-0505-415D-92F6-F9BAC1931694";
name = Regular;
paths = (
{
closed = 1;
nodes = (
"386 179 LINE",
"386 239 LINE",
"81 239 LINE",
"81 179 LINE"
);
},
{
closed = 1;
nodes = (
"386 313 LINE",
"386 373 LINE",
"81 373 LINE",
"81 313 LINE"
);
}
);
width = 479;
}
);
unicode = 003D;
},
{
glyphname = greater;
layers = (
{
layerId = "4E0115BC-0505-415D-92F6-F9BAC1931694";
name = Regular;
paths = (
{
closed = 1;
nodes = (
"498 280 LINE",
"78 533 LINE",
"78 439 LINE",
"370 259 LINE",
"78 82 LINE",
"78 -16 LINE",
"498 234 LINE"
);
}
);
width = 546;
}
);
unicode = 003E;
},
{
glyphname = greaterequal;
layers = (
{
layerId = "4E0115BC-0505-415D-92F6-F9BAC1931694";
name = Regular;
paths = (
{
closed = 1;
nodes = (
"70 51 LINE",
"402 51 LINE",
"402 123 LINE",
"70 123 LINE"
);
},
{
closed = 1;
nodes = (
"73 184 LINE",
"403 344 LINE",
"403 390 LINE",
"73 553 LINE",
"73 469 LINE",
"275 369 LINE",
"73 272 LINE"
);
}
);
width = 481;
}
);
unicode = 2265;
},
{
glyphname = infinity;
layers = (
{
layerId = "4E0115BC-0505-415D-92F6-F9BAC1931694";
name = Regular;
paths = (
{
closed = 1;
nodes = (
"213 517 CURVE SMOOTH",
"122 517 OFFCURVE",
"53 443 OFFCURVE",
"53 352 CURVE SMOOTH",
"53 261 OFFCURVE",
"132 186 OFFCURVE",
"213 186 CURVE SMOOTH",
"291 186 OFFCURVE",
"328 224 OFFCURVE",
"355 269 CURVE",
"383 224 OFFCURVE",
"420 186 OFFCURVE",
"492 186 CURVE SMOOTH",
"583 186 OFFCURVE",
"652 260 OFFCURVE",
"652 351 CURVE SMOOTH",
"652 442 OFFCURVE",
"590 517 OFFCURVE",
"493 517 CURVE SMOOTH",
"417 517 OFFCURVE",
"382 475 OFFCURVE",
"353 425 CURVE",
"324 475 OFFCURVE",
"288 517 OFFCURVE"
);
},
{
closed = 1;
nodes = (
"213 256 CURVE SMOOTH",
"170 256 OFFCURVE",
"123 284 OFFCURVE",
"123 352 CURVE SMOOTH",
"123 419 OFFCURVE",
"170 446 OFFCURVE",
"213 446 CURVE SMOOTH",
"271 446 OFFCURVE",
"299 402 OFFCURVE",
"325 350 CURVE",
"299 299 OFFCURVE",
"270 256 OFFCURVE"
);
},
{
closed = 1;
nodes = (
"493 256 CURVE SMOOTH",
"437 256 OFFCURVE",
"408 297 OFFCURVE",
"383 346 CURVE",
"407 400 OFFCURVE",
"433 446 OFFCURVE",
"493 446 CURVE SMOOTH",
"536 446 OFFCURVE",
"582 419 OFFCURVE",
"582 352 CURVE SMOOTH",
"582 284 OFFCURVE",
"536 256 OFFCURVE"
);
}
);
width = 688;
}
);
unicode = 221E;
},
{
glyphname = integral;
layers = (
{
layerId = "4E0115BC-0505-415D-92F6-F9BAC1931694";
name = Regular;
paths = (
{
closed = 1;
nodes = (
"142 -12 LINE SMOOTH",
"143 -37 OFFCURVE",
"143 -39 OFFCURVE",
"143 -40 CURVE SMOOTH",
"143 -75 OFFCURVE",
"121 -97 OFFCURVE",
"87 -97 CURVE SMOOTH",
"72 -97 OFFCURVE",
"51 -92 OFFCURVE",
"33 -85 CURVE",
"12 -146 LINE",
"42 -158 OFFCURVE",
"86 -167 OFFCURVE",
"117 -167 CURVE SMOOTH",
"183 -167 OFFCURVE",
"222 -130 OFFCURVE",
"222 -66 CURVE SMOOTH",
"222 -63 OFFCURVE",
"222 -60 OFFCURVE",
"220 -22 CURVE SMOOTH",
"183 653 LINE SMOOTH",
"181 693 OFFCURVE",
"180 699 OFFCURVE",
"180 711 CURVE SMOOTH",
"180 737 OFFCURVE",
"203 750 OFFCURVE",
"237 750 CURVE SMOOTH",
"252 750 OFFCURVE",
"274 745 OFFCURVE",
"292 738 CURVE",
"313 799 LINE",
"283 811 OFFCURVE",
"238 820 OFFCURVE",
"207 820 CURVE SMOOTH",
"139 820 OFFCURVE",
"100 787 OFFCURVE",
"100 737 CURVE SMOOTH",
"100 729 OFFCURVE",
"101 716 OFFCURVE",
"104 669 CURVE SMOOTH"
);
}
);
width = 311;
}
);
unicode = 222B;
},
{
glyphname = less;
layers = (
{
layerId = "4E0115BC-0505-415D-92F6-F9BAC1931694";
name = Regular;
paths = (
{
closed = 1;
nodes = (
"30 234 LINE",
"450 -16 LINE",
"450 82 LINE",
"158 259 LINE",
"450 439 LINE",
"450 533 LINE",
"30 280 LINE"
);
}
);
width = 547;
}
);
unicode = 003C;
},
{
glyphname = lessequal;
layers = (
{
layerId = "4E0115BC-0505-415D-92F6-F9BAC1931694";
name = Regular;
paths = (
{
closed = 1;
nodes = (
"383 51 LINE",
"383 123 LINE",
"51 123 LINE",
"51 51 LINE"
);
},
{
closed = 1;
nodes = (
"50 344 LINE",
"380 184 LINE",
"380 272 LINE",
"178 369 LINE",
"380 469 LINE",
"380 553 LINE",
"50 390 LINE"
);
}
);
width = 460;
}
);
unicode = 2264;
},
{
glyphname = logicalnot;
layers = (
{
layerId = "4E0115BC-0505-415D-92F6-F9BAC1931694";
name = Regular;
paths = (
{
closed = 1;
nodes = (
"82 375 LINE",
"65 295 LINE",
"424 295 LINE",
"387 120 LINE",
"462 120 LINE",
"517 375 LINE"
);
}
);
width = 571;
}
);
unicode = 00AC;
},
{
glyphname = minus;
layers = (
{
layerId = "4E0115BC-0505-415D-92F6-F9BAC1931694";
name = Regular;
paths = (
{
closed = 1;
nodes = (
"477 269 LINE",
"477 341 LINE",
"74 341 LINE",
"74 269 LINE"
);
}
);
width = 551;
}
);
unicode = 2212;
},
{
glyphname = multiply;
layers = (
{
layerId = "4E0115BC-0505-415D-92F6-F9BAC1931694";
name = Regular;
paths = (
{
closed = 1;
nodes = (
"284 273 LINE",
"397 387 LINE",
"342 443 LINE",
"228 329 LINE",
"115 442 LINE",
"59 387 LINE",
"172 273 LINE",
"57 158 LINE",
"112 102 LINE",
"228 218 LINE",
"344 102 LINE",
"400 157 LINE"
);
}
);
width = 471;
}
);
unicode = 00D7;
},
{
glyphname = notequal;
layers = (
{
layerId = "4E0115BC-0505-415D-92F6-F9BAC1931694";
name = Regular;
paths = (
{
closed = 1;
nodes = (
"142 57 LINE",
"369 473 LINE",
"331 495 LINE",
"104 79 LINE"
);
},
{
closed = 1;
nodes = (
"84 179 LINE",
"389 179 LINE",
"389 239 LINE",
"84 239 LINE"
);
},
{
closed = 1;
nodes = (
"84 313 LINE",
"389 313 LINE",
"389 373 LINE",
"84 373 LINE"
);
}
);
width = 485;
}
);
unicode = 2260;
},
{
glyphname = partialdiff;
layers = (
{
layerId = "4E0115BC-0505-415D-92F6-F9BAC1931694";
name = Regular;
paths = (
{
closed = 1;
nodes = (
"250 -10 CURVE SMOOTH",
"409 -10 OFFCURVE",
"518 130 OFFCURVE",
"518 399 CURVE SMOOTH",
"518 623 OFFCURVE",
"443 715 OFFCURVE",
"298 715 CURVE SMOOTH",
"219 715 OFFCURVE",
"144 688 OFFCURVE",
"101 639 CURVE",
"150 586 LINE",
"176 617 OFFCURVE",
"235 638 OFFCURVE",
"290 638 CURVE SMOOTH",
"379 638 OFFCURVE",
"435 584 OFFCURVE",
"435 419 CURVE SMOOTH",
"435 397 OFFCURVE",
"434 369 OFFCURVE",
"431 340 CURVE",
"411 397 OFFCURVE",
"351 434 OFFCURVE",
"276 434 CURVE SMOOTH",
"144 434 OFFCURVE",
"31 321 OFFCURVE",
"31 195 CURVE SMOOTH",
"31 81 OFFCURVE",
"122 -10 OFFCURVE"
);
},
{
closed = 1;
nodes = (
"252 66 CURVE SMOOTH",
"174 66 OFFCURVE",
"115 126 OFFCURVE",
"115 202 CURVE SMOOTH",
"115 289 OFFCURVE",
"192 363 OFFCURVE",
"278 363 CURVE SMOOTH",
"355 363 OFFCURVE",
"415 304 OFFCURVE",
"415 228 CURVE SMOOTH",
"415 142 OFFCURVE",
"339 66 OFFCURVE"
);
}
);
width = 560;
}
);
unicode = 2202;
},
{
glyphname = percent;
layers = (
{
layerId = "4E0115BC-0505-415D-92F6-F9BAC1931694";
name = Regular;
paths = (
{
closed = 1;
nodes = (
"212 428 CURVE SMOOTH",
"305 428 OFFCURVE",
"394 507 OFFCURVE",
"394 599 CURVE SMOOTH",
"394 667 OFFCURVE",
"346 720 OFFCURVE",
"274 720 CURVE SMOOTH",
"182 720 OFFCURVE",
"92 641 OFFCURVE",
"92 549 CURVE SMOOTH",
"92 481 OFFCURVE",
"141 428 OFFCURVE"
);
},
{
closed = 1;
nodes = (
"222 476 CURVE SMOOTH",
"183 476 OFFCURVE",
"157 511 OFFCURVE",
"157 555 CURVE SMOOTH",
"157 615 OFFCURVE",
"211 672 OFFCURVE",
"264 672 CURVE SMOOTH",
"302 672 OFFCURVE",
"329 637 OFFCURVE",
"329 593 CURVE SMOOTH",
"329 533 OFFCURVE",
"275 476 OFFCURVE"
);
},
{
closed = 1;
nodes = (
"456 -10 CURVE SMOOTH",
"549 -10 OFFCURVE",
"637 69 OFFCURVE",
"637 161 CURVE SMOOTH",
"637 229 OFFCURVE",
"590 282 OFFCURVE",
"518 282 CURVE SMOOTH",
"426 282 OFFCURVE",
"336 203 OFFCURVE",
"336 111 CURVE SMOOTH",
"336 43 OFFCURVE",
"385 -10 OFFCURVE"
);
},
{
closed = 1;
nodes = (
"466 38 CURVE SMOOTH",
"427 38 OFFCURVE",
"400 73 OFFCURVE",
"400 117 CURVE SMOOTH",
"400 177 OFFCURVE",
"454 234 OFFCURVE",
"507 234 CURVE SMOOTH",
"545 234 OFFCURVE",
"573 199 OFFCURVE",
"573 155 CURVE SMOOTH",
"573 94 OFFCURVE",
"519 38 OFFCURVE"
);
},
{
closed = 1;
nodes = (
"49 -5 LINE",
"381 343 LINE",
"715 678 LINE",
"680 715 LINE",
"353 370 LINE",
"15 33 LINE"
);
}
);
width = 707;
}
);
unicode = 0025;
},
{
glyphname = perthousand;
layers = (
{
layerId = "4E0115BC-0505-415D-92F6-F9BAC1931694";
name = Regular;
paths = (
{
closed = 1;
nodes = (
"220 428 CURVE SMOOTH",
"310 428 OFFCURVE",
"400 507 OFFCURVE",
"400 599 CURVE SMOOTH",
"400 667 OFFCURVE",
"352 720 OFFCURVE",
"279 720 CURVE SMOOTH",
"189 720 OFFCURVE",
"98 641 OFFCURVE",
"98 548 CURVE SMOOTH",
"98 481 OFFCURVE",
"146 428 OFFCURVE"
);
},
{
closed = 1;
nodes = (
"230 476 CURVE SMOOTH",
"190 476 OFFCURVE",
"163 511 OFFCURVE",
"163 554 CURVE SMOOTH",
"163 615 OFFCURVE",
"217 672 OFFCURVE",
"268 672 CURVE SMOOTH",
"308 672 OFFCURVE",
"335 637 OFFCURVE",
"335 594 CURVE SMOOTH",
"335 533 OFFCURVE",
"281 476 OFFCURVE"
);
},
{
closed = 1;
nodes = (
"464 -10 CURVE SMOOTH",
"554 -10 OFFCURVE",
"643 69 OFFCURVE",
"643 162 CURVE SMOOTH",
"643 229 OFFCURVE",
"596 282 OFFCURVE",
"522 282 CURVE SMOOTH",
"432 282 OFFCURVE",
"342 203 OFFCURVE",
"342 111 CURVE SMOOTH",
"342 43 OFFCURVE",
"390 -10 OFFCURVE"
);
},
{
closed = 1;
nodes = (
"473 38 CURVE SMOOTH",
"433 38 OFFCURVE",
"406 73 OFFCURVE",
"406 116 CURVE SMOOTH",
"406 177 OFFCURVE",
"460 234 OFFCURVE",
"512 234 CURVE SMOOTH",
"552 234 OFFCURVE",
"579 199 OFFCURVE",
"579 156 CURVE SMOOTH",
"579 95 OFFCURVE",
"525 38 OFFCURVE"
);
},
{
closed = 1;
nodes = (
"809 -10 CURVE SMOOTH",
"899 -10 OFFCURVE",
"988 69 OFFCURVE",
"988 162 CURVE SMOOTH",
"988 229 OFFCURVE",
"941 282 OFFCURVE",
"868 282 CURVE SMOOTH",
"778 282 OFFCURVE",
"687 203 OFFCURVE",
"687 110 CURVE SMOOTH",
"687 43 OFFCURVE",
"735 -10 OFFCURVE"
);
},
{
closed = 1;
nodes = (
"818 38 CURVE SMOOTH",
"778 38 OFFCURVE",
"751 73 OFFCURVE",
"751 116 CURVE SMOOTH",
"751 177 OFFCURVE",
"805 234 OFFCURVE",
"857 234 CURVE SMOOTH",
"897 234 OFFCURVE",
"924 199 OFFCURVE",
"924 156 CURVE SMOOTH",
"924 95 OFFCURVE",
"870 38 OFFCURVE"
);
},
{
closed = 1;
nodes = (
"55 -5 LINE",
"387 343 LINE",
"721 678 LINE",
"686 715 LINE",
"359 370 LINE",
"21 33 LINE"
);
}
);
width = 1053;
}
);
unicode = 2030;
},
{
glyphname = plus;
layers = (
{
layerId = "4E0115BC-0505-415D-92F6-F9BAC1931694";
name = Regular;
paths = (
{
closed = 1;
nodes = (
"257 391 LINE",
"257 519 LINE",
"177 519 LINE",
"177 391 LINE",
"59 391 LINE",
"59 319 LINE",
"177 319 LINE",
"177 191 LINE",
"257 191 LINE",
"257 319 LINE",
"375 319 LINE",
"375 391 LINE"
);
}
);
width = 416;
}
);
unicode = 002B;
},
{
glyphname = plusminus;
layers = (
{
layerId = "4E0115BC-0505-415D-92F6-F9BAC1931694";
name = Regular;
paths = (
{
closed = 1;
nodes = (
"396 51 LINE",
"396 123 LINE",
"64 123 LINE",
"64 51 LINE"
);
},
{
closed = 1;
nodes = (
"270 404 LINE",
"270 540 LINE",
"190 540 LINE",
"190 404 LINE",
"64 404 LINE",
"64 332 LINE",
"190 332 LINE",
"190 196 LINE",
"270 196 LINE",
"270 332 LINE",
"396 332 LINE",
"396 404 LINE"
);
}
);
width = 485;
}
);
unicode = 00B1;
},
{
glyphname = product;
layers = (
{
layerId = "4E0115BC-0505-415D-92F6-F9BAC1931694";
name = Regular;
paths = (
{
closed = 1;
nodes = (
"572 -90 LINE",
"657 -90 LINE",
"657 630 LINE",
"737 630 LINE",
"737 710 LINE",
"76 710 LINE",
"76 630 LINE",
"156 630 LINE",
"156 -90 LINE",
"241 -90 LINE",
"241 630 LINE",
"572 630 LINE"
);
}
);
width = 776;
}
);
unicode = 220F;
},
{
glyphname = radical;
layers = (
{
layerId = "4E0115BC-0505-415D-92F6-F9BAC1931694";
name = Regular;
paths = (
{
closed = 1;
nodes = (
"281 0 LINE",
"433 790 LINE",
"349 790 LINE",
"237 77 LINE",
"174 365 LINE",
"83 365 LINE",
"187 0 LINE"
);
},
{
closed = 1;
nodes = (
"17 301 LINE",
"171 301 LINE",
"171 365 LINE",
"17 365 LINE"
);
}
);
width = 420;
}
);
unicode = 221A;
},
{
glyphname = summation;
layers = (
{
layerId = "4E0115BC-0505-415D-92F6-F9BAC1931694";
name = Regular;
paths = (
{
closed = 1;
nodes = (
"538 637 LINE",
"200 637 LINE",
"200 633 LINE",
"391 369 LINE",
"179 84 LINE",
"179 80 LINE",
"553 80 LINE",
"553 0 LINE",
"73 0 LINE",
"73 63 LINE",
"296 356 LINE",
"80 654 LINE",
"80 710 LINE",
"538 710 LINE"
);
}
);
width = 615;
}
);
unicode = 2211;
},
{
glyphname = uni2215;
layers = (
{
layerId = "4E0115BC-0505-415D-92F6-F9BAC1931694";
name = Regular;
paths = (
{
closed = 1;
nodes = (
"-18 -5 LINE",
"664 672 LINE",
"621 715 LINE",
"-61 38 LINE"
);
}
);
width = 579;
}
);
unicode = 2215;
},
{
glyphname = uni2219;
layers = (
{
layerId = "4E0115BC-0505-415D-92F6-F9BAC1931694";
name = Regular;
paths = (
{
closed = 1;
nodes = (
"124 245 LINE",
"150 369 LINE",
"76 369 LINE",
"50 245 LINE"
);
}
);
width = 199;
}
);
unicode = 2219;
},
{
glyphname = lozenge;
layers = (
{
layerId = "4E0115BC-0505-415D-92F6-F9BAC1931694";
name = Regular;
paths = (
{
closed = 1;
nodes = (
"228 730 LINE",
"42 366 LINE",
"228 0 LINE",
"322 0 LINE",
"508 366 LINE",
"322 730 LINE"
);
},
{
closed = 1;
nodes = (
"283 65 LINE",
"129 375 LINE",
"274 662 LINE",
"429 354 LINE"
);
}
);
width = 523;
}
);
unicode = 25CA;
},
{
glyphname = bar;
layers = (
{
layerId = "4E0115BC-0505-415D-92F6-F9BAC1931694";
name = Regular;
paths = (
{
closed = 1;
nodes = (
"194 -130 LINE",
"194 775 LINE",
"118 775 LINE",
"118 -130 LINE"
);
}
);
width = 302;
}
);
unicode = 007C;
},
{
glyphname = brokenbar;
layers = (
{
layerId = "4E0115BC-0505-415D-92F6-F9BAC1931694";
name = Regular;
paths = (
{
closed = 1;
nodes = (
"115 273 LINE",
"115 -130 LINE",
"191 -130 LINE",
"191 273 LINE"
);
},
{
closed = 1;
nodes = (
"115 775 LINE",
"115 372 LINE",
"191 372 LINE",
"191 775 LINE"
);
}
);
width = 296;
}
);
unicode = 00A6;
},
{
glyphname = at;
layers = (
{
layerId = "4E0115BC-0505-415D-92F6-F9BAC1931694";
name = Regular;
paths = (
{
closed = 1;
nodes = (
"569 28 CURVE SMOOTH",
"547 28 OFFCURVE",
"537 39 OFFCURVE",
"537 66 CURVE SMOOTH",
"537 74 OFFCURVE",
"538 86 OFFCURVE",
"541 99 CURVE SMOOTH",
"616 450 LINE",
"560 450 LINE",
"542 362 LINE",
"523 416 OFFCURVE",
"478 458 OFFCURVE",
"407 458 CURVE SMOOTH",
"282 458 OFFCURVE",
"164 325 OFFCURVE",
"164 183 CURVE SMOOTH",
"164 83 OFFCURVE",
"223 -1 OFFCURVE",
"322 -1 CURVE SMOOTH",
"382 -1 OFFCURVE",
"445 30 OFFCURVE",
"489 73 CURVE",
"487 65 OFFCURVE",
"487 57 OFFCURVE",
"487 50 CURVE SMOOTH",
"487 1 OFFCURVE",
"517 -16 OFFCURVE",
"556 -16 CURVE SMOOTH",
"702 -16 OFFCURVE",
"747 217 OFFCURVE",
"747 314 CURVE SMOOTH",
"747 461 OFFCURVE",
"645 603 OFFCURVE",
"463 603 CURVE SMOOTH",
"258 603 OFFCURVE",
"24 423 OFFCURVE",
"24 160 CURVE SMOOTH",
"24 -23 OFFCURVE",
"137 -146 OFFCURVE",
"300 -146 CURVE SMOOTH",
"353 -146 OFFCURVE",
"411 -133 OFFCURVE",
"468 -106 CURVE",
"463 -68 LINE",
"411 -91 OFFCURVE",
"364 -106 OFFCURVE",
"309 -106 CURVE SMOOTH",
"157 -106 OFFCURVE",
"66 11 OFFCURVE",
"66 164 CURVE SMOOTH",
"66 388 OFFCURVE",
"260 563 OFFCURVE",
"453 563 CURVE SMOOTH",
"620 563 OFFCURVE",
"705 432 OFFCURVE",
"705 302 CURVE SMOOTH",
"705 203 OFFCURVE",
"655 28 OFFCURVE"
);
},
{
closed = 1;
nodes = (
"347 49 CURVE SMOOTH",
"279 49 OFFCURVE",
"223 111 OFFCURVE",
"223 199 CURVE SMOOTH",
"223 314 OFFCURVE",
"320 407 OFFCURVE",
"406 407 CURVE SMOOTH",
"457 407 OFFCURVE",
"504 375 OFFCURVE",
"525 300 CURVE",
"501 163 LINE",
"478 103 OFFCURVE",
"411 49 OFFCURVE"
);
}
);
width = 808;
}
);
unicode = 0040;
},
{
glyphname = ampersand;
layers = (
{
layerId = "4E0115BC-0505-415D-92F6-F9BAC1931694";
name = Regular;
paths = (
{
closed = 1;
nodes = (
"184 -10 CURVE SMOOTH",
"346 -10 OFFCURVE",
"509 168 OFFCURVE",
"555 416 CURVE",
"477 416 LINE",
"442 215 OFFCURVE",
"322 60 OFFCURVE",
"203 60 CURVE SMOOTH",
"147 60 OFFCURVE",
"103 98 OFFCURVE",
"103 165 CURVE SMOOTH",
"103 250 OFFCURVE",
"178 306 OFFCURVE",
"278 365 CURVE",
"236 418 LINE",
"129 353 OFFCURVE",
"17 283 OFFCURVE",
"17 154 CURVE SMOOTH",
"17 59 OFFCURVE",
"86 -10 OFFCURVE"
);
},
{
closed = 1;
nodes = (
"469 0 LINE",
"578 0 LINE",
"288 415 LINE SMOOTH",
"240 484 OFFCURVE",
"228 521 OFFCURVE",
"228 548 CURVE SMOOTH",
"228 602 OFFCURVE",
"281 652 OFFCURVE",
"343 652 CURVE SMOOTH",
"393 652 OFFCURVE",
"437 612 OFFCURVE",
"456 560 CURVE",
"516 614 LINE",
"488 679 OFFCURVE",
"429 719 OFFCURVE",
"357 719 CURVE SMOOTH",
"244 719 OFFCURVE",
"145 637 OFFCURVE",
"145 534 CURVE SMOOTH",
"145 489 OFFCURVE",
"167 441 OFFCURVE",
"218 367 CURVE SMOOTH"
);
},
{
closed = 1;
nodes = (
"472 347 LINE",
"638 347 LINE",
"653 416 LINE",
"487 416 LINE"
);
}
);
width = 672;
}
);
unicode = 0026;
},
{
glyphname = paragraph;
layers = (
{
layerId = "4E0115BC-0505-415D-92F6-F9BAC1931694";
name = Regular;
paths = (
{
closed = 1;
nodes = (
"64 412 CURVE SMOOTH",
"64 298 OFFCURVE",
"134 226 OFFCURVE",
"255 224 CURVE",
"190 -80 LINE",
"266 -80 LINE",
"331 224 LINE",
"393 224 LINE",
"328 -80 LINE",
"404 -80 LINE",
"558 642 LINE",
"624 642 LINE",
"639 710 LINE",
"391 710 LINE SMOOTH",
"191 710 OFFCURVE",
"64 591 OFFCURVE"
);
},
{
closed = 1;
nodes = (
"141 428 CURVE SMOOTH",
"141 548 OFFCURVE",
"217 640 OFFCURVE",
"344 642 CURVE",
"269 292 LINE",
"196 297 OFFCURVE",
"141 341 OFFCURVE"
);
},
{
closed = 1;
nodes = (
"407 292 LINE",
"345 292 LINE",
"420 642 LINE",
"482 642 LINE"
);
}
);
width = 595;
}
);
unicode = 00B6;
},
{
glyphname = copyright;
layers = (
{
layerId = "4E0115BC-0505-415D-92F6-F9BAC1931694";
name = Regular;
paths = (
{
closed = 1;
nodes = (
"434 -7 CURVE SMOOTH",
"648 -7 OFFCURVE",
"807 148 OFFCURVE",
"807 355 CURVE SMOOTH",
"807 561 OFFCURVE",
"648 715 OFFCURVE",
"434 715 CURVE SMOOTH",
"222 715 OFFCURVE",
"65 561 OFFCURVE",
"65 355 CURVE SMOOTH",
"65 148 OFFCURVE",
"222 -7 OFFCURVE"
);
},
{
closed = 1;
nodes = (
"434 31 CURVE SMOOTH",
"245 31 OFFCURVE",
"105 171 OFFCURVE",
"105 354 CURVE SMOOTH",
"105 538 OFFCURVE",
"246 677 OFFCURVE",
"434 677 CURVE SMOOTH",
"625 677 OFFCURVE",
"766 538 OFFCURVE",
"766 353 CURVE SMOOTH",
"766 162 OFFCURVE",
"621 31 OFFCURVE"
);
},
{
closed = 1;
nodes = (
"442 121 CURVE SMOOTH",
"547 121 OFFCURVE",
"622 187 OFFCURVE",
"644 241 CURVE",
"559 267 LINE",
"538 223 OFFCURVE",
"485 197 OFFCURVE",
"439 197 CURVE SMOOTH",
"372 197 OFFCURVE",
"293 254 OFFCURVE",
"293 355 CURVE SMOOTH",
"293 434 OFFCURVE",
"342 514 OFFCURVE",
"437 514 CURVE SMOOTH",
"474 514 OFFCURVE",
"528 501 OFFCURVE",
"553 447 CURVE",
"638 474 LINE",
"606 548 OFFCURVE",
"530 590 OFFCURVE",
"437 590 CURVE SMOOTH",
"279 590 OFFCURVE",
"203 470 OFFCURVE",
"203 355 CURVE SMOOTH",
"203 216 OFFCURVE",
"312 121 OFFCURVE"
);
}
);
width = 849;
}
);
unicode = 00A9;
},
{
glyphname = registered;
layers = (
{
layerId = "4E0115BC-0505-415D-92F6-F9BAC1931694";
name = Regular;
paths = (
{
closed = 1;
nodes = (
"435 -7 CURVE SMOOTH",
"648 -7 OFFCURVE",
"807 148 OFFCURVE",
"807 355 CURVE SMOOTH",
"807 561 OFFCURVE",
"648 715 OFFCURVE",
"435 715 CURVE SMOOTH",
"222 715 OFFCURVE",
"65 561 OFFCURVE",
"65 355 CURVE SMOOTH",
"65 148 OFFCURVE",
"222 -7 OFFCURVE"
);
},
{
closed = 1;
nodes = (
"435 30 CURVE SMOOTH",
"245 30 OFFCURVE",
"107 171 OFFCURVE",
"107 355 CURVE SMOOTH",
"107 537 OFFCURVE",
"245 677 OFFCURVE",
"435 677 CURVE SMOOTH",
"625 677 OFFCURVE",
"765 537 OFFCURVE",
"765 354 CURVE SMOOTH",
"765 162 OFFCURVE",
"621 30 OFFCURVE"
);
},
{
closed = 1;
nodes = (
"280 130 LINE",
"345 130 LINE",
"345 292 LINE",
"446 292 LINE",
"548 130 LINE",
"621 130 LINE",
"512 302 LINE",
"569 316 OFFCURVE",
"608 373 OFFCURVE",
"608 435 CURVE SMOOTH",
"608 505 OFFCURVE",
"551 579 OFFCURVE",
"472 579 CURVE SMOOTH",
"280 579 LINE"
);
},
{
closed = 1;
nodes = (
"345 349 LINE",
"345 520 LINE",
"466 520 LINE SMOOTH",
"510 520 OFFCURVE",
"544 486 OFFCURVE",
"544 435 CURVE SMOOTH",
"544 385 OFFCURVE",
"517 349 OFFCURVE",
"469 349 CURVE SMOOTH"
);
}
);
width = 849;
}
);
unicode = 00AE;
},
{
glyphname = section;
layers = (
{
layerId = "4E0115BC-0505-415D-92F6-F9BAC1931694";
name = Regular;
paths = (
{
closed = 1;
nodes = (
"392 201 CURVE",
"415 223 OFFCURVE",
"441 269 OFFCURVE",
"441 319 CURVE SMOOTH",
"441 414 OFFCURVE",
"357 448 OFFCURVE",
"275 449 CURVE SMOOTH",
"222 450 OFFCURVE",
"183 467 OFFCURVE",
"183 519 CURVE SMOOTH",
"183 591 OFFCURVE",
"251 636 OFFCURVE",
"314 636 CURVE SMOOTH",
"358 636 OFFCURVE",
"402 620 OFFCURVE",
"414 579 CURVE",
"489 611 LINE",
"468 660 OFFCURVE",
"427 715 OFFCURVE",
"326 715 CURVE SMOOTH",
"215 715 OFFCURVE",
"93 626 OFFCURVE",
"93 506 CURVE SMOOTH",
"93 470 OFFCURVE",
"103 438 OFFCURVE",
"117 423 CURVE",
"98 402 OFFCURVE",
"73 362 OFFCURVE",
"73 310 CURVE SMOOTH",
"73 227 OFFCURVE",
"134 180 OFFCURVE",
"232 174 CURVE SMOOTH",
"274 171 OFFCURVE",
"321 163 OFFCURVE",
"321 111 CURVE SMOOTH",
"321 39 OFFCURVE",
"248 -4 OFFCURVE",
"186 -4 CURVE SMOOTH",
"137 -4 OFFCURVE",
"99 16 OFFCURVE",
"65 61 CURVE",
"-3 7 LINE",
"24 -34 OFFCURVE",
"79 -88 OFFCURVE",
"172 -88 CURVE SMOOTH",
"269 -88 OFFCURVE",
"415 -20 OFFCURVE",
"415 132 CURVE SMOOTH",
"415 163 OFFCURVE",
"407 188 OFFCURVE"
);
},
{
closed = 1;
nodes = (
"158 310 CURVE SMOOTH",
"158 343 OFFCURVE",
"176 374 OFFCURVE",
"194 390 CURVE",
"210 382 OFFCURVE",
"236 377 OFFCURVE",
"263 377 CURVE SMOOTH",
"305 377 OFFCURVE",
"355 359 OFFCURVE",
"355 305 CURVE SMOOTH",
"355 274 OFFCURVE",
"337 241 OFFCURVE",
"315 225 CURVE",
"270 246 OFFCURVE",
"158 222 OFFCURVE"
);
}
);
width = 498;
}
);
unicode = 00A7;
},
{
glyphname = trademark;
layers = (
{
layerId = "4E0115BC-0505-415D-92F6-F9BAC1931694";
name = Regular;
paths = (
{
closed = 1;
nodes = (
"386 712 LINE",
"146 712 LINE",
"133 652 LINE",
"223 652 LINE",
"174 420 LINE",
"234 420 LINE",
"283 652 LINE",
"373 652 LINE"
);
},
{
closed = 1;
nodes = (
"367 420 LINE",
"427 420 LINE",
"471 628 LINE",
"509 462 LINE",
"557 462 LINE",
"666 628 LINE",
"621 420 LINE",
"681 420 LINE",
"743 710 LINE",
"657 710 LINE",
"548 532 LINE",
"514 710 LINE",
"429 710 LINE"
);
}
);
width = 731;
}
);
unicode = 2122;
},
{
glyphname = degree;
layers = (
{
layerId = "4E0115BC-0505-415D-92F6-F9BAC1931694";
name = Regular;
paths = (
{
closed = 1;
nodes = (
"182 546 CURVE SMOOTH",
"239 546 OFFCURVE",
"289 594 OFFCURVE",
"289 653 CURVE SMOOTH",
"289 693 OFFCURVE",
"262 724 OFFCURVE",
"220 724 CURVE SMOOTH",
"161 724 OFFCURVE",
"113 670 OFFCURVE",
"113 616 CURVE SMOOTH",
"113 575 OFFCURVE",
"141 546 OFFCURVE"
);
},
{
closed = 1;
nodes = (
"192 593 CURVE SMOOTH",
"173 593 OFFCURVE",
"160 606 OFFCURVE",
"160 628 CURVE SMOOTH",
"160 654 OFFCURVE",
"186 677 OFFCURVE",
"210 677 CURVE SMOOTH",
"229 677 OFFCURVE",
"241 663 OFFCURVE",
"241 643 CURVE SMOOTH",
"241 616 OFFCURVE",
"215 593 OFFCURVE"
);
}
);
width = 265;
}
);
unicode = 00B0;
},
{
glyphname = estimated;
layers = (
{
layerId = "4E0115BC-0505-415D-92F6-F9BAC1931694";
name = Regular;
paths = (
{
closed = 1;
nodes = (
"300 27 CURVE SMOOTH",
"392 27 OFFCURVE",
"451 61 OFFCURVE",
"489 101 CURVE",
"515 73 LINE",
"468 26 OFFCURVE",
"400 -10 OFFCURVE",
"300 -10 CURVE SMOOTH",
"143 -10 OFFCURVE",
"37 115 OFFCURVE",
"37 260 CURVE SMOOTH",
"37 406 OFFCURVE",
"145 531 OFFCURVE",
"300 531 CURVE SMOOTH",
"456 531 OFFCURVE",
"564 407 OFFCURVE",
"564 255 CURVE",
"144 255 LINE",
"144 105 LINE",
"182 57 OFFCURVE",
"238 27 OFFCURVE"
);
},
{
closed = 1;
nodes = (
"300 494 CURVE SMOOTH",
"238 494 OFFCURVE",
"182 463 OFFCURVE",
"144 414 CURVE",
"144 295 LINE",
"458 295 LINE",
"458 413 LINE",
"419 463 OFFCURVE",
"363 494 OFFCURVE"
);
}
);
width = 606;
}
);
unicode = 212E;
},
{
glyphname = uni2113;
layers = (
{
layerId = "4E0115BC-0505-415D-92F6-F9BAC1931694";
name = Regular;
paths = (
{
closed = 1;
nodes = (
"180 -7 CURVE SMOOTH",
"111 -7 OFFCURVE",
"70 34 OFFCURVE",
"70 103 CURVE SMOOTH",
"70 610 LINE SMOOTH",
"70 684 OFFCURVE",
"129 740 OFFCURVE",
"205 740 CURVE SMOOTH",
"280 740 OFFCURVE",
"331 687 OFFCURVE",
"331 610 CURVE SMOOTH",
"331 501 OFFCURVE",
"233 311 OFFCURVE",
"134 229 CURVE",
"125 307 LINE",
"191 373 OFFCURVE",
"260 522 OFFCURVE",
"260 604 CURVE SMOOTH",
"260 647 OFFCURVE",
"240 671 OFFCURVE",
"206 671 CURVE SMOOTH",
"172 671 OFFCURVE",
"148 646 OFFCURVE",
"148 610 CURVE SMOOTH",
"148 135 LINE SMOOTH",
"148 96 OFFCURVE",
"174 73 OFFCURVE",
"215 73 CURVE SMOOTH",
"231 73 OFFCURVE",
"253 78 OFFCURVE",
"271 85 CURVE",
"285 14 LINE",
"256 2 OFFCURVE",
"211 -7 OFFCURVE"
);
}
);
width = 343;
}
);
unicode = 2113;
},
{
glyphname = afii61352;
layers = (
{
layerId = "4E0115BC-0505-415D-92F6-F9BAC1931694";
name = Regular;
paths = (
{
closed = 1;
nodes = (
"515 0 LINE",
"590 0 LINE",
"741 709 LINE",
"651 709 LINE",
"534 157 LINE",
"240 710 LINE",
"170 710 LINE",
"19 0 LINE",
"109 0 LINE",
"224 542 LINE"
);
},
{
closed = 1;
nodes = (
"921 344 CURVE SMOOTH",
"1042 344 OFFCURVE",
"1138 451 OFFCURVE",
"1138 563 CURVE SMOOTH",
"1138 645 OFFCURVE",
"1087 711 OFFCURVE",
"999 711 CURVE SMOOTH",
"878 711 OFFCURVE",
"782 606 OFFCURVE",
"782 492 CURVE SMOOTH",
"782 412 OFFCURVE",
"831 344 OFFCURVE"
);
},
{
closed = 1;
nodes = (
"854 501 CURVE SMOOTH",
"854 582 OFFCURVE",
"919 649 OFFCURVE",
"986 649 CURVE SMOOTH",
"1033 649 OFFCURVE",
"1065 608 OFFCURVE",
"1065 553 CURVE SMOOTH",
"1065 473 OFFCURVE",
"1000 405 OFFCURVE",
"934 405 CURVE SMOOTH",
"886 405 OFFCURVE",
"854 446 OFFCURVE"
);
}
);
width = 1105;
}
);
unicode = 2116;
},
{
glyphname = asciicircum;
layers = (
{
layerId = "4E0115BC-0505-415D-92F6-F9BAC1931694";
name = Regular;
paths = (
{
closed = 1;
nodes = (
"124 303 LINE",
"286 631 LINE",
"445 303 LINE",
"520 303 LINE",
"323 710 LINE",
"249 710 LINE",
"51 303 LINE"
);
}
);
width = 556;
}
);
unicode = 005E;
},
{
glyphname = dagger;
layers = (
{
layerId = "4E0115BC-0505-415D-92F6-F9BAC1931694";
name = Regular;
paths = (
{
closed = 1;
nodes = (
"156 -130 LINE",
"232 231 LINE",
"357 231 LINE",
"374 311 LINE",
"249 311 LINE",
"348 775 LINE",
"264 775 LINE",
"165 311 LINE",
"40 311 LINE",
"23 231 LINE",
"148 231 LINE",
"72 -130 LINE"
);
}
);
width = 410;
}
);
unicode = 2020;
},
{
glyphname = daggerdbl;
layers = (
{
layerId = "4E0115BC-0505-415D-92F6-F9BAC1931694";
name = Regular;
paths = (
{
closed = 1;
nodes = (
"156 -130 LINE",
"213 142 LINE",
"338 142 LINE",
"355 222 LINE",
"230 222 LINE",
"254 333 LINE",
"378 333 LINE",
"395 413 LINE",
"271 413 LINE",
"348 775 LINE",
"264 775 LINE",
"187 413 LINE",
"62 413 LINE",
"45 333 LINE",
"170 333 LINE",
"146 222 LINE",
"21 222 LINE",
"4 142 LINE",
"129 142 LINE",
"72 -130 LINE"
);
}
);
width = 409;
}
);
unicode = 2021;
},
{
glyphname = servicemark;
layers = (
{
layerId = "4E0115BC-0505-415D-92F6-F9BAC1931694";
name = Regular;
paths = (
{
closed = 1;
nodes = (
"536 532 LINE",
"502 710 LINE",
"417 710 LINE",
"356 420 LINE",
"415 420 LINE",
"460 628 LINE",
"497 462 LINE",
"546 462 LINE",
"654 628 LINE",
"610 420 LINE",
"669 420 LINE",
"731 710 LINE",
"645 710 LINE"
);
},
{
closed = 1;
nodes = (
"354 682 LINE",
"331 702 OFFCURVE",
"300 715 OFFCURVE",
"258 715 CURVE SMOOTH",
"186 715 OFFCURVE",
"126 677 OFFCURVE",
"126 611 CURVE SMOOTH",
"126 570 OFFCURVE",
"155 553 OFFCURVE",
"207 539 CURVE SMOOTH",
"252 527 OFFCURVE",
"267 518 OFFCURVE",
"267 500 CURVE SMOOTH",
"267 479 OFFCURVE",
"246 469 OFFCURVE",
"210 469 CURVE SMOOTH",
"168 469 OFFCURVE",
"133 486 OFFCURVE",
"120 503 CURVE",
"83 458 LINE",
"112 431 OFFCURVE",
"151 416 OFFCURVE",
"198 416 CURVE SMOOTH",
"272 416 OFFCURVE",
"332 447 OFFCURVE",
"332 516 CURVE SMOOTH",
"332 562 OFFCURVE",
"298 581 OFFCURVE",
"244 594 CURVE SMOOTH",
"201 604 OFFCURVE",
"189 615 OFFCURVE",
"189 628 CURVE SMOOTH",
"189 650 OFFCURVE",
"207 663 OFFCURVE",
"246 663 CURVE SMOOTH",
"281 663 OFFCURVE",
"310 647 OFFCURVE",
"321 632 CURVE"
);
}
);
width = 712;
}
);
unicode = 2120;
},
{
glyphname = uni030F;
layers = (
{
anchors = (
{
name = _top;
position = "{172, 521}";
}
);
layerId = "4E0115BC-0505-415D-92F6-F9BAC1931694";
name = Regular;
paths = (
{
closed = 1;
nodes = (
"250 609 LINE",
"300 629 LINE",
"270 730 LINE",
"196 730 LINE"
);
},
{
closed = 1;
nodes = (
"118 609 LINE",
"168 629 LINE",
"139 730 LINE",
"64 730 LINE"
);
}
);
width = 324;
}
);
unicode = 030F;
},
{
glyphname = uni0311;
layers = (
{
anchors = (
{
name = _top;
position = "{148, 522}";
}
);
layerId = "4E0115BC-0505-415D-92F6-F9BAC1931694";
name = Regular;
paths = (
{
closed = 1;
nodes = (
"61 619 CURVE",
"111 619 LINE",
"120 657 OFFCURVE",
"140 687 OFFCURVE",
"182 687 CURVE SMOOTH",
"211 687 OFFCURVE",
"223 673 OFFCURVE",
"223 644 CURVE SMOOTH",
"223 636 OFFCURVE",
"222 628 OFFCURVE",
"221 619 CURVE",
"270 619 LINE",
"272 627 OFFCURVE",
"273 635 OFFCURVE",
"273 643 CURVE SMOOTH",
"273 691 OFFCURVE",
"239 730 OFFCURVE",
"188 730 CURVE SMOOTH",
"130 730 OFFCURVE",
"74 682 OFFCURVE"
);
}
);
width = 284;
}
);
unicode = 0311;
},
{
glyphname = commaaccent;
layers = (
{
anchors = (
{
name = _bottom;
position = "{100, 0}";
}
);
layerId = "4E0115BC-0505-415D-92F6-F9BAC1931694";
name = Regular;
paths = (
{
closed = 1;
nodes = (
"59 -213 LINE",
"105 -132 LINE",
"123 -48 LINE",
"46 -48 LINE",
"28 -132 LINE",
"53 -132 LINE",
"16 -213 LINE"
);
}
);
width = 163;
}
);
unicode = F6C3;
},
{
glyphname = dieresiscomb.case;
lastChange = "2015-10-27 00:09:21 +0000";
layers = (
{
anchors = (
{
name = _top;
position = "{428, 710}";
},
{
name = top;
position = "{428, 928}";
}
);
layerId = "4E0115BC-0505-415D-92F6-F9BAC1931694";
name = Regular;
paths = (
{
closed = 1;
nodes = (
"353 811 OFFCURVE",
"381 838 OFFCURVE",
"384 869 CURVE SMOOTH",
"387 900 OFFCURVE",
"363 927 OFFCURVE",
"332 927 CURVE SMOOTH",
"301 927 OFFCURVE",
"273 900 OFFCURVE",
"270 869 CURVE SMOOTH",
"267 838 OFFCURVE",
"291 811 OFFCURVE",
"322 811 CURVE SMOOTH"
);
},
{
closed = 0;
nodes = (
"384 869 LINE",
"387 900 OFFCURVE",
"363 927 OFFCURVE",
"332 927 CURVE SMOOTH",
"301 927 OFFCURVE",
"273 900 OFFCURVE",
"270 869 CURVE SMOOTH"
);
},
{
closed = 1;
nodes = (
"581 812 OFFCURVE",
"609 839 OFFCURVE",
"612 870 CURVE SMOOTH",
"615 901 OFFCURVE",
"591 928 OFFCURVE",
"560 928 CURVE SMOOTH",
"529 928 OFFCURVE",
"501 901 OFFCURVE",
"498 870 CURVE SMOOTH",
"495 839 OFFCURVE",
"519 812 OFFCURVE",
"550 812 CURVE SMOOTH"
);
}
);
width = 652;
}
);
},
{
color = 4;
glyphname = dotaccentcomb.case;
lastChange = "2015-10-20 20:37:12 +0000";
layers = (
{
anchors = (
{
name = _top;
position = "{214, 710}";
},
{
name = top;
position = "{214, 927}";
}
);
layerId = "4E0115BC-0505-415D-92F6-F9BAC1931694";
name = Regular;
paths = (
{
closed = 1;
nodes = (
"276 811 OFFCURVE",
"304 838 OFFCURVE",
"307 869 CURVE SMOOTH",
"310 900 OFFCURVE",
"286 927 OFFCURVE",
"255 927 CURVE SMOOTH",
"224 927 OFFCURVE",
"196 900 OFFCURVE",
"193 869 CURVE SMOOTH",
"190 838 OFFCURVE",
"214 811 OFFCURVE",
"245 811 CURVE SMOOTH"
);
}
);
width = 258;
}
);
},
{
color = 4;
glyphname = gravecomb.case;
lastChange = "2015-10-20 20:37:12 +0000";
layers = (
{
anchors = (
{
name = _top;
position = "{410, 710}";
},
{
name = top;
position = "{410, 939}";
}
);
layerId = "4E0115BC-0505-415D-92F6-F9BAC1931694";
name = Regular;
paths = (
{
closed = 1;
nodes = (
"434 784 LINE",
"341 939 LINE",
"235 939 LINE",
"384 784 LINE"
);
}
);
width = 652;
}
);
},
{
color = 4;
glyphname = acutecomb.case;
lastChange = "2015-10-20 20:37:12 +0000";
layers = (
{
anchors = (
{
name = _top;
position = "{410, 710}";
},
{
name = top;
position = "{410, 939}";
}
);
layerId = "4E0115BC-0505-415D-92F6-F9BAC1931694";
name = Regular;
paths = (
{
closed = 1;
nodes = (
"609 939 LINE",
"503 939 LINE",
"410 784 LINE",
"460 784 LINE"
);
}
);
width = 652;
}
);
},
{
glyphname = uni02C9;
layers = (
{
anchors = (
{
name = _top;
position = "{201, 522}";
}
);
layerId = "4E0115BC-0505-415D-92F6-F9BAC1931694";
name = Regular;
paths = (
{
closed = 1;
nodes = (
"83 652 LINE",
"361 652 LINE",
"374 710 LINE",
"95 710 LINE"
);
}
);
width = 385;
}
);
unicode = 02C9;
},
{
glyphname = acute;
layers = (
{
anchors = (
{
name = _top;
position = "{91, 522}";
}
);
layerId = "4E0115BC-0505-415D-92F6-F9BAC1931694";
name = Regular;
paths = (
{
closed = 1;
nodes = (
"192 730 LINE",
"105 730 LINE",
"29 629 LINE",
"83 609 LINE"
);
}
);
width = 222;
}
);
unicode = 00B4;
},
{
glyphname = breve;
layers = (
{
anchors = (
{
name = _top;
position = "{148, 522}";
}
);
layerId = "4E0115BC-0505-415D-92F6-F9BAC1931694";
name = Regular;
paths = (
{
closed = 1;
nodes = (
"159 662 CURVE SMOOTH",
"134 662 OFFCURVE",
"117 685 OFFCURVE",
"117 713 CURVE SMOOTH",
"117 719 OFFCURVE",
"118 724 OFFCURVE",
"119 730 CURVE",
"68 730 LINE",
"66 721 OFFCURVE",
"65 713 OFFCURVE",
"65 704 CURVE SMOOTH",
"65 654 OFFCURVE",
"98 619 OFFCURVE",
"150 619 CURVE SMOOTH",
"209 619 OFFCURVE",
"265 667 OFFCURVE",
"278 730 CURVE",
"228 730 LINE",
"216 691 OFFCURVE",
"186 662 OFFCURVE"
);
}
);
width = 284;
}
);
unicode = 02D8;
},
